/* XPM */
static const char *psafetxt_xpm[] = {
/* columns rows colors chars-per-pixel */
"222 34 5 1",
"X c #FFFFFF",
"O c #808080",
". c #FFFF00",
"o c #008080",
"  c #C0C0C0",
/* pixels */
"            ......................................................................................................................................................................................................            ",
"         ...........................................................................................................................................................................................................          ",
"        ..............................................................................................................................................................................................................        ",
"      ..................................................................................................................................................................................................................      ",
"     ...............                                                                                                                                                                                       ..............     ",
"    ................                                                                                                                                                                                       ...............    ",
"    ....        XXXXXXXXXXXXX            XXXXXXXXXXXXXXXXXXXXXXXXXXXXXXXXXXXXXXXXXXXXXXXXXXXXXXXXXXXXXXXXXXXXXXXXXXXXXXXXXXXXXXXXXXXXXXXXXXXXXXXXXXXXXX       XXXXXXXXXXXXXXXXXXXXXX      XXXXXXXXXXXXXXXXXXXXX       ....    ",
"   ....        XXXXXXXXXXXX ooooooooooO    XXXXXXXXXXXXXXXXXXXXXXXXXXXXXXXXXXXXXXXXXXXXXXXXXXXXXXXXXXXXXXXXXXXXXXXXXXXXXXXXXXXXXXXXXXXXXXX ooo   XXXOooooooo    XXXXXXXXXXXXXXXXXXOooooo    XXXXXXXXXXXXXXXXXXXX       ....   ",
"  ..................        oooooooooooo                                                                                                   ooo     ooooooooooO                   Ooooooo                   .................  ",
"  ..................        oooooooooooooO                                                                                                 ooo    Oooooooooooo                   ooooOOOO                  .................  ",
" ....          XXXXXXXXXXX  oooOOOOOOooooO    XXXXXXXXXXXXXXXXXXXXXXXXXXXXXXXXXXXXXXXXXXXXXXXXXXXXXXXXXXXXXXXXXXXXXXXXXXXXXXXXXXXXXXXXXXXX ooo    ooooOOOOooooO    XXXXXXXXXXXXX oooOOOO           XXXXXXXXXXXXX         .... ",
" ....          XXXXXXXXXXX  oooOOOOOOOoooo     X       XXXXXX        XXXXXX    XXXXXXXXXXXXXXXXXXXXXXXXXXXXXXX   XXXXXXXXXXXXX  XXXXXX  X  oooO   oooOOOOOOoooo    XXX       XXX oooOOOO             XXXXXXXXXXX         .... ",
" ...................        oooOOOOOOOooooOO  ooooooo      OooooooO      OooooooO    ooo     ooo     ooo    OoooooO    X ooo oooo   OooooO oooOO  ooooOOOOOOOOOO    ooooooo    ooooooooOOOOoooooo          .................. ",
" ...................        oooOOOOOOOooooOOOooooooooo    oooooooooO    oooooooooO   ooo    ooooO   Oooo   ooooooooo     oooooooo  oooooooooooOO  ooooooOOOOOOO    ooooooooo   ooooooooOOOooooooooO        .................. ",
"....           XXXXXXXXXXX  oooOOO   OoooOOOOoooOOooooO  OooooOOoooo   OooooOOoooo   oooO   ooooo   oooO  ooooOOooooo    oooooooO OooooOOoooooOO  OooooooooO      OoooOOooooO  OoooooooOOooooOOoooo     XXXXXXXX          ....",
"....           XXXXXXXXXXX  oooooooooooooOOOooo  OOoooo  ooooOOOOoooO  ooooOOOOoooO   ooo   ooooo   ooo  Oooo    OoooO   ooooOOOO oooo OOOooooOO   OoooooooooO    ooo  OOooooO   oooOOOOooooOOOOoooO    XXXXXXXX          ....",
"...................         ooooooooooooOOOOOOOOOOOooooOOoooooOOOOOOO  oooooOOOOOOO   oooO OoooooOOOoooOOooooOOOOOoooo   ooooOOOOOoooOOOOOOoooOO     oooooooooO      OOOOooooOOOOoooOOOOoooOOOOOooooOO      ..................",
"...................         oooooooooooOOOOO   OOooooooOOOooooooooOOO   ooooooooOOO   oooOOoooOoooOoooOOOoooOOO   Oooo   oooOOOOOOoooOOOOOOoooOO      OOOooooooO     OOooooooOOOOoooOOOOooooOOOOooooOOO     ..................",
"....           XXXXXXXXXXX  oooOOOOOOOOOOO   ooooooooooOOOOoooooooooO    oooooooooO    oooOoooOoooOoooOOOoooOOO   OoooO  oooOOO   oooOOO   oooOO        OOOooooO   ooooooooooOO  oooOOOOooooooooooooO    XXXXXXX          ....",
"....           XXXXXXXXXXX  oooOOOOOOOOO    oooooooooooOOO  OOooooooo     OOooooooo    oooOoooOoooOoooOOOoooOO    OoooOO oooOOO   oooOO    oooOO oooO     OOoooOO oooooooooooOO  oooOOOOooooOOOOOOOOO    XXXXXXX          ....",
" ...................        oooOOOOOOOOO   OoooOOOOooooOOOOOOOOOOooooOO  OOOOOOooooO   ooooooOOoooooooOOOooooO    ooooOOOoooOOO   ooooOO  OoooOO oooo      OoooOOOoooOOOOooooOOOOoooOOOOoooOOOOOOOOOOOO  .................... ",
" ...................        oooOOOOOO      OoooOOOOooooOOooooOOOOOoooOOooooOOOOOoooO   OoooooOOOoooooOOO ooooO   OoooOOOOoooOO    ooooOO  ooooOOOOooooO    ooooOOOoooOOOOooooOOOOoooOOOOooooOOOOoooOOOO    .................. ",
" ....          XXXXXXXXXXX  oooOOO          ooooOooooooOOoooooOOoooooOOoooooOOoooooO    oooooOOOoooooOO   oooooOoooooOO  oooOO     ooooOOoooooOO  oooooooooooooOOOooooOooooooOO  oooOOO OooooooooooO     XXXXXXX         .... ",
" ....          XXXXXXXXXXX  oooOO    XXXXXX oooooooooooOOOooooooooooOOO ooooooooooOO    ooooOOOOoooooOO    oooooooooOO   oooO      OooooooooooOO   oooooooooooOOOOoooooooooooOO  oooOOO  OooooooooOO     XXXXXXX         .... ",
"  ..................        oooOOO           oooooOOoooOOOOOoooooooOOOO  OoooooooOOO    OoooOOO OoooOOO     ooooooOOOO   oooO       OooooOOoooOO    OoooooooOOOOOOOoooooOOoooOOO oooOOOOOOOooooooOOOOO     .................  ",
"  ..................         OOOOO            OOOOOOOOOOOO  OOOOOOOOOO     OOOOOOOO        OOO     OOO        OOOOOO                  OOOOOOOOO      OOOOOOOOOOO    OOOOOOOOOOO    OOOO   OOOOOOOOOOO      .................  ",
"   ....        XXXXXXXXXXXX         XXXXXXXX                                          XX                XXX                     XXXX                     OOOO                                 OOOO      XXXXXXXX      .....   ",
"    .....      XXXXXXXXXXXX         XXXXXXXX                                         XXXX              XXXXX           XXX     XXXXXX             XX                                                   XXXXXXXXX     .....    ",
"    ................                                                                                    XXXXX         XXXX     XXXXXX                                                                      ...............    ",
"     ........................                                                                          XXXXXXX        XXXX      XXXXX                                                                ....................     ",
"      .................................................................................................................................................................................................................       ",
"        ..............................................................................................................................................................................................................        ",
"          ..........................................................................................................................................................................................................          ",
"             ....................................................................................................................................................................................................             "
};
