/* XPM */
static char *abase_exp_xpm[] = {
/* columns rows colors chars-per-pixel */
"9 9 21 1",
"X c Black",
"O c #4E004E",
"1 c #4C004C",
"% c #4A004A",
"# c #6A006A",
"+ c #656565",
"o c #3C003C",
", c #352235",
"> c #9A9A9A",
"2 c #620062",
"  c #C0C0C0",
". c #505050",
"- c #5E005E",
"; c #2B2B2B",
"* c #858585",
"@ c #4C214C",
"& c #800080",
"< c #6B006B",
"$ c #252525",
"= c #3E163E",
": c #670067",
/* pixels */
"   .XX.  ",
"   .oo.  ",
"   .OO.  ",
"  +@##@+ ",
"  $%&&%$ ",
" *=-&&-=*",
" ;:&&&&:;",
">,<&&&&<,",
"X12222221"
};
