/* XPM */
static const char * const classic_Email_xpm[] = {
/* columns rows colors chars-per-pixel */
"16 16 3 1",
/* colors */
"  c None",
". c #606060",
"+ c #ed3de9",
/* pixels */
"                ",
"                ",
"  ...........   ",
"  .+++++++++.   ",
"  .++........   ",
"  .++.          ",
"  .++........   ",
"  .+++++++++.   ",
"  .++........   ",
"  .++.          ",
"  .++.          ",
"  .++........   ",
"  .+++++++++.   ",
"  ...........   ",
"                ",
"                ",
};
