/* XPM */
static const char *classic_Group[] = {
/* width height ncolors chars_per_pixel */
"16 16 3 1",
"  c #c0c0c0",
". c #606060",
"+ c #0080ff",
"                ",
"                ",
"  ............  ",
"  .++++++++++.  ",
"  .++++++++++.  ",
"  .++.........  ",
"  .++.          ",
"  .++.   .....  ",
"  .++.   .+++.  ",
"  .++.   ..++.  ",
"  .++......++.  ",
"  .++++++++++.  ",
"  .++++++++++.  ",
"  ............  ",
"                ",
"                ",
};
