/* XPM */
static const char * const classic_NotesX_xpm[] = {
/* columns rows colors chars-per-pixel */
"16 16 3 1",
/* colors */
"  c None",
". c #808080",
"X c #c0c0c0",
/* pixels */
"                ",
"                ",
"  .....   ....  ",
"  .XXX..  .XX.  ",
"  .XXXX.  .XX.  ",
"  .XX.X.. .XX.  ",
"  .XX.XX. .XX.  ",
"  .XX..XX..XX.  ",
"  .XX..XX..XX.  ",
"  .XX. .XX.XX.  ",
"  .XX. ..X.XX.  ",
"  .XX.  .XXXX.  ",
"  .XX.  ..XXX.  ",
"  ....   .....  ",
"                ",
"                ",
};
