/* XPM */
static const char *classic_TitleX[] = {
/* width height ncolors chars_per_pixel */
"16 16 3 1",
"  c None",
". c #808080",
"X c #c0c0c0",
"                ",
"                ",
"  ............  ",
"  .XXXXXXXXXX.  ",
"  .XXXXXXXXXX.  ",
"  .....XX.....  ",
"      .XX.      ",
"      .XX.      ",
"      .XX.      ",
"      .XX.      ",
"      .XX.      ",
"      .XX.      ",
"      .XX.      ",
"      ....      ",
"                ",
"                ",
};
