/* XPM */
static const char * const abase_exp_dark_xpm[] = {
/* width height ncolors chars_per_pixel */
"13 13 17 1",
/* colors */
"  c #BA442C",
". c #B55129",
"X c #B83A22",
"o c #B54A25",
"O c #B66736",
"+ c #CEB185",
"@ c #DCA596",
"# c #BA7B46",
"$ c #BA3422",
"% c #DCCAA9",
"& c #C0905C",
"* c #D39B82",
"= c #1D1E20", /* Background */
"- c #FAF8F3",
"; c #EDE4D2",
": c #BA3A26",
"> c None",
/* pixels */
"=============",
"=============",
"=====%o#=====",
"====;.$$&====",
"===-O$$$X+===",
"=== $$$$$$*==",
"==:$$$$$$$$@=",
"==$$$$$$$$$$=",
"=============",
"==@$$$$$$$$@=",
"==$$$$$$$$$$=",
"=============",
"============="
};
