/* XPM */
static const char * const about_xpm[] = {
/* columns rows colors chars-per-pixel */
"16 16 161 2",
/* colors */
"  	c None",
". 	c #5298D8",
"+ 	c #4D96D4",
"@ 	c #4C92D2",
"# 	c #458CCD",
"$ 	c #418BCB",
"% 	c #408BC9",
"& 	c #408BC7",
"* 	c #3D87C5",
"= 	c #4F97D6",
"- 	c #4991D1",
"; 	c #6AA0D0",
"> 	c #A0BFE0",
", 	c #AEC5E3",
"' 	c #9FBCDF",
") 	c #6297C8",
"! 	c #357DBD",
"~ 	c #357EBC",
"{ 	c #478DCF",
"] 	c #8CB2D9",
"^ 	c #B8CDE6",
"/ 	c #9DBAE0",
"( 	c #85ABD7",
"_ 	c #82A9D6",
": 	c #91B3D9",
"< 	c #ABC2E1",
"[ 	c #86AED4",
"} 	c #356BB1",
"| 	c #356FB1",
"1 	c #4C93D2",
"2 	c #478ECE",
"3 	c #B3CAE6",
"4 	c #7DA9D6",
"5 	c #79A5D1",
"6 	c #A8C4E2",
"7 	c #A8C3E1",
"8 	c #76A2D0",
"9 	c #77A4D1",
"0 	c #A2BDDD",
"a 	c #85ACD0",
"b 	c #3566AB",
"c 	c #3565A9",
"d 	c #4791CE",
"e 	c #689CCD",
"f 	c #B4CBE7",
"g 	c #7AA5D4",
"h 	c #77A0D0",
"i 	c #749ECF",
"j 	c #F5F8FB",
"k 	c #719ECB",
"l 	c #719DCB",
"m 	c #77A1CD",
"n 	c #A5C0DF",
"o 	c #5B8AB9",
"p 	c #345CA4",
"q 	c #418ECB",
"r 	c #9FBCE0",
"s 	c #93B3DB",
"t 	c #75A0CF",
"u 	c #729ECD",
"v 	c #719CCB",
"w 	c #A3BFDD",
"x 	c #A2BFDD",
"y 	c #6B99C5",
"z 	c #6B98C4",
"A 	c #85ABD1",
"B 	c #97BAD8",
"C 	c #35569E",
"D 	c #3B85C5",
"E 	c #B0C9E4",
"F 	c #7AA3D0",
"G 	c #719DCC",
"H 	c #6C9AC7",
"I 	c #6B98C5",
"J 	c #FFFFFF",
"K 	c #FEFFFF",
"L 	c #6996C3",
"M 	c #6894C1",
"N 	c #6894C2",
"O 	c #6D98C3",
"P 	c #ABC5DF",
"Q 	c #345395",
"R 	c #357EBF",
"S 	c #AFC7E3",
"T 	c #6A97C4",
"U 	c #6996C4",
"V 	c #D4E0EE",
"W 	c #F4F7FB",
"X 	c #6690BF",
"Y 	c #658FBE",
"Z 	c #648FBE",
"` 	c #6992BE",
" .	c #AAC6DF",
"..	c #345092",
"+.	c #9CBCDB",
"@.	c #89ADD5",
"#.	c #6C98C7",
"$.	c #6995C3",
"%.	c #6793C1",
"&.	c #D3DFED",
"*.	c #F4F7FA",
"=.	c #638BBB",
"-.	c #638AB9",
";.	c #628AB8",
">.	c #789DC5",
",.	c #93B8D2",
"'.	c #355190",
").	c #3578B8",
"!.	c #5E91BF",
"~.	c #A8C2E0",
"{.	c #6C96C5",
"].	c #6991C2",
"^.	c #B8CBE1",
"/.	c #FCFDFE",
"(.	c #D0DCEA",
"_.	c #5E85B4",
":.	c #5E85B3",
"<.	c #99B5D4",
"[.	c #567BAE",
"}.	c #35518F",
"|.	c #3570AF",
"1.	c #3569AB",
"2.	c #81AACF",
"3.	c #A2BCDA",
"4.	c #6691BE",
"5.	c #628CBA",
"6.	c #5F89B7",
"7.	c #5E84B3",
"8.	c #5D83B1",
"9.	c #5C83B0",
"0.	c #8DAACD",
"a.	c #79A5C6",
"b.	c #345089",
"c.	c #355089",
"d.	c #3462A7",
"e.	c #33559F",
"f.	c #7DA7CB",
"g.	c #9FBBD8",
"h.	c #779CC3",
"i.	c #628AB6",
"j.	c #6086B4",
"k.	c #7296BE",
"l.	c #97B3D1",
"m.	c #77A3C5",
"n.	c #354F84",
"o.	c #34569F",
"p.	c #345599",
"q.	c #5780B2",
"r.	c #93B7D5",
"s.	c #A6C3DB",
"t.	c #A6C3DA",
"u.	c #90B4D2",
"v.	c #527AAB",
"w.	c #344F86",
"x.	c #355088",
"y.	c #355497",
"z.	c #345394",
"A.	c #345292",
"B.	c #34508A",
"C.	c #344F88",
"D.	c #365084",
/* pixels */
"                                ",
"        . + @ # $ % & *         ",
"      = - ; > , , ' ) ! ~       ",
"    + { ] ^ / ( _ : < [ } |     ",
"  1 2 ] 3 4 5 6 7 8 9 0 a b c   ",
"  d e f g h i j j k l m n o p   ",
"  q r s t u v w x y y z A B C   ",
"  D E F G H I J K L M N O P Q   ",
"  R S 8 y T U V W X Y Z `  ...  ",
"  ~ +.@.#.$.%.&.*.=.-.;.>.,.'.  ",
"  ).!.~.{.].^./.K (._.:.<.[.}.  ",
"  |.1.2.3.4.5.6.7.8.9.0.a.b.c.  ",
"    d.e.f.g.h.i.j.k.l.m.n.c.    ",
"      o.p.q.r.s.t.u.v.w.x.      ",
"        y.z.A.B.C.c.c.D.        ",
"                                "};
