/* XPM */
static const char * const checkmark_gray_xpm[] = {
"19 16 36 1",
" 	c None",
".	c #080808",
"+	c #000000",
"@	c #1F1F1F",
"#	c #727272",
"$	c #535353",
"%	c #1E1E1E",
"&	c #808080",
"*	c #1B1B1B",
"=	c #717171",
"-	c #787878",
";	c #181818",
">	c #707070",
",	c #797979",
"'	c #303030",
")	c #1C1C1C",
"!	c #101010",
"~	c #747474",
"{	c #232323",
"]	c #737373",
"^	c #212121",
"/	c #323232",
"(	c #151515",
"_	c #777777",
":	c #262626",
"<	c #7A7A7A",
"[	c #353535",
"}	c #2F2F2F",
"|	c #7B7B7B",
"1	c #363636",
"2	c #7C7C7C",
"3	c #3A3A3A",
"4	c #7E7E7E",
"5	c #3F3F3F",
"6	c #424242",
"7	c #767676",
"               .+  ",
"              @#$+ ",
"             %#&&$+",
"            *=&&&-;",
"           *>&&&,' ",
"          )=&&&,'  ",
"  +!     )=&&&,'   ",
" +$~{   )=&&&,'    ",
"+$&&]^ )=&&&,/     ",
"(_&&&#:=&&&<[      ",
" }-&&&&&&&|1       ",
"  '-&&&&&23        ",
"   ',&&&45         ",
"    ',&46          ",
"     '76           ",
"      +            "};
