/* XPM */
static const char * const checked_disabled_dark_xpm[] = {
/* width height num_colors chars_per_pixel */
"13 13 3 1",
/* colors */
"  c #7f7f7f",
". c #1D1E20", /* Background */
"# c #c3c3c3",
/* pixels */
"             ",
" ........... ",
" ..........# ",
" .........## ",
" ........### ",
" .......###. ",
" #.....###.. ",
" ##...###... ",
" ###.###.... ",
" .#####..... ",
" ..###...... ",
" ...#....... ",
"             "
};
