/* XPM */
static const char * const exit_xpm[] = {
/* columns rows colors chars-per-pixel */
"16 16 180 2",
/* colors */
"  	c None",
". 	c #D49C6D",
"+ 	c #D29A6A",
"@ 	c #CF9766",
"# 	c #D69E70",
"$ 	c #DAB185",
"% 	c #B9915A",
"& 	c #CB9360",
"* 	c #808080",
"= 	c #7E7E7E",
"- 	c #7C7C7C",
"; 	c #7A7A7A",
"> 	c #777777",
", 	c #757575",
"' 	c #727272",
") 	c #D49E71",
"! 	c #D69E6F",
"~ 	c #DCB287",
"{ 	c #E8D3AB",
"] 	c #E6D0A9",
"^ 	c #B89058",
"/ 	c #C68E59",
"( 	c #7D7D7D",
"_ 	c #999999",
": 	c #9A9A9A",
"< 	c #9B9B9B",
"[ 	c #D39D6F",
"} 	c #E7D1AA",
"| 	c #E7D1AB",
"1 	c #E1C798",
"2 	c #DEC291",
"3 	c #B78F56",
"4 	c #C18952",
"5 	c #599152",
"6 	c #999A99",
"7 	c #9C9C9C",
"8 	c #D09A6C",
"9 	c #E5CEA7",
"0 	c #DFC18F",
"a 	c #DCBD89",
"b 	c #DCBD8B",
"c 	c #B68D53",
"d 	c #BC844B",
"e 	c #458A3D",
"f 	c #4F8A49",
"g 	c #9D9D9D",
"h 	c #CC9666",
"i 	c #E3CBA2",
"j 	c #DAB983",
"k 	c #DAB984",
"l 	c #B58B51",
"m 	c #B67E43",
"n 	c #4D9444",
"o 	c #4B9142",
"p 	c #488D3F",
"q 	c #45893D",
"r 	c #65A45D",
"s 	c #61A05A",
"t 	c #4B8345",
"u 	c #9E9E9E",
"v 	c #C99260",
"w 	c #E2C79E",
"x 	c #DAB883",
"y 	c #D7B47D",
"z 	c #D7B37E",
"A 	c #B4894F",
"B 	c #B1793B",
"C 	c #4A9041",
"D 	c #9FD294",
"E 	c #9AD091",
"F 	c #96CD8D",
"G 	c #92CB89",
"H 	c #8DC884",
"I 	c #589851",
"J 	c #467C41",
"K 	c #9F9F9F",
"L 	c #C48E5A",
"M 	c #E0C398",
"N 	c #D7B37C",
"O 	c #D6AF74",
"P 	c #EDC45E",
"Q 	c #B3884B",
"R 	c #AB7334",
"S 	c #468B3E",
"T 	c #99CE8F",
"U 	c #87C67D",
"V 	c #81C378",
"W 	c #7CC073",
"X 	c #7CC074",
"Y 	c #81C279",
"Z 	c #4F9049",
"` 	c #577F54",
" .	c #BF8954",
"..	c #DDBF94",
"+.	c #D4AD75",
"@.	c #E1B863",
"#.	c #FFD44B",
"$.	c #B88B42",
"%.	c #A66E2C",
"&.	c #42873B",
"*.	c #88C680",
"=.	c #83C37B",
"-.	c #7FC177",
";.	c #4D8F47",
">.	c #3F743B",
",.	c #A1A1A1",
"'.	c #BA844C",
").	c #DBBB8D",
"!.	c #D1A86E",
"~.	c #D1A666",
"{.	c #DFB45F",
"].	c #B18547",
"^.	c #A16925",
"/.	c #3E8237",
"(.	c #3B7E34",
"_.	c #377931",
":.	c #34752E",
"<.	c #509149",
"[.	c #4C8F46",
"}.	c #3D7339",
"|.	c #A2A2A2",
"1.	c #B47E45",
"2.	c #D9B788",
"3.	c #CFA367",
"4.	c #CC9E61",
"5.	c #CC9F63",
"6.	c #B18345",
"7.	c #9C641F",
"8.	c #606060",
"9.	c #A0A0A0",
"0.	c #41763D",
"a.	c #397136",
"b.	c #A3A3A3",
"c.	c #B0793D",
"d.	c #D7B382",
"e.	c #CC9F62",
"f.	c #C99A5A",
"g.	c #CA9B5E",
"h.	c #AF8143",
"i.	c #986019",
"j.	c #5C5C5C",
"k.	c #40733C",
"l.	c #A1A1A0",
"m.	c #A4A4A4",
"n.	c #AA7436",
"o.	c #D4AF7D",
"p.	c #C99A5B",
"q.	c #C79554",
"r.	c #C89658",
"s.	c #AE8041",
"t.	c #945C13",
"u.	c #585858",
"v.	c #A5A5A5",
"w.	c #A56F2F",
"x.	c #D2AB78",
"y.	c #D3AB78",
"z.	c #D1A773",
"A.	c #CDA069",
"B.	c #AE7F40",
"C.	c #91590F",
"D.	c #717171",
"E.	c #545454",
"F.	c #515151",
"G.	c #4F4F4F",
"H.	c #4C4C4C",
"I.	c #4A4A4A",
"J.	c #474747",
"K.	c #454545",
"L.	c #9D6725",
"M.	c #A87432",
"N.	c #AF7C3D",
"O.	c #B58447",
"P.	c #BA8A4E",
"Q.	c #AD7E3E",
"R.	c #8F570C",
"S.	c #9B631D",
"T.	c #955D14",
"U.	c #925A10",
"V.	c #90580D",
"W.	c #925C13",
/* pixels */
"                          . + @ ",
"                      # . $ % & ",
"    * = - ; > , ' ) ! ~ { ] ^ / ",
"    ( _ _ : : < < [ } | 1 2 3 4 ",
"    ; _ 5 6 < 7 7 8 9 0 a b c d ",
"    > : e f 7 g g h i a j k l m ",
"n o p q r s t u u v w x y z A B ",
"C D E F G H I J K L M N O P Q R ",
"S T U V W X Y Z `  ...+.@.#.$.%.",
"&.G H *.=.-.;.>.,.'.).!.~.{.].^.",
"/.(._.:.<.[.}.,.|.1.2.3.4.5.6.7.",
"    8.9.0.a.|.|.b.c.d.e.f.g.h.i.",
"    j.,.k.l.b.b.m.n.o.p.q.r.s.t.",
"    u.|.|.b.m.m.v.w.x.y.z.A.B.C.",
"_ D.E.F.G.H.I.J.K.L.M.N.O.P.Q.R.",
"                  S.i.T.U.V.W.R."};
