/* XPM */
static const char * const eye_close_xpm[] = {
"29 19 2 1",
" 	c None",
".	c #808080",
"                      ..     ",
"          .........  ...     ",
"       ............ ...      ",
"     ............. ...       ",
"    ........      ... ...    ",
"   ........      ... .....   ",
"  ........   .. ... .......  ",
" ........   .. ...  ........ ",
".........  .. ...   .........",
".........  . ... .  .........",
".........   ... ..  .........",
" ........  ... ..   ........ ",
" ........ ... ..    ........ ",
"  ...... ...       ........  ",
"   .... ...       ........   ",
"     . ... .............     ",
"      ... .............      ",
"     ... ...........         ",
"     ..      ...             "};
