/* XPM */
static const char * const lock_xpm[] = {
/* columns rows colors chars-per-pixel */
"16 16 176 2",
/* colors */
"  	c None",
". 	c #A5A5A5",
"+ 	c #A3A3A3",
"@ 	c #A0A0A0",
"# 	c #9D9D9D",
"$ 	c #9A9A9A",
"% 	c #979797",
"& 	c #949494",
"* 	c #909090",
"= 	c #A4A4A4",
"- 	c #A2A2A2",
"; 	c #BCBCBC",
"> 	c #CACACA",
", 	c #CCCCCC",
"' 	c #C2C2C2",
") 	c #ADADAD",
"! 	c #8C8C8C",
"~ 	c #898989",
"{ 	c #A1A1A1",
"] 	c #C4C4C4",
"^ 	c #BEBEBE",
"/ 	c #969696",
"( 	c #939393",
"_ 	c #AEAEAE",
": 	c #848484",
"< 	c #818181",
"[ 	c #BABABA",
"} 	c #BFBFBF",
"| 	c #989898",
"1 	c #919191",
"2 	c #8E8E8E",
"3 	c #8A8A8A",
"4 	c #878787",
"5 	c #A8A8A8",
"6 	c #9E9E9E",
"7 	c #7D7D7D",
"8 	c #828282",
"9 	c #A9A9A9",
"0 	c #797979",
"a 	c #999999",
"b 	c #C6C6C6",
"c 	c #8F8F8F",
"d 	c #7E7E7E",
"e 	c #ABABAB",
"f 	c #767676",
"g 	c #E1C361",
"h 	c #A8A088",
"i 	c #DCB95A",
"j 	c #DFB855",
"k 	c #DEB551",
"l 	c #DDB14D",
"m 	c #DCAD49",
"n 	c #D7A846",
"o 	c #787878",
"p 	c #8D7E65",
"q 	c #D89931",
"r 	c #E1C260",
"s 	c #FCF3C9",
"t 	c #FDF3CB",
"u 	c #FEF6D4",
"v 	c #FFF6D7",
"w 	c #FFF4D8",
"x 	c #FFF8E0",
"y 	c #FFF8DF",
"z 	c #FFF5DA",
"A 	c #FCF1CD",
"B 	c #FAEDC2",
"C 	c #FAEBBD",
"D 	c #D6932B",
"E 	c #E0BF5C",
"F 	c #FCF3C8",
"G 	c #F9DF75",
"H 	c #FDE689",
"I 	c #FFE795",
"J 	c #FFE59A",
"K 	c #FFEEAA",
"L 	c #FFEDA8",
"M 	c #FFE399",
"N 	c #F9D574",
"O 	c #F3CC59",
"P 	c #F1C84F",
"Q 	c #FAE9BB",
"R 	c #D58D24",
"S 	c #DFBB58",
"T 	c #FCF1C7",
"U 	c #F9DC6F",
"V 	c #EDBB56",
"W 	c #EFBD61",
"X 	c #FFE79B",
"Y 	c #E2A635",
"Z 	c #E1A44B",
"` 	c #FFE290",
" .	c #E9AD49",
"..	c #E3A438",
"+.	c #F0C449",
"@.	c #F9E8B8",
"#.	c #D4881E",
"$.	c #DEB753",
"%.	c #FCF0C6",
"&.	c #F8D96A",
"*.	c #FDE27C",
"=.	c #FFE890",
"-.	c #FFE999",
";.	c #DF9F32",
">.	c #B28B54",
",.	c #FFE28A",
"'.	c #F9D06A",
").	c #F1C550",
"!.	c #F0C146",
"~.	c #F9E7B6",
"{.	c #D38318",
"].	c #DDB24E",
"^.	c #FBEFC3",
"/.	c #F8D665",
"(.	c #ECB64C",
"_.	c #EFBD5A",
":.	c #FFEB95",
"<.	c #DD9730",
"[.	c #AB824D",
"}.	c #FFE184",
"|.	c #E9A941",
"1.	c #E19F32",
"2.	c #EFBE42",
"3.	c #F9E5B4",
"4.	c #D27E13",
"5.	c #FBEEC1",
"6.	c #F7D35F",
"7.	c #FCDB6C",
"8.	c #FFE57F",
"9.	c #FFED8F",
"0.	c #FFF297",
"a.	c #FFED93",
"b.	c #FFDF7C",
"c.	c #F8CC5B",
"d.	c #EFBE46",
"e.	c #EEBA3C",
"f.	c #F9E3B3",
"g.	c #D1790E",
"h.	c #DBA843",
"i.	c #FBECBF",
"j.	c #F5CF59",
"k.	c #ECB041",
"l.	c #EFBA4E",
"m.	c #EFC25A",
"n.	c #EFC660",
"o.	c #EFC45C",
"p.	c #EFB64C",
"q.	c #E6A537",
"r.	c #E19A2A",
"s.	c #EEB838",
"t.	c #F8E3B1",
"u.	c #D07509",
"v.	c #DAA33D",
"w.	c #FAEBBC",
"x.	c #FCEBBC",
"y.	c #FEEEBF",
"z.	c #FFF4C6",
"A.	c #FFF8CE",
"B.	c #FFFAD3",
"C.	c #FFF8D0",
"D.	c #FFF2C7",
"E.	c #FCE9BA",
"F.	c #F9E4B3",
"G.	c #F8E2B0",
"H.	c #CF7105",
"I.	c #D99D36",
"J.	c #D7942C",
"K.	c #D69028",
"L.	c #D58C23",
"M.	c #D3841A",
"N.	c #D28015",
"O.	c #D17C11",
"P.	c #D0760A",
"Q.	c #CF7307",
"R.	c #CF7004",
"S.	c #CE6E01",
/* pixels */
"        . + @ # $ % & *         ",
"      = - ; > , > ' ) ! ~       ",
"    = { ] ^ { / ( % _ _ : <     ",
"    { [ } | & 1 2 3 4 5 6 7     ",
"    # ] { (         8 ~ 9 0     ",
"    a b & c         d 7 e f     ",
"  g h 1 2 i j k l m n o f p q   ",
"  r s t u v w x y z A B C C D   ",
"  E F G H I J K L M N O P Q R   ",
"  S T U V W X Y Z `  ...+.@.#.  ",
"  $.%.&.*.=.-.;.>.,.'.).!.~.{.  ",
"  ].^./.(._.:.<.[.}.|.1.2.3.4.  ",
"  m 5.6.7.8.9.0.a.b.c.d.e.f.g.  ",
"  h.i.j.k.l.m.n.o.p.q.r.s.t.u.  ",
"  v.w.x.y.z.A.B.C.D.E.F.G.G.H.  ",
"  I.q J.K.L.#.M.N.O.g.P.Q.R.S.  "};
