/* XPM */
static const char * const normal_dark_xpm[] = {
/* width height ncolors chars_per_pixel */
"13 13 30 1",
/* colors */
"  c #A5D552",
". c #9BD03E",
"X c #9FD245",
"o c #94CD30",
"O c #BDE080",
"+ c #89C81B",
"@ c #CFE9A2",
"# c #8CCA21",
"$ c #EEF7DE",
"% c #92CC2D",
"& c #A1D349",
"* c #8CC920",
"= c #A9D75A",
"- c #A2D44C",
"; c #99CF39",
": c #98CF38",
"> c #A7D654",
", c #9CD13F",
"< c #90CB28",
"1 c #8FCB27",
"2 c #9ED243",
"3 c #1D1E20", /* Background */
"4 c #F4FAEA",
"5 c #A8D656",
"6 c #92CC2C",
"7 c #91CC2B",
"8 c #A0D347",
"9 c #95CE32",
"0 c #F3F9E8",
"q c None",
/* pixels */
"3333333333333",
"34&%o261,;<03",
"3O+++++++++:3",
"3=+++++++++*3",
"3>+++++++++#3",
"35+++++++++#3",
"35+++++++++#3",
"35+++++++++#3",
"35+++++++++#3",
"3>+++++++++#3",
"3@+++++++++-3",
"33859o .7X5$3",
"3333333333333"
};
