/* XPM */
static const char * const normal_warn_dark_xpm[] = {
/* width height ncolors chars_per_pixel */
"13 13 30 1",
/* colors */
"  c #D5AA95",
". c #94CD30",
"X c #B73522",
"o c #BDE080",
"O c #89C81B",
"+ c #B55E30",
"@ c #8CCA21",
"# c #B85439",
"$ c #92CC2D",
"% c #A1D349",
"& c #8CC920",
"* c #A9D75A",
"= c #99CF39",
"- c #98CF38",
"; c #A7D654",
": c #9CD13F",
"> c #BA3422",
", c #90CB28",
"< c #8FCB27",
"1 c #9ED243",
"2 c #B83522",
"3 c #1D1E20", /* Background */
"4 c #F4FAEA",
"5 c #A8D656",
"6 c #B93822",
"7 c #B93422",
"8 c #B83421",
"9 c #92CC2C",
"0 c #F3F9E8",
"q c None",
/* pixels */
"3333333333333",
"34%$.19<:=,03",
"3oOOOOOOOOO-3",
"3*OOOOOOOOO&3",
"3;OOOOOOOOO@3",
"35OOOOOOOOO@3",
"3+>>>>>>>>>63",
"3X>>>>>>>>>>3",
"3X>>>>>>>>>>3",
"3X>>>>>>>>>>3",
"3#>>>>>>>>>23",
"338X7>X7>8X 3",
"3333333333333"
};
