/* XPM */
static const char * const pwsafe48[] = {
/* columns rows colors chars-per-pixel */
"48 48 37 1",
"  c #161616",
". c gray11",
"X c #330000",
"o c #330033",
"O c #222222",
"+ c gray16",
"@ c gray20",
"# c #393939",
"$ c #660000",
"% c #660033",
"& c #663333",
"* c gray26",
"= c gray30",
"- c #555555",
"; c #5F5F5F",
": c gray40",
"> c #777777",
", c #800000",
"< c #990000",
"1 c #A50021",
"2 c #993333",
"3 c #CC3333",
"4 c #993366",
"5 c #CC3366",
"6 c #996666",
"7 c #FF5050",
"8 c #CC6666",
"9 c #FF7C80",
"0 c #808080",
"q c #868686",
"w c gray59",
"e c gray60",
"r c #ADA990",
"t c #A0A0A4",
"y c #B2B2B2",
"u c #CC9999",
"i c None",
/* pixels */
";>iiiiiiiiiiiiiiiiiiiiiiiiiiiiiiiiiiiiiiiiiiiiii",
";>0iiiiiiiiiiiiiiiiiiiiiiiiiiiiiiiiiiiiiiiiiiiii",
"-;0qiiiiiiiiiiiiiiiiiiiiiiiiiiiiiiiiiiiiiiiiiiii",
"=&:qqiiiiiiiiiiiiiiiiiiiiiiiiiiiiiiiiiiiiiiiiiii",
"#&26qwiiiiiiiiiiiiiiiiiiiiiiiiiiiiiiiiiiiiiiiiii",
"@&366qwiiiiiiiiiiiiiiiiiiiiiiiiiiiiiiiiiiiiiiiii",
"+$838qeeiiiiiiiiiiiiiiiiiiiiiiiiiiiiiiiiiiiiiiii",
"O$3888qttiiiiiiiiiiiiiiiiiiiiiiiiiiiiiiiiiiiiiii",
"O$3888uwttiiiiiiiiiiiiiiiiiiiiiiiiiiiiiiiiiiiiii",
"O$38899uweeiiiiiiiiiiiiiiiiiiiiiiiiiiiiiiiiiiiii",
"O$388899uqwwiiiiiiiiiiiiiiiiiiiiiiiiiiiiiiiiiiii",
"O$338888886qqiiiiiiiiiiiiiiiiiiiiiiiiiiiiiiiiiii",
"O$338888836:>0iiiiiiiiiiiiiiiiiiiiiiiiiiiiiiiiii",
"O$33333335322::iiiiiiiiiiiiiiiiiiiiiiiiiiiiiiiii",
"O$2222222222&&--iiiiiiiiiiiiiiiiiiiiiiiiiiiiiiii",
"@#-;--=*@+++&&#&&iiiiiiiiiiiiiiiiiiiiiiiiiiiiiii",
"+#iiiiiiiiiiiiiiiiiiiiiiiiiiiiiiiiiiiiiiiiiiiiii",
"@=:iiiiiiiiiiiiiiiiiiiiiiiiiiiiiiiiiiiiiiiiiiiii",
"#*>qiiiiiiiiiiiiiiiiiiiiiiiiiiiiiiiiiiiiiiiiiiii",
"#&:qeiiiiiiiiiiiiiiiiiiiiiiiiiiiiiiiiiiiiiiiiiii",
"@&6qeeiiiiiiiiiiiiiiiiiiiiiiiiiiiiiiiiiiiiiiiiii",
"@&38qewiiiiiiiiiiiiiiiiiiiiiiiiiiiiiiiiiiiiiiiii",
"+&878qwwiiiiiiiiiiiiiiiiiiiiiiiiiiiiiiiiiiiiiiii",
"O$38780qqiiiiiiiiiiiiiiiiiiiiiiiiiiiiiiiiiiiiiii",
"O$33836>qqiiiiiiiiiiiiiiiiiiiiiiiiiiiiiiiiiiiiii",
"O$3338366qqiiiiiiiiiiiiiiiiiiiiiiiiiiiiiiiiiiiii",
"O$3333332:0qiiiiiiiiiiiiiiiiiiiiiiiiiiiiiiiiiiii",
"O$33333332-:>iiiiiiiiiiiiiiiiiiiiiiiiiiiiiiiiiii",
".$222222222&;:iiiiiiiiiiiiiiiiiiiiiiiiiiiiiiiiii",
".X222222221&&-;iiiiiiiiiiiiiiiiiiiiiiiiiiiiiiiii",
".X,,,,,,,,,,&@=;iiiiiiiiiiiiiiiiiiiiiiiiiiiiiiii",
"OO&*###@++OO#&#;---;;;;;::::>qeyyiiiiiiiiiiiiiii",
"O+iiiiiiiiiiiiiiii**&*&=&--;:6wrytiiiiiiiiiiiiii",
"+@=iiiiiiiiiiiiiiii&&&&22455888uewqiiiiiiiiiiiii",
"@@;:iiiiiiiiiiiiiiii%&X&22388898800>iiiiiiiiiiii",
"@&;qqiiiiiiiiiiiiiiii%&X%223388886:::iiiiiiiiiii",
"#&6qweiiiiiiiiiiiiiiii$+X$223333832;::iiiiiiiiii",
"#288weeiiiiiiiiiiiiiiii$+X$223333832-::iiiiiiiii",
"#2888qwwiiiiiiiiiiiiiiii$+X$223333332-::iiiiiiii",
"@&88880qwiiiiiiiiiiiiiiiiXoX$223333332-::iiiiiii",
"+&888766qqiiiiiiiiiiiiiiiiXoX$223333332-::iiiiii",
"+$333832:0qiiiiiiiiiiiiiiii$+X$223333332-::iiiii",
"O$3333332;>qiiiiiiiiiiiiiiiiX+X$223333332-::iiii",
"O$33333332->0iiiiiiiiiiiiiiii$+X$233333532-::iii",
".$222222232&::iiiiiiiiiiiiiiii$+X$233333332-::ii",
".X2222222212&;:iiiiiiiiiiiiiiii$&X,3333333332::i",
" X$$$$$$$,,&&*;;iiiiiiiiiiiii0ii$&$,<<<<<1122&::",
"@@........O+*==;:iiiiiiiiiiiiiiii&@OO+++++@#-;;;"
};
