/* XPM */
static const char * const pwsafe16[] = {
/* columns rows colors chars-per-pixel */
"16 16 23 1",
"  c #330000",
". c gray16",
"X c #660000",
"o c #663333",
"O c gray30",
"+ c #555555",
"@ c #777777",
"# c #800000",
"$ c #990000",
"% c #A50021",
"& c #993333",
"* c #CC3333",
"= c #CC6666",
"- c #FF7C80",
"; c #868686",
": c gray60",
"> c #ADA990",
", c #C0C0C0",
"< c #EFD6C6",
"1 c #E7E7D6",
"2 c #F1F1F1",
"3 c gray100",
"4 c None",
/* pixels */
"o;34444444444444",
"X=:3444444444444",
"X=-:,44444444444",
"X==*@24444444444",
"X&&&o+3444444444",
"OOOOOOO444444444",
"o144444444444444",
"o=34444444444444",
"X**,444444444444",
"X&&&144444444444",
" ###o,4444444444",
"o,4444>31<131444",
"&=14444;.&**&344",
"X**>4444;.X***,4",
"X&&*34444;XX***3",
" XX#o,4444;o$$%&"
};
