/* XPM */
static const char * const sbase_xpm[] = {
/* width height ncolors chars_per_pixel */
"13 13 22 1",
/* colors */
"  c #89C81B",
". c #BADF79",
"X c #D9EDB5",
"o c #8BC91F",
"O c #99D03A",
"+ c #D1EAA6",
"@ c #B9DE77",
"# c #C7E592",
"$ c #9FD246",
"% c #E6F3CE",
"& c #A3D44D",
"* c #E9F5D4",
"= c #8ECA24",
"- c #F3F9E7",
"; c #F6FBED",
": c #97CE36",
"> c #96CE35",
", c #FCFDF9",
"< c #FFFFFF",
"1 c #AED963",
"2 c #BFE183",
"3 c None",
/* pixels */
"<<<<<<<<<<<<<",
"<<<<<<<<<<<<<",
"<< @<:+<<<<<<",
"<<  < o2,<<<<",
"<<  <   1-<<<",
"<<  <    $%<<",
"<<  <     O<<",
"<<  <     .<<",
"<<  <   =#<<<",
"<<  <  >X<<<<",
"<<  < &*<<<<<",
"<< @<@;<<<<<<",
"<<<<<<<<<<<<<"
};
