/* XPM */
static const char * const sbase_warn_dark_xpm[] = {
/* width height ncolors chars_per_pixel */
"13 13 23 1",
/* colors */
"  c #B64524",
". c #89C81B",
"X c #F1EBDE",
"o c #BA7945",
"O c #B83A22",
"+ c #8BC91F",
"@ c #99D03A",
"# c #D1EAA6",
"$ c #9FD246",
"% c #E6F3CE",
"& c #CEB185",
"* c #BA7B46",
"= c #BA3422",
"- c #C0905C",
"; c #F3F9E7",
": c #97CE36",
"> c #E0D0B3",
", c #FCFDF9",
"< c #1D1E20", /* Background */
"1 c #AED963",
"2 c #B5572B",
"3 c #BFE183",
"4 c None",
/* pixels */
"<<<<<<<<<<<<<",
"<<##<:#<<<<<<",
"<<..<.+3,<<<<",
"<<..<...1;<<<",
"<<..<....$%<<",
"<<..<.....@<<",
"<<==<=====*<<",
"<<==<===O-<<<",
"<<==<== &<<<<",
"<<==<=2><<<<<",
"<<oo<oX<<<<<<",
"<<<<<<<<<<<<<",
"<<<<<<<<<<<<<"
};
