/* XPM */
static const char * const sbase_exp_dark_xpm[] = {
/* width height ncolors chars_per_pixel */
"13 13 19 1",
/* colors */
"  c #BA3F28",
". c #C46D4F",
"X c #B55129",
"o c #BB4D32",
"O c #B54A25",
"+ c #B66736",
"@ c #BA3422",
"# c #DCCAA9",
"$ c #BC834E",
"% c #B64624",
"& c #D39B82",
"* c #E9D0C2",
"= c #1D1E20", /* Background */
"- c #FAF8F3",
"; c #EDE4D2",
": c #BA3623",
"> c #B93622",
", c #C8A372",
"< c None",
/* pixels */
"=============",
"=============",
"==@&=%,======",
"==@@=@>$-====",
"==@@=@@@+;===",
"==@@=@@@@X#==",
"==@@=@@@@@O==",
"==@@=@@@@@ ==",
"==@@=@@@@o===",
"==@@=@@@.====",
"==@@=@:&=====",
"==@&= *======",
"============="
};
