/* XPM */
static const char * const shortcut_xpm[] = {
/* width height ncolors chars_per_pixel */
"13 13 21 1",
/* colors */
"  c #A7A7A7",
". c #999999",
"X c #878787",
"o c #7F7F7F",
"O c #717171",
"+ c #6D6D6D",
"@ c #6B6B6B",
"# c #C6C6C6",
"$ c #B8B8B8",
"% c #AEAEAE",
"& c #A8A8A8",
"* c #8C8C8C",
"= c #7C7C7C",
"- c #FFFFFF",
"; c #FBFBFB",
": c #F3F3F3",
"> c #EFEFEF",
", c #E3E3E3",
"< c #DFDFDF",
"1 c #CFCFCF",
"2 c None",
/* pixels */
"-------------",
"-------------",
"-----=#------",
"-----@+%;----",
"-----@@@.>---",
"-----@@@@X<--",
"-----@@@@@o--",
"-----@@@@@&--",
"-----@@@O$---",
"-----@@=1----",
"-----@*,-----",
"----- :------",
"-------------"
};
