/* XPM */
static const char * const unchecked_dark_xpm[] = {
/* width height num_colors chars_per_pixel */
"13 13 3 1",
/* colors */
"  c #000000",
". c #ff0000",
"# c #1D1E20", /* Background */
/* pixels */
"             ",
" .#########. ",
" ..#######.. ",
" #..#####..# ",
" ##..###..## ",
" ###..#..### ",
" ####...#### ",
" ####...#### ",
" ###..#..### ",
" ##..###..## ",
" #..#####..# ",
" ..#######.. ",
"             "
};
