/* XPM */
static const char * const unlock_xpm[] = {
/* columns rows colors chars-per-pixel */
"16 16 157 2",
/* colors */
"  	c None",
". 	c #A4A4A4",
"+ 	c #A1A1A1",
"@ 	c #9A9A9A",
"# 	c #969696",
"$ 	c #929292",
"% 	c #AEAEAE",
"& 	c #C8C8C8",
"* 	c #CACACA",
"= 	c #BEBEBE",
"- 	c #9B9B9B",
"; 	c #878787",
"> 	c #ADADAD",
", 	c #C7C7C7",
"' 	c #AAAAAA",
") 	c #9F9F9F",
"! 	c #B4B4B4",
"~ 	c #212121",
"{ 	c #939393",
"] 	c #ACACAC",
"^ 	c #868686",
"/ 	c #8F8F8F",
"( 	c #A2A2A2",
"_ 	c #7A7A7A",
": 	c #BCBCBC",
"< 	c #B9B9B9",
"[ 	c #919191",
"} 	c #E1C361",
"| 	c #959390",
"1 	c #8E8E8E",
"2 	c #DCB95A",
"3 	c #DFB855",
"4 	c #DEB551",
"5 	c #DDB14D",
"6 	c #DCAD49",
"7 	c #D7A846",
"8 	c #D59A36",
"9 	c #D69A35",
"0 	c #D89931",
"a 	c #E1C260",
"b 	c #FCF3C9",
"c 	c #FDF3CB",
"d 	c #FEF6D4",
"e 	c #FFF6D7",
"f 	c #FFF4D8",
"g 	c #FFF8E0",
"h 	c #FFF8DF",
"i 	c #FFF5DA",
"j 	c #FAEBBD",
"k 	c #D6932B",
"l 	c #E0BF5C",
"m 	c #FCF3C8",
"n 	c #F9DF75",
"o 	c #FDE689",
"p 	c #FFE795",
"q 	c #FFE59A",
"r 	c #FFEEAA",
"s 	c #FFEDA8",
"t 	c #FFE399",
"u 	c #F9D574",
"v 	c #F3CC59",
"w 	c #F1C84F",
"x 	c #FAE9BB",
"y 	c #D58D24",
"z 	c #DFBB58",
"A 	c #FCF1C7",
"B 	c #F9DC6F",
"C 	c #EDBB56",
"D 	c #EFBD61",
"E 	c #FFE79B",
"F 	c #E2A635",
"G 	c #E1A44B",
"H 	c #FFE290",
"I 	c #E9AD49",
"J 	c #E3A438",
"K 	c #F0C449",
"L 	c #F9E8B8",
"M 	c #D4881E",
"N 	c #DEB753",
"O 	c #FCF0C6",
"P 	c #F8D96A",
"Q 	c #FDE27C",
"R 	c #FFE890",
"S 	c #FFE999",
"T 	c #DF9F32",
"U 	c #B28B54",
"V 	c #FFE28A",
"W 	c #F9D06A",
"X 	c #F1C550",
"Y 	c #F0C146",
"Z 	c #F9E7B6",
"` 	c #D38318",
" .	c #DDB24E",
"..	c #FBEFC3",
"+.	c #F8D665",
"@.	c #ECB64C",
"#.	c #EFBD5A",
"$.	c #FFEB95",
"%.	c #DD9730",
"&.	c #AB824D",
"*.	c #FFE184",
"=.	c #E9A941",
"-.	c #E19F32",
";.	c #EFBE42",
">.	c #F9E5B4",
",.	c #D27E13",
"'.	c #FBEEC1",
").	c #F7D35F",
"!.	c #FCDB6C",
"~.	c #FFE57F",
"{.	c #FFED8F",
"].	c #FFF297",
"^.	c #FFED93",
"/.	c #FFDF7C",
"(.	c #F8CC5B",
"_.	c #EFBE46",
":.	c #EEBA3C",
"<.	c #F9E3B3",
"[.	c #D1790E",
"}.	c #DBA843",
"|.	c #FBECBF",
"1.	c #F5CF59",
"2.	c #ECB041",
"3.	c #EFBA4E",
"4.	c #EFC25A",
"5.	c #EFC660",
"6.	c #EFC45C",
"7.	c #EFB64C",
"8.	c #E6A537",
"9.	c #E19A2A",
"0.	c #EEB838",
"a.	c #F8E3B1",
"b.	c #D07509",
"c.	c #DAA33D",
"d.	c #FAEBBC",
"e.	c #FCEBBC",
"f.	c #FEEEBF",
"g.	c #FFF4C6",
"h.	c #FFF8CE",
"i.	c #FFFAD3",
"j.	c #FFF8D0",
"k.	c #FFF2C7",
"l.	c #FCE9BA",
"m.	c #F9E4B3",
"n.	c #F8E2B0",
"o.	c #CF7105",
"p.	c #D99D36",
"q.	c #D7942C",
"r.	c #D69028",
"s.	c #D58C23",
"t.	c #D3841A",
"u.	c #D28015",
"v.	c #D17C11",
"w.	c #D0760A",
"x.	c #CF7307",
"y.	c #CF7004",
"z.	c #CE6E01",
/* pixels */
"        . + @ @ # $             ",
"      + % & * * = - ;           ",
"    + > , ' $ $ ) ! $ ~         ",
"    {   ] $     ^ / ( _         ",
"    { : $         / { /         ",
"    { < [                       ",
"  } | [ 1 2 3 4 5 6 7 8 8 9 0   ",
"  a b c d e f g h i 8 8 8 j k   ",
"  l m n o p q r s t u v w x y   ",
"  z A B C D E F G H I J K L M   ",
"  N O P Q R S T U V W X Y Z `   ",
"   ...+.@.#.$.%.&.*.=.-.;.>.,.  ",
"  6 '.).!.~.{.].^./.(._.:.<.[.  ",
"  }.|.1.2.3.4.5.6.7.8.9.0.a.b.  ",
"  c.d.e.f.g.h.i.j.k.l.m.n.n.o.  ",
"  p.0 q.r.s.M t.u.v.[.w.x.y.z.  "};
