/* XPM */
static const char *unlocked_tray_xpm[] = {
/* columns rows colors chars-per-pixel */
"32 32 3 1",
/* colors */
" 	c None",
".	c #FF0000",
"+	c #000000",
/* pixels */
".                  ..           ",
"..                ....          ",
"...              ..  ..         ",
"....            ..    ..        ",
".....           ..     ..       ",
"......           ..             ",
".......           ..            ",
"........           ..           ",
".........           ..          ",
"..........          ........    ",
".                   ........    ",
"..                  ...++...    ",
"...                 ...++...    ",
"....                ...++...    ",
".....               ...++...    ",
"......              ...++...    ",
".......             ........    ",
"........                        ",
".........                       ",
"..........                      ",
".....................           ",
".          ...........          ",
"..          ...........         ",
"...          ...........        ",
"....          ...........       ",
".....          ...........      ",
"......          ...........     ",
".......          ...........    ",
"........          ...........   ",
".........          ...........  ",
"..........          ........... ",
"...........          ..........."};
