/* XPM */
static const char * const vkbd_xpm[] = {
/* columns rows colors chars-per-pixel */
"31 16 4 1",
/* colors */
" 	c None",
".	c #0080C0",
"+	c #FFFFFF",
"@	c #000080",
/* pixels */
" ..............................",
".+++++++++++++++++++++++++++++.",
".+.............................",
".+.+ @+ @+ @+ @+ @+ @+ @+ @+ @.",
".+.  @  @  @  @  @  @  @  @  @.",
".+.@@@@@@@@@@@@@@@@@@@@@@@@@@@.",
".+.+++ @+ @+ @+ @+ @+ @+ @+  @.",
".+.    @  @  @  @  @  @  @   @.",
".+.@@@@@@@@@@@@@@@@@@@@@@@@@@@.",
".+.++@+ @+ @+ @+ @+ @+ @++++ @.",
".+.  @  @  @  @  @  @  @     @.",
".+.@@@@@@@@@@@@@@@@@@@@@@@@@@@.",
".+.+++ @+ @++++++++++ @+ @++ @.",
".+.    @  @           @  @   @.",
".+.@@@@@@@@@@@@@@@@@@@@@@@@@@@.",
"..............................."};
