/* XPM */
static const char * const classic_findcase_s_xpm[] = {
/* columns rows colors chars-per-pixel */
"16 16 2 1",
/* colors */
"  c None",
". c #000000",
/* pixels */
"                ",
"   ..           ",
" ......         ",
" ..  ..         ",
" ..  ..         ",
" ..  ..         ",
" ..  ..   ....  ",
" ..  ..  ...... ",
" ......      .. ",
" ......      .. ",
" ..  ..   ..... ",
" ..  ..  ..  .. ",
" ..  ..  ..  .. ",
" ..  ..  ..  .. ",
" ..  ..   ..... ",
"                ",
};