/* XPM */
static const char * const classic_findclose_xpm[] = {
/* columns rows colors chars-per-pixel */
"16 16 2 1 ",
"  c black",
". c #C0C0C0",
/* pixels */
"................",
"................",
"................",
"................",
"..... .... .....",
"...... .. ......",
".......  .......",
".......  .......",
"...... .. ......",
"..... .... .....",
"................",
"................",
"................",
"................",
"................",
"................"
};
