/* XPM */
static const char * const classic_find_xpm[] = {
/* columns rows colors chars-per-pixel */
"16 16 3 1",
/* colors */
"  c None",
". c #000000",
"+ c #ffffff",
/* pixels */
"         .      ",
"        ...     ",
"       ..+..    ",
"      ..+++..   ",
"     ..+++++..  ",
"    ..+++++++.. ",
"    ..++++++++..",
"     ..+++++++..",
"      ..+++++.. ",
"      ...+++..  ",
"     .....+..   ",
"    ...  ...    ",
"   ...    .     ",
"  ...           ",
"   .            ",
"                ",
};