/* XPM */
static const char * const findadvanced_xpm[] = {
/* columns rows colors chars-per-pixel */
"16 16 113 2",
/* colors */
"   c None",
".. c #2a6b26",
".# c #2e6f29",
".a c #30712b",
".b c #32742c",
".c c #33762e",
".d c #357930",
".e c #3e8337",
".f c #448b3d",
".g c #4d9645",
".h c #539e4b",
".i c #5a9b53",
".j c #5ca852",
".k c #5eab54",
".l c #5fad56",
".m c #61b057",
".n c #63b259",
".o c #65a75e",
".p c #67b65c",
".q c #6bac63",
".r c #76b76d",
".s c #82c27d",
".t c #86c57d",
".u c #874828",
".v c #8bc683",
".w c #8bc785",
".x c #90ca88",
".y c #9acf92",
".z c #9ed195",
".A c #9fd297",
".B c #a55c33",
".C c #a55e32",
".D c #a6d59d",
".E c #a86236",
".F c #aa6537",
".G c #ab6437",
".H c #ab643d",
".I c #ab6737",
".J c #ac6839",
".K c #ad6a3b",
".L c #b06f3c",
".M c #b0703e",
".N c #b77d45",
".O c #b87e45",
".P c #b97f46",
".Q c #b98048",
".R c #bb8148",
".S c #bc834f",
".T c #bc8449",
".U c #bc844b",
".V c #bc8451",
".W c #bc854a",
".X c #bc864c",
".Y c #bd864b",
".Z c #bd864c",
".0 c #bd894c",
".1 c #be894c",
".2 c #be894d",
".3 c #be8a4d",
".4 c #be8a4f",
".5 c #c08c4e",
".7 c #c18e4f",
".8 c #c18e58",
".9 c #c18f4f",
"#. c #c28f50",
"## c #c29150",
"#a c #c39150",
"#b c #c39153",
"#c c #c39156",
"#d c #c39251",
"#e c #c49555",
"#f c #c69653",
"#g c #c69655",
"#h c #c69956",
"#i c #c79754",
"#j c #c79757",
"#k c #c79955",
"#l c #c79a57",
"#m c #c89a55",
"#n c #c89b56",
"#o c #c89c57",
"#p c #c99b61",
"#q c #c99c57",
"#r c #c99d57",
"#s c #c99f5b",
"#t c #cca059",
"#u c #cca15a",
"#v c #cca15d",
"#w c #cda45b",
"#x c #cda55e",
"#y c #cda561",
"#z c #cda65e",
"#A c #cea65c",
"#B c #cea65e",
"#C c #cea660",
"#D c #cea662",
"#E c #cea75d",
"#F c #cea75e",
"#G c #cea761",
"#H c #cfa762",
"#I c #cfa861",
"#J c #cfa864",
"#K c #cfe2f3",
"#L c #d6b57f",
"#M c #d7b57d",
"#N c #dabb80",
"#O c #dec48d",
"#P c #dfc58f",
"#Q c #e0c793",
"#R c #e3cc99",
"#S c #e7d3a0",
"#T c #e8d5a3",
"#U c #e9d7a5",
/* pixels */
"                                ",
"    #A#F#G#J#D#v#o#f            ",
"  #E#I#B#u#r#n#m#l#j##          ",
"#A#I#w#K#K#K#K#K#K#a#b.1        ",
"#z#x#K#K#K#K#K#K#K#K.7.0        ",
"#C#t#K#K#K#K#K#K#K#K.Y.2        ",
"#H#q#K#K#K#K#K.p.m.j.R.4        ",
"#y#k#K#K#K#K#K.l.D.h.O.Z        ",
"#s#i#K#K#K.n.k.r.z.q.f.e        ",
"#h#g#K#K#K.j.A.y.t.x.v.d        ",
"#d#e.9#K#K.h.g.o.w.i.c.#.L      ",
"  .5#..3.T.P.N.e.s.b#R#O.S.J    ",
"    .W.W.X.Z.U.d.a..#T#U#N.H.E  ",
"                .M.8#P#S#Q#p.u  ",
"                  .K.V#M#L#c.I  ",
"                    .F.B.Q.G.C  "
};
