/* XPM */
static const char * const findcase_s_xpm[] = {
/* columns rows colors chars-per-pixel */
"16 16 22 1",
/* colors */
"  c None",
". c #040404",
"# c #0a0a0a",
"a c #111111",
"b c #181818",
"c c #202020",
"d c #292929",
"e c #323232",
"f c #3c3c3c",
"g c #404040",
"h c #454545",
"i c #484848",
"j c #4e4e4e",
"k c #505050",
"l c #575757",
"m c #585858",
"n c #5f5f5f",
"o c #656565",
"p c #666666",
"q c #6d6d6d",
"r c #737373",
"s c #777777",
/* pixels */
"                ",
"                ",
"                ",
"                ",
"  ssrqpnl       ",
"  srqon jh      ",
"  r pnl hf      ",
"    nmj fedcb   ",
"    lkh e c a   ",
"    jif   b     ",
"    hge   a     ",
"    fedc a#.    ",
"                ",
"                ",
"                ",
"                "
};
