/* XPM */
static const char * const findreport_xpm[] = {
/* columns rows colors chars-per-pixel */
"16 16 140 2",
/* colors */
"   c None",
".. c #000000",
".# c #030303",
".a c #602512",
".b c #632613",
".c c #6f9bdc",
".d c #719edf",
".e c #729cdc",
".f c #739edf",
".g c #744c1c",
".h c #747474",
".i c #74a0e0",
".j c #764d1f",
".k c #76a0e0",
".l c #76a2e0",
".m c #77a3e1",
".n c #787878",
".o c #78a3e1",
".p c #7aa5e1",
".q c #7e3118",
".r c #97a3b6",
".s c #99a3b2",
".t c #9ab6d9",
".u c #9cbadf",
".v c #9ebde0",
".w c #a0beea",
".x c #a0bfe1",
".y c #a1bfea",
".z c #a2bddb",
".A c #a2c0ea",
".B c #a3c0ea",
".C c #a4c1e4",
".D c #a54b2c",
".E c #a7c4e5",
".F c #a8c2e0",
".G c #a8c4e5",
".H c #a9c5e6",
".I c #aac6e6",
".J c #ab4221",
".K c #abc6e6",
".L c #ac4321",
".M c #acc6da",
".N c #ae4622",
".O c #ae4922",
".P c #af4b23",
".Q c #af5d35",
".R c #b14e23",
".S c #b1b1b1",
".T c #b25124",
".U c #b25225",
".V c #b37963",
".W c #b37c64",
".X c #b3d1f3",
".Y c #b45525",
".Z c #b4cde9",
".0 c #b55626",
".1 c #b57f65",
".2 c #b58248",
".3 c #b58266",
".4 c #b6cde3",
".5 c #b75926",
".6 c #b75b26",
".7 c #b78367",
".8 c #b85e27",
".9 c #b85f27",
"#. c #b8d0eb",
"## c #b98767",
"#a c #b9cade",
"#b c #ba6128",
"#c c #ba8a50",
"#d c #bb8b53",
"#e c #bdd8f3",
"#f c #be7849",
"#g c #bf8f61",
"#i c #c0d1e6",
"#j c #c19263",
"#k c #c1ad98",
"#l c #c1d2e1",
"#m c #c1daf4",
"#n c #c28b64",
"#o c #c29464",
"#p c #c39665",
"#q c #c49966",
"#r c #c4dcf4",
"#s c #c59a67",
"#t c #c5def5",
"#u c #c6ddf4",
"#v c #c6def5",
"#w c #c7d7ea",
"#x c #c7e0f7",
"#y c #c99b69",
"#z c #c9dcf2",
"#A c #c9ddf2",
"#B c #cac6c4",
"#C c #cac7c4",
"#D c #cae0f6",
"#E c #cb9a66",
"#F c #cbe2f8",
"#G c #ccc6c0",
"#H c #cccccc",
"#I c #cce3f8",
"#J c #cdc6c0",
"#K c #cdc7c0",
"#L c #cdc7c1",
"#M c #cde2f8",
"#N c #cee3f8",
"#O c #cfcfcf",
"#P c #d1d1d1",
"#Q c #d2d2d2",
"#R c #d3b89c",
"#S c #d3d3d3",
"#T c #d3e6f8",
"#U c #d4d4d4",
"#V c #d6e4f3",
"#W c #d6e5f5",
"#X c #d8d8d8",
"#Y c #dbe7f5",
"#Z c #dcdcdc",
"#0 c #dceaf8",
"#1 c #deb992",
"#2 c #dfecf8",
"#3 c #e3cdb7",
"#4 c #e8e8e8",
"#5 c #ebeff5",
"#6 c #ececec",
"#7 c #eeeeee",
"#8 c #efede9",
"#9 c #f2f2f2",
"a. c #f3f3f3",
"a# c #f4f4f4",
"aa c #f5f5f5",
"ab c #f6f6f6",
"ac c #f7f7f7",
"ad c #f8f8f7",
"ae c #f8f8f8",
"af c #f9f9f9",
"ag c #fafafa",
"ah c #fbfbfb",
"ai c #fcfcfc",
"aj c #fdfdfd",
/* pixels */
"  #O#n#f#b......................",
"#O  #C#L.9aiaiaiaiaiaiaiaiaiai..",
".n.S###s.8acacacacaaa#a#a##9ah..",
"#O  #C#K.6acacacacacaaaaaaa.ag..",
".n.S.7#q.5aeae.p.o.m.l.k.ia#ag..",
"#O  #B#K.0afaf.o.B.A.y.w.da#ac..",
".n.S.3#p.Yagag.l.k.i.f.e.c#9ab..",
"#O  #B#K.Uahagad#l.M.x.E.4#8#7..",
".n.S.1#o.Tagae.z.Z#Y#2#A#.#a#6..",
"#O  #B#J.Ragaf.I#V#D#v#t#T.F#P.#",
".n.S.W#j.Pafaf.v#0#u#r#e#M.C#4..",
"#O  #B#G.Oagag.G#W#m#e#e#I.tai..",
".n.S.V#g.Nagag#i#z#N#x#F.X.s#3..",
"#O  #B#G.Lajah#5#w.K.H.u.r#R#E.j",
".n.h.D.Q.J#Z#X#U#Q#P#S#P#k#y#1.2",
"    .a.q.b.................g#d#c"
};
