/* XPM */
static const char *classic_addgroup_xpm[] = {
/* columns rows colors chars-per-pixel */
"16 16 4 1",
/* colors */
" 	c None",
".	c #606060",
"X	c #0080ff",
"o	c #fff200",
/* pixels */
"                ",
"                ",
"  ............  ",
"  .XXXXXXXXXX.  ",
"  .XXXXXXXXXX.  ",
"  .XX.........  ",
"  .XX.          ",
"  .XX.   .....  ",
"  .XX.   .XXX.  ",
"  .XX.   .ooo.  ",
"  .XX.....ooo.  ",
"  .XXXXXooooooo ",
"  .XXXXXooooooo ",
"  ......ooooooo ",
"          ooo   ",
"          ooo   "
};
