/* XPM */
static const char *classic_copypassword[] = {
/* columns rows colors chars-per-pixel */
"16 16 3 1",
"  c black",
". c #808000000000",
"X c None",
/* pixels */
"XXXXXXXXXXXXXXXX",
"XX         XXXXX",
"XX ........ XXXX",
"XX ......... XXX",
"XX ..     ... XX",
"XX .. XXXX .. XX",
"XX .. XXXX .. XX",
"XX ..     ... XX",
"XX ......... XXX",
"XX ........ XXXX",
"XX ..      XXXXX",
"XX .. XXXXXXXXXX",
"XX .. XXXXXXXXXX",
"XX .. XXXXXXXXXX",
"XX    XXXXXXXXXX",
"XXXXXXXXXXXXXXXX"
};
