/* XPM */
static char *image_xpm[] = {
/* width height ncolors chars_per_pixel */
"16 16 5 1",
"  c None",
". c #000000",
"+ c #ffffff",
"@ c #737373",
"# c #e5e5e5",
"                ",
"                ",
"          ...   ",
"         .   . .",
"              ..",
"  ...        ...",
" .+#+.......    ",
" .#+#+#+#+#.    ",
" .+#+#+#+#+.    ",
" .#+#+..........",
" .+#+.@@@@@@@@@.",
" .#+.@@@@@@@@@. ",
" .+.@@@@@@@@@.  ",
" ..@@@@@@@@@.   ",
" ...........    ",
"                ",
};