/* XPM */
static const char * const Dnd_xpm[] = {
/* width height num_colors chars_per_pixel */
"16 16 96 2 ",
/* colors */
"`` c #95c43e",
"`. c #96c43e",
"`# c #97c441",
"`a c #97c53f",
"`b c #97c542",
"`c c #98c541",
"`d c #98c847",
"`e c #99c543",
"`f c #99c645",
"`g c #9ac849",
"`h c #9bc846",
"`i c #9cc848",
"`j c #9dc948",
"`k c #9ec84a",
"`l c #a2cb52",
"`m c #a5cc55",
"`n c #d1d1d0",
"`o c #d3d3d3",
"`p c #d4d7de",
"`q c #e7efd7",
"`r c #e8e8b6",
"`s c #e8f2d5",
"`t c #eaf3d8",
"`u c #ebb337",
"`v c #ebb53b",
"`w c #ebb53c",
"`x c #ebb741",
"`y c #ebf3db",
"`z c #ecb438",
"`A c #ecb843",
"`B c #ecba4a",
"`C c #ecebea",
"`D c #edb63a",
"`E c #edba4a",
"`F c #edbc4d",
"`G c #edbd4f",
"`H c #edbd50",
"`I c #edd7a3",
"`J c #eebd4f",
"`K c #eebe51",
"`L c #eef0f4",
"`M c #eff6e0",
"`N c #eff6e1",
"`O c #f0f7e2",
"`P c #f2bf57",
"`Q c #f2c058",
"`R c #f2dca7",
"`S c #f2faed",
"`T c #f3fbef",
"`U c #f5da9b",
"`V c #f5da9c",
"`W c #f5db9c",
"`X c #f5faea",
"`Y c #f6dc9e",
"`Z c #f6dca0",
"`0 c #f6eacd",
"`1 c #f6f6f6",
"`2 c #f6fbed",
"`3 c #f7e0ab",
"`4 c #f7f7f7",
"`5 c #f8f8f7",
"`6 c #f8f8f8",
"`7 c #f8f8f9",
"`8 c #f8f9f9",
".` c #f9f9f8",
".. c #f9f9f9",
".# c #faeed0",
".a c #faf9f8",
".b c #fafaf9",
".c c #fafafa",
".d c #fafbfa",
".e c #fafbfb",
".f c #fbeed1",
".g c #fbf0d4",
".h c #fbf0d5",
".i c #fbf1d9",
".j c #fbfbfb",
".k c #fbfcfb",
".l c #fcfcfc",
".m c #fdf1d4",
".n c #fdfdfd",
".o c #fdfeff",
".p c #fdffff",
".q c #fef2db",
".r c #fefdff",
".s c #fefefc",
".t c #fefefd",
".u c #fefefe",
".v c #fefffe",
".w c #fffefc",
".x c #fffefd",
".y c #fffefe",
".z c #fffeff",
".A c #fffffd",
".B c #fffffe",
".C c None",
/* pixels */
".C.u.B.C.C`Z`Z.C.C.B.C.C.C.C.C.C",
".n.C.y.o`Y`w`v`W.C.B.C.C.C.C.C.C",
"`o`C`p`I`D`B`E`u`3.C.w.C.C.C.C.C",
"`6`n`L.m`H`A`A`J.#.C.s.t.t.t.C.C",
".l.l.C.C.h`F`F.g.C.x.C.C.C.C.C.C",
".l.l.C.s.C.i.i.C.s.C`O`t`t`N.C.C",
".j.j.C.C.B.C.C.A.C`X`l`a`c`i`M.C",
"`7`1.c.j`8.a.a`5.r`q`j`b`f`.`s.C",
".c...n.n.l.n.n.k.C`y`h`#`e```s.C",
".d.j.C.C.C.C.C.B.C`2`m`d`g`k`N.C",
".l.l.C.C.C.C.C.C.v.z`T`r`r`S.x.C",
".j.l.C.C.C.C.C.C.B.C.q`Q`P.q.C.x",
"..`4.l.l.c.j.j.b.o`0`K`x`x`G.f.C",
".e.`.j.l.c.j.j.a.p`R`z`E`E`u`3.C",
".C.C.C.C.C.C.C.C.C.C`V`w`v`U.C.B",
".C.C.C.C.C.C.C.C.B.C.C`W`V.C.C.B"
};
