/* XPM */
static const char * const DndX_xpm[] = {
/* width height num_colors chars_per_pixel */
"16 16 48 2 ",
/* colors */
"`` c #a5a5a5",
"`. c #a6a6a6",
"`# c #a7a7a7",
"`a c #a8a8a8",
"`b c #aaaaaa",
"`c c #ababab",
"`d c #acacac",
"`e c #b0b0b0",
"`f c #b1b1b1",
"`g c #b4b4b4",
"`h c #b5b5b5",
"`i c #b6b6b6",
"`j c #b7b7b7",
"`k c #b8b8b8",
"`l c #b9b9b9",
"`m c #bbbbbb",
"`n c #bcbcbc",
"`o c #bdbdbd",
"`p c #bebebe",
"`q c #c1c1c1",
"`r c #cfcfcf",
"`s c #d1d1d1",
"`t c #d5d5d5",
"`u c #d6d6d6",
"`v c #d9d9d9",
"`w c #dadada",
"`x c #dbdbdb",
"`y c #dfdfdf",
"`z c #e0e0e0",
"`A c #e8e8e8",
"`B c #e9e9e9",
"`C c #ebebeb",
"`D c #ececec",
"`E c #ededed",
"`F c #eeeeee",
"`G c #efefef",
"`H c #f0f0f0",
"`I c #f1f1f1",
"`J c #f4f4f4",
"`K c #f5f5f5",
"`L c #f6f6f6",
"`M c #f7f7f7",
"`N c #f8f8f8",
"`O c #f9f9f9",
"`P c #fafafa",
"`Q c #fbfbfb",
"`R c #fcfcfc",
"`S c None",
/* pixels */
"`S`R`R`S`S`x`x`S`S`R`S`S`S`S`S`S",
"`Q`S`R`Q`x`i`i`w`S`R`S`S`S`S`S`S",
"`s`B`t`u`j`m`m`g`y`S`R`S`S`S`S`S",
"`L`r`E`G`o`l`l`p`D`S`Q`Q`Q`Q`S`S",
"`P`P`S`S`F`n`n`F`S`R`S`S`S`S`S`S",
"`P`P`S`Q`S`G`G`S`Q`S`H`C`C`G`S`S",
"`O`O`S`S`R`S`S`R`S`J`e`#`#`c`G`S",
"`L`J`N`O`L`M`M`K`Q`A`d`#`a`.`B`S",
"`N`M`Q`Q`P`Q`Q`O`S`D`b`.`a```B`S",
"`N`O`S`S`S`S`S`R`S`L`f`b`b`d`G`S",
"`P`P`S`S`S`S`S`S`R`R`K`z`z`J`R`S",
"`O`P`S`S`S`S`S`S`R`S`I`q`q`I`S`R",
"`M`K`P`P`N`O`O`M`Q`A`p`k`k`o`D`S",
"`N`L`O`P`N`O`O`M`R`x`h`m`m`g`y`S",
"`S`S`S`S`S`S`S`S`S`S`v`i`i`v`S`R",
"`S`S`S`S`S`S`S`S`R`S`S`w`v`S`S`R"
};
