/* XPM */
static const char *Email_xpm[] = {
/* columns rows colors chars-per-pixel */
"16 16 147 2",
/* colors */
"   c None",
".  c #31315D5DA3A3",
"X  c #31316363B0B0",
"o  c #3C3C6F6FBEBE",
"O  c #38387070BBBB",
"+  c #3C3C7777BEBE",
"@  c #42427676ABAB",
"#  c #43437777ABAB",
"$  c #40407474ACAC",
"%  c #48487979B2B2",
"&  c #46467676C2C2",
"*  c #40407B7BC1C1",
"=  c #42427E7EC2C2",
"-  c #50507D7DC5C5",
";  c #49498383BDBD",
":  c #45458080C2C2",
">  c #47478282C3C3",
",  c #4D4D8383C1C1",
"<  c #49498686C3C3",
"1  c #4A4A8686C3C3",
"2  c #4B4B8787C3C3",
"3  c #4C4C8787C3C3",
"4  c #4D4D8282C4C4",
"5  c #50508484C5C5",
"6  c #53538686C6C6",
"7  c #50508B8BC7C7",
"8  c #56568888C7C7",
"9  c #5B5B8686C9C9",
"0  c #50508C8CC8C8",
"q  c #50508D8DC8C8",
"w  c #50508C8CC9C9",
"e  c #58588A8AC8C8",
"r  c #5B5B8B8BC9C9",
"t  c #5D5D8C8CCACA",
"y  c #60608E8ECBCB",
"u  c #62628E8ECCCC",
"i  c #64648F8FCCCC",
"p  c #66668E8ECCCC",
"a  c #7C7C9A9AC8C8",
"s  c #70709696D0D0",
"d  c #70709797D0D0",
"f  c #7B7B9D9DD3D3",
"g  c #8484A4A4D5D5",
"h  c #8787A8A8DCDC",
"j  c #8989AAAADCDC",
"k  c #9191ABABD7D7",
"l  c #8585AAAAE2E2",
"z  c #8A8AAEAEE2E2",
"x  c #8D8DB0B0E3E3",
"c  c #9696B4B4E3E3",
"v  c #9696B5B5E3E3",
"b  c #9797B6B6E3E3",
"n  c #9898B6B6E3E3",
"m  c #9C9CBFBFEDED",
"M  c #9595BCBCF0F0",
"N  c #A0A0BFBFE9E9",
"B  c #A2A2BFBFE9E9",
"V  c #9E9EC1C1F0F0",
"C  c #A4A4C3C3ECEC",
"Z  c #A7A7C5C5ECEC",
"A  c #A9A9C5C5EAEA",
"S  c #ABABC6C6EDED",
"D  c #B0B0CACAEBEB",
"F  c #B3B3CBCBEAEA",
"G  c #B3B3CACAEBEB",
"H  c #B9B9CFCFECEC",
"J  c #BCBCD0D0ECEC",
"K  c #B1B1CDCDF1F1",
"L  c #B2B2CCCCF1F1",
"P  c #BDBDD3D3F4F4",
"I  c #BDBDD5D5F4F4",
"U  c #B7B7D7D7FCFC",
"Y  c #2B2B51518E8E",
"T  c #CCCCD9D9EAEA",
"R  c #C9C9DEDEF7F7",
"E  c #C2C2DADAF8F8",
"W  c #C4C4DBDBF8F8",
"Q  c #C0C0DBDBFCFC",
"!  c #C6C6DFDFFCFC",
"~  c #CDCDE0E0F8F8",
"^  c #D9D9E4E4F1F1",
"/  c #DDDDE7E7F7F7",
"(  c #DEDEE8E8F7F7",
")  c #D0D0E1E1F8F8",
"_  c #D0D0E1E1F9F9",
"`  c #D2D2E3E3F9F9",
"'  c #D6D6E4E4F9F9",
"]  c #D3D3E5E5FDFD",
"[  c #D4D4E6E6FDFD",
"{  c #D6D6E7E7FDFD",
"}  c #D7D7E8E8FDFD",
"|  c #DCDCE8E8F9F9",
" . c #DEDEE9E9F9F9",
".. c #D8D8E8E8FDFD",
"X. c #D8D8E9E9FDFD",
"o. c #DADAE9E9FDFD",
"O. c #DBDBEAEAFDFD",
"+. c #DBDBEBEBFEFE",
"@. c #DCDCEAEAFDFD",
"#. c #DDDDEAEAFEFE",
"$. c #DCDCEBEBFEFE",
"%. c #DEDEEBEBFEFE",
"&. c #DFDFEBEBFEFE",
"*. c #DEDEECECFDFD",
"=. c #DFDFECECFEFE",
"-. c #E3E3EBEBF3F3",
";. c #E4E4ECECF5F5",
":. c #E0E0EAEAF9F9",
">. c #E3E3ECECF9F9",
",. c #E5E5EDEDF9F9",
"<. c #E6E6EEEEF9F9",
"1. c #E1E1EDEDFDFD",
"2. c #E4E4EFEFFEFE",
"3. c #EAEAEFEFF8F8",
"4. c #ECECF1F1F7F7",
"5. c #E7E7F1F1FEFE",
"6. c #ECECF2F2F8F8",
"7. c #EDEDF3F3F8F8",
"8. c #EEEEF3F3F8F8",
"9. c #ECECF4F4F8F8",
"0. c #EAEAF3F3FEFE",
"q. c #EDEDF4F4FEFE",
"w. c #EEEEF5F5FEFE",
"e. c #F0F0F5F5FBFB",
"r. c #F1F1F7F7FBFB",
"t. c #F2F2F6F6FBFB",
"y. c #F3F3F6F6FBFB",
"u. c #F3F3F7F7FBFB",
"i. c #F1F1F5F5FCFC",
"p. c #F1F1F7F7FEFE",
"a. c #F4F4F8F8FBFB",
"s. c #F5F5F9F9FCFC",
"d. c #F6F6F9F9FCFC",
"f. c #F7F7F9F9FCFC",
"g. c #F7F7FAFAFCFC",
"h. c #F5F5F9F9FFFF",
"j. c #F6F6FAFAFFFF",
"k. c #F7F7FAFAFFFF",
"l. c #F8F8FAFAFDFD",
"z. c #F8F8FBFBFDFD",
"x. c #F9F9FBFBFDFD",
"c. c #F9F9FBFBFFFF",
"v. c #F9F9FCFCFFFF",
"b. c #FAFAFCFCFFFF",
"n. c #FBFBFCFCFFFF",
"m. c #FBFBFDFDFFFF",
"M. c #FCFCFDFDFFFF",
/* pixels */
"                                ",
"                                ",
"a g d i u y t r e 8 6 5 4 , %YY ",
"k l.i.v.v.v.v.v.v.v.M.M.M.y.3.# ",
"f t.c | q.o.@.*.1.2.5.j.:.l ^ 0 ",
"d l.K c  .i.1.2.0.0.j.>.z M 7.0 ",
"i l.{ L b  .j.0.q.l.,.x V U 7.0 ",
"9 l...{ S j >.v.v.,.h m Q Q 7.0 ",
"- g.o.) D Z c / ( n C A E ! 4.q ",
"& j.` H ) } I B B P [ R D W 4.0 ",
"o a.J [ 1.@.@.*.@.@.@...~ F -.q ",
". 8.;.t.t.a.a.j.j.a.l.j.g.4.T # ",
"Y X O + * = = > 1 1 1 1 3 ; # Y ",
"                                ",
"                                ",
"                                "
};
