/* XPM */
static const char * const EmailX_xpm[] = {
/* columns rows colors chars-per-pixel */
"16 16 92 1",
/* colors */
" 	c None",
".	c #959595",
"X	c #9f9f9f",
"o	c Gray57",
"O	c #888888",
"+	c Gray53",
"@	c #868686",
"#	c #848484",
"$	c Gray51",
"%	c #818181",
"&	c Gray50",
"*	c Gray49",
"=	c Gray48",
"-	c Gray47",
";	c #797979",
":	c Gray44",
">	c #4b4b4b",
",	c #a7a7a7",
"<	c #f9f9f9",
"1	c #f4f4f4",
"2	c #fbfbfb",
"3	c Gray99",
"4	c Gray96",
"5	c #eeeeee",
"6	c #6c6c6c",
"7	c #989898",
"8	c #afafaf",
"9	c #e6e6e6",
"0	c #f3f3f3",
"q	c #e7e7e7",
"w	c #e9e9e9",
"e	c Gray92",
"r	c Gray93",
"t	c #efefef",
"y	c Gray91",
"u	c #a4a4a4",
"i	c #e2e2e2",
"p	c #808080",
"a	c #909090",
"s	c Gray98",
"d	c #c8c8c8",
"f	c Gray69",
"g	c #f1f1f1",
"h	c #eaeaea",
"j	c Gray66",
"k	c Gray71",
"l	c Gray95",
"z	c Gray78",
"x	c #f8f8f8",
"c	c #aaaaaa",
"v	c #bbbbbb",
"b	c Gray82",
"n	c Gray90",
"m	c #c1c1c1",
"M	c #a5a5a5",
"N	c #ececec",
"B	c Gray64",
"V	c #b9b9b9",
"C	c Gray84",
"Z	c #767676",
"A	c Gray87",
"S	c #c6c6c6",
"D	c Gray75",
"F	c #b1b1b1",
"G	c Gray74",
"H	c #d5d5d5",
"J	c #dadada",
"K	c #6f6f6f",
"L	c Gray88",
"P	c #cbcbcb",
"I	c #e4e4e4",
"U	c #d0d0d0",
"Y	c Gray73",
"T	c Gray81",
"R	c #c5c5c5",
"E	c #d7d7d7",
"W	c Gray94",
"Q	c #676767",
"!	c Gray80",
"~	c #e1e1e1",
"^	c gainsboro",
"/	c #565656",
"(	c #f6f6f6",
")	c Gray97",
"_	c Gray42",
"`	c #5b5b5b",
"'	c Gray40",
"]	c #727272",
"[	c #747474",
"{	c #7b7b7b",
"}	c #777777",
"|	c #6a6a6a",
/* pixels */
"                ",
"                ",
".XoO+@#$%&*=-;:>",
",<12222222333456",
"748909qwert<yuip",
"asdfq4ertg<hjklp",
"Osizfyxglsecvbgp",
"&snimMhs2NBVCCgp",
"ZsnASDFn9FG HJgp",
"KsLPAIUVYTiJREWp",
"Qx!~wwwyyyqn^Sw&",
"/lh14()xxxx<<WC_",
">`'6:][Z;={{{}|>",
"                ",
"                ",
"                "};
