/* XPM */
static const char *Group[] = {
/* columns rows colors chars-per-pixel */
"16 16 149 2",
"   c #4E4E37372222",
".  c #5F5F3B3B2424",
"X  c #2E2E65652B2B",
"o  c #2D2D7E7E2727",
"O  c #303073732626",
"+  c #353575752C2C",
"@  c #393969693535",
"#  c #6F6F4A4A1C1C",
"$  c #7C7C54541A1A",
"%  c #666641412525",
"&  c #696957572D2D",
"*  c #2C2C55557474",
"=  c #52524A4A5656",
"-  c #969654540F0F",
";  c #9D9D5F5F1515",
":  c #949457572323",
">  c #8F8F57573232",
",  c #99996B6B2323",
"<  c #9F9F6F6F2222",
"1  c #82825E5E4040",
"2  c #90905B5B4141",
"3  c #92925D5D4141",
"4  c #92925D5D4343",
"5  c #959561614242",
"6  c #969660604343",
"7  c #959561614444",
"8  c #989867674444",
"9  c #9A9A69695050",
"0  c #A7A77A7A4141",
"q  c #A5A573735555",
"w  c #939374746464",
"e  c #929277776B6B",
"r  c #949479796D6D",
"t  c #3E3E84843B3B",
"y  c #5A5A8F8F5A5A",
"u  c #6464A3A35656",
"i  c #6767A7A75959",
"p  c #6464A4A45C5C",
"a  c #6868A8A85959",
"s  c #616196966060",
"d  c #7F7F8C8C7575",
"f  c #7474B4B46B6B",
"g  c #7070B0B06D6D",
"h  c #7979C9C96A6A",
"j  c #7B7BCBCB6A6A",
"k  c #BFBF83833131",
"l  c #E5E5A6A61919",
"z  c #E4E4A5A51B1B",
"x  c #E5E5A7A71D1D",
"c  c #D4D497972323",
"v  c #D3D397972525",
"b  c #D2D284843434",
"n  c #DFDF91913F3F",
"m  c #DEDEA0A02121",
"M  c #DFDFA3A32121",
"N  c #E5E5AEAE3434",
"B  c #E6E6ADAD3B3B",
"V  c #FBFBF9F92828",
"C  c #898983835454",
"Z  c #B6B682825252",
"A  c #9E9E8F8F6F6F",
"S  c #898994947D7D",
"D  c #AEAE80806363",
"F  c #ACAC85857171",
"G  c #DEDE96964E4E",
"H  c #DEDE9F9F5959",
"J  c #E6E69B9B4C4C",
"K  c #C4C498986C6C",
"L  c #D9D9A3A36767",
"P  c #D6D6A4A47272",
"I  c #D6D6A6A67C7C",
"U  c #E6E6B8B86565",
"Y  c #E7E7ADAD7373",
"T  c #E7E7B2B27D7D",
"R  c #8383CBCB7070",
"E  c #8888CDCD7272",
"W  c #8E8ECDCD7171",
"Q  c #8989CDCD7575",
"!  c #8F8FCECE7676",
"~  c #8E8ECECE7777",
"^  c #8F8FCECE7878",
"/  c #9191CECE7676",
"(  c #9797CECE7777",
")  c #9494CFCF7979",
"_  c #9F9FD0D07C7C",
"`  c #020233339191",
"'  c #0B0B3F3F9999",
"]  c #01013B3BA8A8",
"[  c #09093939A8A8",
"{  c #252543438585",
"}  c #21214A4A9898",
"|  c #23234848A9A9",
" . c #37375555A4A4",
".. c #757566668080",
"X. c #7E7E73738787",
"o. c #55556F6FB4B4",
"O. c #34347070CBCB",
"+. c #3F3F7A7ACDCD",
"@. c #52527373CDCD",
"#. c #59597E7EC8C8",
"$. c #41417C7CD1D1",
"%. c #41417E7ED2D2",
"&. c #41417E7ED3D3",
"*. c #5B5B7D7DD6D6",
"=. c #75759292A0A0",
"-. c #7D7D9E9EA7A7",
";. c #57578888DEDE",
":. c #4D4D9393FDFD",
">. c #4D4D9797FFFF",
",. c #75759494E4E4",
"<. c #5555A0A0FDFD",
"1. c #5757A7A7FFFF",
"2. c #5B5BA7A7FEFE",
"3. c #5656B4B4FFFF",
"4. c #5F5FB0B0FEFE",
"5. c #5E5EB0B0FFFF",
"6. c #5D5DB2B2FFFF",
"7. c #5C5CB4B4FFFF",
"8. c #5F5FB8B8FFFF",
"9. c #7373AFAFE7E7",
"0. c #6161B7B7FFFF",
"q. c #6666BABAFFFF",
"w. c #5E5EC0C0FFFF",
"e. c #6565CACAFFFF",
"r. c #939399998484",
"t. c #8585BFBF8282",
"y. c #A2A29F9FB3B3",
"u. c #8686AAAAADAD",
"i. c #CCCCACAC9393",
"p. c #E3E3B1B18181",
"a. c #DBDBBFBFA7A7",
"s. c #ABABD8D89D9D",
"d. c #B1B1D5D5A4A4",
"f. c #F6F6C8C88D8D",
"g. c #E7E7C0C09292",
"h. c #F1F1C5C59696",
"j. c #F3F3C6C69696",
"k. c #FBFBD0D0A1A1",
"l. c #F2F2D1D1ACAC",
"z. c #FDFDD7D7AEAE",
"x. c #E4E4CFCFB6B6",
"c. c #E7E7D0D0B8B8",
"v. c #F5F5D4D4B0B0",
"b. c #9C9CCACAF7F7",
"n. c #9292C5C5FFFF",
"m. c #8484D6D6FFFF",
"M. c #B2B2D7D7FDFD",
"N. c None",
"B. c #C0C0E8E8FFFF",
/* pixels */
"N.N.N.N.N.N.V N.$ v z c <   N.N.",
"N.N.N.N.N.N.V # M l l l l < N.N.",
"N.N.N.N.N.V N.; N U f.B z v N.N.",
"N.N.N.N.N.V N.- c.h.k.j.x.b N.N.",
"N.N.N.N.V N.N.= P l.z.l.g.> N.N.",
"N.N.N.% 5 3 7 & r Y p.T F O + N.",
"N.V . 7 2 2 2 2 A r.S d d.t.t o ",
"N.V > 9 D I q 3 8 _ ( E E s.g X ",
"V N.: a.j.k.j.x.0 ^ Q R j j s G ",
"N.d.= P l.z.l.g.C ) ~ ! / f y J ",
"N.N.` r Y T T K * p a a u t ..H ",
"N.[ @.B.u.-.=.b.,.[ ' N.N.N.N.V ",
"| o.M.m.e.8.3.1.n.*.{ N.N.N.N.V ",
"b i.9.6.0.<.<.>.:.y.G N.N.N.V N.",
"n F #.q.3.3.6.7.;.X.J N.N.N.V N.",
"L q  .O.;.$.$.+.| w H N.N.V N.N."
};
