/* XPM */
static const char * const Notes_xpm[] = {
/* columns rows colors chars-per-pixel */
"16 16 124 2",
/* colors */
"  	c None",
". 	c #fbf928",
"X 	c #fedfb6",
"o 	c #fad2a2",
"O 	c #f9d19c",
"+ 	c #f8cd97",
"@ 	c #f7ca92",
"# 	c #f6c68c",
"$ 	c #f5c285",
"% 	c #f4bf7e",
"& 	c #f4ba76",
"* 	c #f1b66e",
"= 	c #f0b265",
"- 	c #f0ad5d",
"; 	c #fddcb2",
": 	c #fffefa",
"> 	c #fefdfa",
", 	c #fffdfa",
"< 	c #eea853",
"1 	c #f6cc97",
"2 	c #fffdf9",
"3 	c #fefbf0",
"4 	c #fefcf0",
"5 	c #fdfbee",
"6 	c #fdfbef",
"7 	c #fdfbf0",
"8 	c #fefdf7",
"9 	c #eda34a",
"0 	c #f5c893",
"q 	c #fdf7e1",
"w 	c #f9eaaa",
"e 	c #f9e8a3",
"r 	c #f8e79d",
"t 	c #f8e596",
"y 	c #f7e390",
"u 	c #f7e188",
"i 	c #f6df80",
"p 	c #f5dd77",
"a 	c #fbf1c8",
"s 	c #eb9e40",
"d 	c #f4c58c",
"f 	c #fdf7dd",
"g 	c #f8e8a2",
"h 	c #f8e595",
"j 	c #f7e38f",
"k 	c #f7e187",
"l 	c #f6df7f",
"z 	c #f4db6d",
"x 	c #fbf0c4",
"c 	c #ea9837",
"v 	c #f0b979",
"b 	c #fcf6db",
"n 	c #f8e79c",
"m 	c #f7e186",
"M 	c #f5df7e",
"N 	c #f5dd76",
"B 	c #f4d964",
"V 	c #fbf0c0",
"C 	c #e9942c",
"Z 	c #eeb671",
"A 	c #f4d19e",
"S 	c #f0ca78",
"D 	c #f0c772",
"F 	c #f0c66e",
"G 	c #edbe60",
"H 	c #f4db6c",
"J 	c #f3d65b",
"K 	c #fbefbe",
"L 	c #e88f23",
"P 	c #ebad5e",
"I 	c #f0c383",
"U 	c #fcf3d3",
"Y 	c #fcf3d1",
"T 	c #faedb2",
"R 	c #edbc5b",
"E 	c #f4da6c",
"W 	c #f4d962",
"Q 	c #f3d65a",
"! 	c #f3d451",
"~ 	c #fbeeba",
"^ 	c #e58a1a",
"/ 	c #ecac5d",
"( 	c #ebad55",
") 	c #ebaf47",
"_ 	c #f9e9ac",
"` 	c #faeaad",
"' 	c #ebbb56",
"] 	c #f3d450",
"[ 	c #f3d249",
"{ 	c #f9edb7",
"} 	c #e48511",
"| 	c #ebab5d",
" .	c #f8e3b4",
"..	c #e69f32",
"X.	c #e9ab3b",
"o.	c #f8e9a8",
"O.	c #ebba4e",
"+.	c #f2d248",
"@.	c #f2d142",
"#.	c #f9edb4",
"$.	c #e38108",
"%.	c #eba755",
"&.	c #f9e6b6",
"*.	c #f1d195",
"=.	c #e8a74b",
"-.	c #ebaf5a",
";.	c #eec27d",
":.	c #fbeebb",
">.	c #f9eeba",
",.	c #f9edb3",
"<.	c #f9edb2",
"1.	c #e27d01",
"2.	c #eaa34d",
"3.	c #e89e46",
"4.	c #e79a3e",
"5.	c #e69535",
"6.	c #e28c1e",
"7.	c #e28c20",
"8.	c #e48d21",
"9.	c #e38919",
"0.	c #e38312",
"q.	c #e1810a",
"w.	c #e07d03",
"e.	c #df7900",
/* pixels */
"                                ",
"                                ",
"  . X o O + @ # $ % & * = -     ",
".   ; : : : : : > , : : , <     ",
"    1 2 3 3 4 5 6 6 7 7 8 9     ",
"    0 q w e r t y u i p a s     ",
"    d f g r h j k l p z x c     ",
"    v b n h j m M N z B V C     ",
"    Z A S D F G N H B J K L     ",
"    P I U Y T R E W Q ! ~ ^     ",
"    / ( ) _ ` ' W Q ] [ { }     ",
"    |  ...X.o.O.Q ] +.@.#.$.    ",
"    %.&.*.=.-.;.:.>.{ ,.<.1.    ",
"    2.3.4.5.6.7.8.9.0.q.w.e.    ",
"  .                       .     ",
".                       .       "};
