/* XPM */
static const char * const NotesX_xpm[] = {
/* columns rows colors chars-per-pixel */
"16 16 76 1",
/* colors */
" 	c None",
".	c #eaeaea",
"X	c Gray89",
"o	c #d7d7d7",
"O	c Gray84",
"+	c #d2d2d2",
"@	c #d0d0d0",
"#	c Gray80",
"$	c #c8c8c8",
"%	c #c6c6c6",
"&	c #c1c1c1",
"*	c Gray74",
"=	c Gray73",
"-	c Gray71",
";	c Gray88",
":	c #fefefe",
">	c #fdfdfd",
",	c #b1b1b1",
"<	c Gray82",
"1	c #fbfbfb",
"2	c Gray99",
"3	c Gray98",
"4	c #acacac",
"5	c #cecece",
"6	c Gray97",
"7	c #e9e9e9",
"8	c #e7e7e7",
"9	c Gray90",
"0	c #e1e1e1",
"q	c #dfdfdf",
"w	c #dddddd",
"e	c Gray86",
"r	c Gray94",
"t	c Gray66",
"y	c #cbcbcb",
"u	c #f6f6f6",
"i	c #e6e6e6",
"p	c #d8d8d8",
"a	c #efefef",
"s	c #a2a2a2",
"d	c Gray96",
"f	c #9f9f9f",
"g	c #d5d5d5",
"h	c #cacaca",
"j	c Gray79",
"k	c #d3d3d3",
"l	c #eeeeee",
"z	c #9a9a9a",
"x	c #b4b4b4",
"c	c #f3f3f3",
"v	c Gray95",
"b	c #ececec",
"n	c Gray75",
"m	c Gray93",
"M	c #959595",
"N	c Gray91",
"B	c #bebebe",
"V	c Gray81",
"C	c Gray57",
"Z	c Gray70",
"A	c #e4e4e4",
"S	c Gray65",
"D	c Gray69",
"F	c Gray92",
"G	c #8d8d8d",
"H	c #aeaeae",
"J	c #b6b6b6",
"K	c Gray54",
"L	c #a7a7a7",
"P	c #a4a4a4",
"I	c Gray59",
"U	c #989898",
"Y	c Gray58",
"T	c Gray56",
"R	c #898989",
"E	c #868686",
/* pixels */
"                ",
"                ",
" .XoO+@#$%&*=-  ",
". ;:::::>>::>,  ",
"  <>11231111>4  ",
"  56789X0qwert  ",
"  yui9X0qwepas  ",
"   d9X0qwepOaf  ",
"  *g#hj&epOklz  ",
"  x$cvbnpOk<mM  ",
"  xxxN7BOk<VbC  ",
"  ZASD8*k<V5FG  ",
"  D8kHJ%mmbFFK  ",
"  4LPfIIUYTGRE  ",
" .           .  ",
".           .   "};
