/* XPM */
static const char *Notes_xpm[] = {
/* columns rows colors chars-per-pixel */
"16 16 124 2",
/* colors */
"   c None",
".  c #E2E27D7D0101",
"X  c #E0E07D7D0303",
"o  c #E3E381810808",
"O  c #E1E181810A0A",
"+  c #E3E383831212",
"@  c #E4E485851111",
"#  c #E3E389891919",
"$  c #E5E58A8A1A1A",
"%  c #E2E28C8C1E1E",
"&  c #E2E28C8C2020",
"*  c #E4E48D8D2121",
"=  c #E8E88F8F2323",
"-  c #E9E994942C2C",
";  c #E6E695953535",
":  c #E6E69F9F3232",
">  c #EAEA98983737",
",  c #E7E79A9A3E3E",
"<  c #E9E9ABAB3B3B",
"1  c #FBFBF9F92828",
"2  c #EBEB9E9E4040",
"3  c #E8E89E9E4646",
"4  c #EBEBAFAF4747",
"5  c #EDEDA3A34A4A",
"6  c #E8E8A7A74B4B",
"7  c #EAEAA3A34D4D",
"8  c #EBEBBABA4E4E",
"9  c #EBEBA7A75555",
"0  c #EEEEA8A85353",
"q  c #EBEBADAD5555",
"w  c #EBEBAFAF5A5A",
"e  c #EBEBABAB5D5D",
"r  c #EBEBADAD5E5E",
"t  c #ECECACAC5D5D",
"y  c #F0F0ADAD5D5D",
"u  c #EBEBBBBB5656",
"i  c #EDEDBCBC5B5B",
"p  c #EDEDBEBE6060",
"a  c #F0F0B2B26565",
"s  c #F1F1B6B66E6E",
"d  c #EEEEB6B67171",
"f  c #F4F4BABA7676",
"g  c #F0F0B9B97979",
"h  c #F4F4BFBF7E7E",
"j  c #F2F2D1D14242",
"k  c #F2F2D2D24848",
"l  c #F3F3D2D24949",
"z  c #F3F3D4D45050",
"x  c #F3F3D4D45151",
"c  c #F3F3D6D65A5A",
"v  c #F3F3D6D65B5B",
"b  c #F0F0C6C66E6E",
"n  c #F4F4D9D96262",
"m  c #F4F4D9D96464",
"M  c #F4F4DADA6C6C",
"N  c #F4F4DBDB6C6C",
"B  c #F4F4DBDB6D6D",
"V  c #EEEEC2C27D7D",
"C  c #F0F0C7C77272",
"Z  c #F0F0CACA7878",
"A  c #F5F5DDDD7676",
"S  c #F5F5DDDD7777",
"D  c #F5F5DFDF7E7E",
"F  c #F6F6DFDF7F7F",
"G  c #F0F0C3C38383",
"H  c #F5F5C2C28585",
"J  c #F4F4C5C58C8C",
"K  c #F6F6C6C68C8C",
"L  c #F6F6DFDF8080",
"P  c #F5F5C8C89393",
"I  c #F7F7CACA9292",
"U  c #F6F6CCCC9797",
"Y  c #F8F8CDCD9797",
"T  c #F1F1D1D19595",
"R  c #F4F4D1D19E9E",
"E  c #F9F9D1D19C9C",
"W  c #F7F7E1E18686",
"Q  c #F7F7E1E18787",
"!  c #F7F7E1E18888",
"~  c #F7F7E3E38F8F",
"^  c #F7F7E3E39090",
"/  c #F8F8E5E59595",
"(  c #F8F8E5E59696",
")  c #F8F8E7E79C9C",
"_  c #F8F8E7E79D9D",
"`  c #FAFAD2D2A2A2",
"'  c #FDFDDCDCB2B2",
"]  c #FEFEDFDFB6B6",
"[  c #F8F8E8E8A2A2",
"{  c #F9F9E8E8A3A3",
"}  c #F8F8E9E9A8A8",
"|  c #F9F9EAEAAAAA",
" . c #F9F9E9E9ACAC",
".. c #FAFAEAEAADAD",
"X. c #F8F8E3E3B4B4",
"o. c #F9F9E6E6B6B6",
"O. c #F9F9EDEDB2B2",
"+. c #F9F9EDEDB3B3",
"@. c #FAFAEDEDB2B2",
"#. c #F9F9EDEDB4B4",
"$. c #F9F9EDEDB7B7",
"%. c #F9F9EEEEBABA",
"&. c #FBFBEEEEBABA",
"*. c #FBFBEEEEBBBB",
"=. c #FBFBEFEFBEBE",
"-. c #DFDF79790000",
";. c #FBFBF0F0C0C0",
":. c #FBFBF0F0C4C4",
">. c #FBFBF1F1C8C8",
",. c #FCFCF3F3D1D1",
"<. c #FCFCF3F3D3D3",
"1. c #FCFCF6F6DBDB",
"2. c #FDFDF7F7DDDD",
"3. c #FDFDF7F7E1E1",
"4. c #FDFDFBFBEEEE",
"5. c #FDFDFBFBEFEF",
"6. c #FDFDFBFBF0F0",
"7. c #FEFEFBFBF0F0",
"8. c #FEFEFCFCF0F0",
"9. c #FEFEFDFDF7F7",
"0. c #FFFFFDFDF9F9",
"q. c #FEFEFDFDFAFA",
"w. c #FFFFFDFDFAFA",
"e. c #FFFFFEFEFAFA",
/* pixels */
"                                ",
"                                ",
"  1 ] ` E Y I J H h f s a y     ",
"1   ' e.e.e.e.e.e.e.e.e.e.0     ",
"    U e.5.7.7.5.5.5.7.8.e.5     ",
"    P 3.| { ) / ^ ! L S >.,     ",
"    J 2.{ ) / ~ W L S B :.>     ",
"    g 1.) / ~ W D S B m ;.-     ",
"    d T Z C b p S N m v =.=     ",
"    r G ,.,.O.i N n c x *.$     ",
"    e q 4 ....u n v x l *.@     ",
"    e ' < < } 8 c l l j O.o     ",
"    9 o.T 6 w V %.%.%.#.O..     ",
"    7 3 , ; % * * # + o  -.     ",
"  1                       1     ",
"1                       1       "
};
