/* XPM */
static const char * const Password_xpm[] = {
/* columns rows colors chars-per-pixel */
"16 16 105 2",
/* colors */
"   c None",
".  c #D6D67D7D2929",
"X  c #D6D67F7F2929",
"o  c #B8B883833333",
"O  c #BABA86863434",
"+  c #BBBB88883535",
"@  c #BFBF8B8B3535",
"#  c #B2B288883838",
"$  c #B5B58B8B3939",
"%  c #B7B78D8D3939",
"&  c #BABA90903A3A",
"*  c #D7D781812B2B",
"=  c #D7D782822B2B",
"-  c #D8D885852C2C",
";  c #C1C18E8E3636",
":  c #C8C888883131",
">  c #C9C98A8A3232",
",  c #CACA8A8A3232",
"<  c #CACA8B8B3232",
"1  c #CBCB8B8B3232",
"2  c #CCCC90903333",
"3  c #C2C295953B3B",
"4  c #C8C895953939",
"5  c #CACA9D9D3E3E",
"6  c #D1D196963636",
"7  c #DADA90903030",
"8  c #DDDD98983232",
"9  c #DFDFA1A13939",
"0  c #E3E3A9A93E3E",
"q  c #EEEEC5C52828",
"w  c #EEEEC8C82828",
"e  c #EFEFC9C92B2B",
"r  c #F0F0D2D22828",
"t  c #EFEFC9C93232",
"y  c #EFEFCDCD3434",
"u  c #F0F0CECE3838",
"i  c #F2F2CECE3C3C",
"p  c #F5F5D4D43737",
"a  c #F1F1D1D13939",
"s  c #F2F2D6D63939",
"d  c #F1F1D1D13D3D",
"f  c #F3F3D6D63D3D",
"g  c #FBFBF9F92828",
"h  c #DFDFABAB4242",
"j  c #E1E1ACAC4242",
"k  c #E3E3ACAC4242",
"l  c #E3E3B0B04444",
"z  c #E3E3B2B24545",
"x  c #F1F1D6D64343",
"c  c #F4F4D7D74141",
"v  c #F2F2D6D64747",
"b  c #F4F4D8D84343",
"n  c #F5F5DBDB4848",
"m  c #F5F5DDDD4949",
"M  c #F3F3D8D84E4E",
"N  c #F5F5DBDB4D4D",
"B  c #F6F6DCDC4E4E",
"V  c #F3F3D7D75050",
"C  c #F5F5DBDB5D5D",
"Z  c #EAEAC4C46F6F",
"A  c #F6F6DFDF6969",
"S  c #EAEAC5C57676",
"D  c #F7F7E4E46565",
"F  c #F6F6E4E47B7B",
"G  c #F6F6E1E17F7F",
"H  c #F7F7E4E47E7E",
"J  c #F3F3DADA8B8B",
"K  c #F5F5E1E18282",
"L  c #F6F6E0E08383",
"P  c #F7F7E5E58080",
"I  c #F7F7E5E58181",
"U  c #F7F7E5E58282",
"Y  c #F7F7E2E28585",
"T  c #FBFBEFEF8585",
"R  c #F7F7E2E28989",
"E  c #F7F7E1E18A8A",
"W  c #F8F8E7E78989",
"Q  c #F8F8E7E78D8D",
"!  c #F8F8E9E99494",
"~  c #F7F7E6E69F9F",
"^  c #F9F9EBEB9E9E",
"/  c #F9F9ECECA1A1",
"(  c #F9F9EAEAABAB",
")  c #FAFAEEEEACAC",
"_  c #FCFCF3F3A0A0",
"`  c #FCFCF5F5A9A9",
"'  c #FCFCF5F5AEAE",
"]  c #FAFAEEEEB0B0",
"[  c #FAFAEFEFBBBB",
"{  c #F8F8E9E9BCBC",
"}  c #FBFBF1F1BBBB",
"|  c #FBFBF1F1BCBC",
" . c #FBFBF2F2BEBE",
".. c #D6D67C7C2929",
"X. c #F7F7EBEBC4C4",
"o. c #FBFBF4F4C6C6",
"O. c #FDFDF8F8C1C1",
"+. c #FCFCF5F5CECE",
"@. c #FCFCF7F7D5D5",
"#. c #FCFCF8F8DEDE",
"$. c #FEFEFCFCEEEE",
"%. c #FEFEFCFCF0F0",
"&. c #FEFEFCFCF1F1",
"*. c #FFFFFFFFFEFE",
"=. c gray100",
/* pixels */
"                l l l l         ",
"              l l #.#.l l       ",
"            l l +.^  .*.l h     ",
"        g l l +.Q / l l *.9 4   ",
"      g   l #.Q P ! { k k $.8 4 ",
"    g     l  .H H P !  .J m O.7 ",
"  g       l @.W H H H P v a ' ..",
"g       l l Z P d C A V y T ..O ",
"    l l l S ) s N D i t T = +   ",
"    l &. .H r p L 0 _ ` = @     ",
"l l l ( M e f E < o ..- ; g     ",
"z &.] c w c E < #       g       ",
"z [ a q N L < %       g         ",
"z o.x n K : %         g         ",
"k X.G ~ < &         g           ",
"5 6 1 < 3         g             "
};
