/* XPM */
static const char * const Title_xpm[] = {
/* columns rows colors chars-per-pixel */
"16 16 87 1",
/* colors */
"  c None",
". c #AAAAAAAAAAAA",
"X c gray67",
"o c #ACACACACACAC",
"O c gray68",
"+ c #AEAEAEAEAEAE",
"@ c #AFAFAFAFAFAF",
"# c #B1B1B1B1B1B1",
"$ c #B2B2B2B2B2B2",
"% c #B4B4B4B4B4B4",
"& c gray71",
"* c #B6B6B6B6B6B6",
"= c #B7B7B7B7B7B7",
"- c gray72",
"; c #B9B9B9B9B9B9",
": c gray73",
"> c #BCBCBCBCBCBC",
", c gray74",
"< c #8D8DCCCCF7F7",
"1 c #8383CCCCFFFF",
"2 c #8686CDCDFDFD",
"3 c #8888CDCDFDFD",
"4 c #8989CECEFEFE",
"5 c #8989CECEFFFF",
"6 c #8A8ACFCFFEFE",
"7 c #8B8BCFCFFFFF",
"8 c #8C8CCFCFFFFF",
"9 c #8E8ED0D0FFFF",
"0 c #9797D1D1FAFA",
"q c #9797D2D2FDFD",
"w c #9696D4D4FFFF",
"e c #9898D4D4FFFF",
"r c #9898D5D5FFFF",
"t c #9A9AD5D5FFFF",
"y c #9B9BD6D6FFFF",
"u c #9C9CD6D6FFFF",
"i c #9E9ED7D7FFFF",
"p c #BABAE1E1FDFD",
"a c #BCBCE2E2FDFD",
"s c #BDBDE3E3FDFD",
"d c #FBFBF9F92828",
"f c #C1C1C1C1C1C1",
"g c #C3C3C3C3C3C3",
"h c gray77",
"j c #C5C5C5C5C5C5",
"k c gray78",
"l c #C8C8C8C8C8C8",
"z c gray79",
"x c #CACACACACACA",
"c c #CBCBCBCBCBCB",
"v c #CDCDCDCDCDCD",
"b c #CECECECECECE",
"n c #D0D0D0D0D0D0",
"m c gray82",
"M c #D2D2D2D2D2D2",
"N c LightGray",
"B c gray83",
"V c #D5D5D5D5D5D5",
"C c #D7D7D7D7D7D7",
"Z c #D8D8D8D8D8D8",
"A c gray85",
"S c #DADADADADADA",
"D c gainsboro",
"F c gray87",
"G c #D3D3EBEBFBFB",
"H c #D5D5ECECFBFB",
"J c #D6D6ECECFBFB",
"K c gray88",
"L c #E2E2E2E2E2E2",
"P c #E4E4E4E4E4E4",
"I c gray90",
"U c #E7E7E7E7E7E7",
"Y c gray91",
"T c #E9E9E9E9E9E9",
"R c gray92",
"E c #E7E7F3F3FBFB",
"W c #E8E8F3F3FBFB",
"Q c #EAEAF5F5FDFD",
"! c #F3F3F3F3F3F3",
"~ c gray97",
"^ c #F3F3F7F7F9F9",
"/ c #F7F7FBFBFDFD",
"( c gray98",
") c #FBFBFBFBFBFB",
"_ c #FBFBFCFCFDFD",
"` c gray99",
"' c #FDFDFDFDFDFD",
/* pixels */
"BBMMnvv k       ",
"B'''''Pvx       ",
"M'LvK''Lv       ",
"M'vdx!)'Lk      ",
"v'Fxx~Es'Fg,    ",
"v'')~Q91a'F :   ",
"xR')E3we3s'A,&  ",
"xkR)G1eii3a'A:$ ",
" kjU'J6eie3a'C&+",
"    U'J1ei9<_A&+",
"   >>I'J190^A=+d",
"    --P'Je/Z=.d ",
"     &&L''A&Xd  ",
"      $$KA&Xd   ",
"       @+&.d    ",
"        X.d     "
};
