/* XPM */
static const char * const URL_xpm[] = {
/* columns rows colors chars-per-pixel */
"16 16 191 2",
/* colors */
"   c None",
".  c #34347D7D3131",
"X  c #35357E7E3131",
"o  c #373780803333",
"O  c #393982823535",
"+  c #3A3A84843636",
"@  c #3E3E88883939",
"#  c #3F3F8A8A3A3A",
"$  c #43438F8F3D3D",
"%  c #474794944141",
"&  c #494996964242",
"*  c #4D4D9B9B4646",
"=  c #676796965A5A",
"-  c #686897975959",
";  c #5252A1A14949",
":  c #5353A3A34A4A",
">  c #5757A8A84E4E",
",  c #5959AAAA4F4F",
"<  c #5D5DAFAF5353",
"1  c #5050BCBC5959",
"2  c #6767A3A35A5A",
"3  c #6161B4B45656",
"4  c #6262B6B65757",
"5  c #6666BABA5A5A",
"6  c #6969BEBE5D5D",
"7  c #6A6ABFBF5E5E",
"8  c #5757A9A97B7B",
"9  c #6C6CABAB6363",
"0  c #6A6AADAD6060",
"q  c #7676A6A66565",
"w  c #7A7AA8A86666",
"e  c #7B7BA9A96767",
"r  c #7474BCBC6969",
"t  c #7171BDBD6E6E",
"y  c #6666B1B17878",
"u  c #7E7EBBBB7373",
"i  c #3F3FD1D17777",
"p  c #4D4DD7D76565",
"a  c #4D4DD9D96666",
"s  c #4646D0D06A6A",
"d  c #5D5DD3D36C6C",
"f  c #6D6DC2C26060",
"g  c #6D6DC3C36060",
"h  c #6E6EC4C46161",
"j  c #6767DBDB7676",
"k  c #6D6DDBDB7777",
"l  c #7D7DD1D17373",
"z  c #7171DCDC7A7A",
"x  c #FBFBF9F92828",
"c  c #8686B7B77070",
"v  c #9090BFBF7979",
"b  c #8D8DC0C07676",
"n  c #8080C0C07979",
"m  c #9191C7C77A7A",
"M  c #9A9AC0C07E7E",
"N  c #65659F9F8181",
"B  c #5858A9A99D9D",
"V  c #6262A5A59696",
"C  c #43438484B7B7",
"Z  c #43438686BFBF",
"A  c #47478C8CB9B9",
"S  c #57579B9BB6B6",
"D  c #52529A9AB9B9",
"F  c #5E5E9B9BBCBC",
"G  c #5F5FA9A9AFAF",
"H  c #7878A7A7B9B9",
"J  c #6D6DB6B6BEBE",
"K  c #6767BCBCBCBC",
"L  c #7070C6C68484",
"P  c #7373DEDE8282",
"I  c #6C6CD1D19090",
"U  c #7171D6D69A9A",
"Y  c #6060D8D8A6A6",
"T  c #7A7AD1D1AFAF",
"R  c #6D6DC4C4B4B4",
"E  c #7E7EC2C2BCBC",
"W  c #4E4E9292C1C1",
"Q  c #4A4A9898C7C7",
"!  c #4B4B9A9AC9C9",
"~  c #53539999C6C6",
"^  c #5C5CA5A5C5C5",
"/  c #5E5EA7A7C7C7",
"(  c #5656A2A2CCCC",
")  c #5B5BA3A3C9C9",
"_  c #5D5DA8A8CACA",
"`  c #5757A7A7D0D0",
"'  c #5151A6A6DADA",
"]  c #5C5CAFAFDADA",
"[  c #5858A8A8DDDD",
"{  c #5B5BABABDFDF",
"}  c #5B5BAFAFDCDC",
"|  c #5E5EB0B0D3D3",
" . c #6A6AA9A9C6C6",
".. c #7878AFAFCCCC",
"X. c #6D6DB3B3C7C7",
"o. c #6C6CBDBDC2C2",
"O. c #6E6EBCBCC6C6",
"+. c #6666B1B1CCCC",
"@. c #6666B4B4CDCD",
"#. c #6D6DB5B5CDCD",
"$. c #6E6EB9B9CFCF",
"%. c #7D7DB4B4CACA",
"&. c #6565ADADD6D6",
"*. c #6969B1B1D7D7",
"=. c #5656AAAAE0E0",
"-. c #7575C9C9CBCB",
";. c #9C9CBEBE8181",
":. c #9999C1C18181",
">. c #9595CCCC8080",
",. c #9191C9C98787",
"<. c #8383D8D88181",
"1. c #9090D4D48383",
"2. c #9D9DC5C59B9B",
"3. c #9A9ADFDF9494",
"4. c #A4A4C8C88888",
"5. c #A0A0D7D78787",
"6. c #A2A2D8D88C8C",
"7. c #A3A3D0D09191",
"8. c #AFAFD7D79292",
"9. c #B3B3D7D79999",
"0. c #B5B5DEDE9898",
"q. c #8D8DEAEA9D9D",
"w. c #A2A2E2E29B9B",
"e. c #8080D0D0A8A8",
"r. c #8484CBCBB5B5",
"t. c #9D9DC2C2B3B3",
"y. c #9C9CC1C1BDBD",
"u. c #9D9DC3C3BEBE",
"i. c #8B8BDADAB8B8",
"p. c #8A8ADCDCBFBF",
"a. c #ACACD7D7A6A6",
"s. c #B4B4DEDEA0A0",
"d. c #BCBCDADAA0A0",
"f. c #BDBDD8D8A2A2",
"g. c #AFAFD5D5BDBD",
"h. c #B1B1D2D2B0B0",
"j. c #B0B0D7D7BDBD",
"k. c #9E9EE0E0BCBC",
"l. c #9A9AE5E5BFBF",
"z. c #BBBBE1E1A5A5",
"x. c #A7A7EFEFB1B1",
"c. c #B4B4EFEFB5B5",
"v. c #ACACF0F0B5B5",
"b. c #C2C2DBDBA5A5",
"n. c #C0C0DCDCA6A6",
"m. c #CDCDE7E7AFAF",
"M. c #C7C7E8E8AEAE",
"N. c #CECEE3E3B1B1",
"B. c #CECEE4E4B2B2",
"V. c #CFCFE9E9B0B0",
"C. c #CCCCEBEBB5B5",
"Z. c #CCCCEAEABABA",
"A. c #D2D2ECECB3B3",
"S. c #D3D3EAEAB5B5",
"D. c #DDDDEFEFBEBE",
"F. c #DCDCF0F0BEBE",
"G. c #8181B3B3C5C5",
"H. c #8282CBCBC3C3",
"J. c #8E8EC1C1C9C9",
"K. c #8B8BC8C8D7D7",
"L. c #8D8DCFCFD5D5",
"P. c #8B8BCBCBD9D9",
"I. c #9090CDCDDBDB",
"U. c #9595D3D3DADA",
"Y. c #9C9CD8D8D9D9",
"T. c #A0A0D2D2C0C0",
"R. c #AAAAD0D0C4C4",
"E. c #A1A1D0D0CECE",
"W. c #A7A7DFDFCCCC",
"Q. c #AFAFDFDFCFCF",
"!. c #B4B4DADAC5C5",
"~. c #A2A2D4D4D4D4",
"^. c #A6A6DBDBD5D5",
"/. c #ABABDEDEDCDC",
"(. c #B5B5DEDED6D6",
"). c #A9A9EEEEC9C9",
"_. c #BEBEE0E0C5C5",
"`. c #B7B7EDEDC1C1",
"'. c #B7B7E3E3D4D4",
"]. c #B7B7EDEDD4D4",
"[. c #32327A7A2F2F",
"{. c #D3D3EDEDCECE",
"}. c #D6D6F2F2C7C7",
"|. c #DEDEF2F2C0C0",
" X c #C7C7EAEAD0D0",
".X c #C9C9EAEAD1D1",
"XX c #CFCFE9E9D0D0",
"oX c #D5D5EFEFD5D5",
"OX c #DADAEDEDD4D4",
"+X c #E2E2F3F3C0C0",
"@X c #E8E8F5F5CDCD",
/* pixels */
"    x x h h h h h h h f         ",
"  x h h h z.Z._.!.j.a.6 5 4     ",
"x h h 6.@XOX{.Q.(.~.E.R.,.< ,   ",
"  h 5.|.}.oXXX^./.I.K.J.g.m :   ",
"h h +Xc.v.`.'.Y.U.#.X.r.3.m.* & ",
"h 0.C.x.)..XL.P.@.K U P z 7.4.$ ",
"h A.w.q.]. X$.+.-.j a p d u b.@ ",
"h F.<.k l.W._ o.i.Y i s 1 9 B.O ",
"h F.n U k./ | ~ O.T R G 8 2 N.X ",
"h A.m H.H.( } } ! Z C D V q f.[.",
"6 6.9.L e.^ ` =.' Q A S N v ;.[.",
"4 4 S.r t o._ } [ W B y = n.[.[.",
"h., v 9.u %. .*.*.F 2 - :.w . x ",
"  : * c M.T.G.%.%.H >.b.w [.[.  ",
"    $ $ $ ;.t.y.J.h.v . [.[.x   ",
"        $ X X [.[.[.[.[.x x     "
};
