/* XPM */
static const char * const backups_xpm[] = {
"64 64 153 2",
"  	c None",
". 	c #48A0DC",
"+ 	c #439FDC",
"@ 	c #AFCDEB",
"# 	c #FEFFFF",
"$ 	c #FFFFFF",
"% 	c #ADCCEA",
"& 	c #B0B6BB",
"* 	c #C6DAF0",
"= 	c #C4D9F0",
"- 	c #53A3DD",
"; 	c #8EBBE5",
"> 	c #90BDE5",
", 	c #52A3DD",
"' 	c #55A4DD",
") 	c #C2D8EF",
"! 	c #CEDFF2",
"~ 	c #AACAEA",
"{ 	c #A0C5E8",
"] 	c #4CA2DD",
"^ 	c #5CA6DE",
"/ 	c #CDDFF2",
"( 	c #D7E6F5",
"_ 	c #B8D2ED",
": 	c #47A0DC",
"< 	c #80B5E2",
"[ 	c #81B5E3",
"} 	c #80B4E2",
"| 	c #C1D7EF",
"1 	c #BFD6EE",
"2 	c #B9D3ED",
"3 	c #B7D2ED",
"4 	c #70AEE0",
"5 	c #7CB2E2",
"6 	c #6FAEE0",
"7 	c #92BDE5",
"8 	c #E5EEF8",
"9 	c #E7EFF8",
"0 	c #CFDFF2",
"a 	c #FEFEFF",
"b 	c #449FDC",
"c 	c #72AEE0",
"d 	c #C0D6EE",
"e 	c #9BC2E7",
"f 	c #4BA1DC",
"g 	c #A1C5E8",
"h 	c #B0CDEB",
"i 	c #A9C9E9",
"j 	c #59A5DE",
"k 	c #ACCBEA",
"l 	c #C9DCF1",
"m 	c #85B7E3",
"n 	c #F0F5FB",
"o 	c #F3F8FC",
"p 	c #F2F7FC",
"q 	c #A5C7E9",
"r 	c #469FDC",
"s 	c #ED7161",
"t 	c #E76D5E",
"u 	c #EB7060",
"v 	c #CB574D",
"w 	c #DE6659",
"x 	c #EC7060",
"y 	c #E66C5D",
"z 	c #D15C51",
"A 	c #C9554C",
"B 	c #D76054",
"C 	c #E0675A",
"D 	c #EA6F5F",
"E 	c #E46A5C",
"F 	c #DB6457",
"G 	c #D05B50",
"H 	c #CA564C",
"I 	c #CF5A50",
"J 	c #D35D52",
"K 	c #D86155",
"L 	c #DB6357",
"M 	c #DC6457",
"N 	c #DE6658",
"O 	c #DF6759",
"P 	c #DF6659",
"Q 	c #DD6558",
"R 	c #D96256",
"S 	c #D65F54",
"T 	c #D15B51",
"U 	c #CC584E",
"V 	c #CA574B",
"W 	c #DB9038",
"X 	c #C9564C",
"Y 	c #D27643",
"Z 	c #ECBA16",
"` 	c #E6AB27",
" .	c #D6833F",
"..	c #CB5C4A",
"+.	c #C9544C",
"@.	c #D17245",
"#.	c #DF9A33",
"$.	c #EBB818",
"%.	c #E4A929",
"&.	c #DD9636",
"*.	c #D7863D",
"=.	c #D17344",
"-.	c #CD6648",
";.	c #C9534C",
">.	c #D06F46",
",.	c #D47D41",
"'.	c #DA8F39",
").	c #E1A02F",
"!.	c #E9B31F",
"~.	c #ECBA15",
"{.	c #E9B21F",
"].	c #E7AF24",
"^.	c #E6AC26",
"/.	c #E5AB27",
"(.	c #E5AB28",
"_.	c #E7AE25",
":.	c #E8B022",
"<.	c #EBB718",
"[.	c #ECBB15",
"}.	c #E2B929",
"|.	c #EABA18",
"1.	c #73B17A",
"2.	c #D5B83F",
"3.	c #E7BA22",
"4.	c #9EB36A",
"5.	c #25AE88",
"6.	c #23AE88",
"7.	c #83B175",
"8.	c #BAB559",
"9.	c #DBB837",
"0.	c #ECBA14",
"a.	c #E5B924",
"b.	c #CBB74B",
"c.	c #A0B36A",
"d.	c #4CAF83",
"e.	c #4BAF82",
"f.	c #7BB178",
"g.	c #B0B461",
"h.	c #BCB559",
"i.	c #C9B74A",
"j.	c #D4B745",
"k.	c #D7B83E",
"l.	c #D9B83C",
"m.	c #DAB83B",
"n.	c #D8B83D",
"o.	c #D5B842",
"p.	c #D0B746",
"q.	c #C1B653",
"r.	c #B5B55D",
"s.	c #A7B466",
"t.	c #8CB272",
"u.	c #68B07D",
"v.	c #22AE88",
"                                                                                                                                ",
". . . . . . . . . . . . . . . . . . . . . . . . . . . .                                                                         ",
". . . . . . . . . . . . . . . . . . . . . . . . . . . . .                                                                       ",
". . . . . . . . . . . . . . . . . . . . . . . . . . . . .                                                                       ",
". . . . + + + + + + + + + + + + . . . . . . . . . . . . .                                                                       ",
". . . @ # $ $ $ $ $ $ $ $ $ $ # % . . . . . . . . . . . .       & & & &                                                         ",
". . . * $ $ $ $ $ $ $ $ $ $ $ $ = . . . . . . . . . . . .       & & & &     & & & &                                             ",
". . . - ; > > > > > > > > > > ; , . . . . . . . . . . . .                   & & & & &                                           ",
". . . . . . . . . . . . . . . . . . . . . . . . . . . . .                         &     & & &                                   ",
". . . . . . ' ) ! ! ! ! ! ! ! ! ! ! ! ! ~ . . . . . . . .                               & & & &                                 ",
". . . . . . { $ $ $ $ $ $ $ $ $ $ $ $ $ $ ] . . . . . . .                                   & &                                 ",
". . . . . . ^ / ( ( ( ( ( ( ( ( ( ( ( ( _ . . . . . . . .                                           &                           ",
". . . . . . . . . . . . . . . . . . . . . . . . . . . . .                                         & & &                         ",
". . . : < [ [ [ [ [ [ [ [ [ [ } : . . . . . . . . . . . .                                           & & &                       ",
". . . | $ $ $ $ $ $ $ $ $ $ $ $ 1 . . . . . . . . . . . .                                             & &                       ",
". . . 2 $ $ $ $ $ $ $ $ $ $ $ $ 3 . . . . . . . . . . . .                                                                       ",
". . . : 4 5 5 5 5 5 5 5 5 5 5 6 : . . . . . . . . . . . .                                                   &                   ",
". . . . . . . . . . . . . . . . . . . . . . . . . . . . .                                                 & & &                 ",
". . . 7 8 9 9 9 9 ) . . . . . . . . . . . . . . . . . . .                                                   & & &               ",
". . . 0 $ $ $ $ $ a b . . . . . . . . . . . . . . . . . .                                                   & & &               ",
". . . c d | | | | e . . . . . . . . . . . . . . . . . . .                                                     &                 ",
". . . . . . . . . . . . . . . . . . . . . . . . . . . . .                                                                       ",
". . . . . f g h h h h h h h h i j . . . . . . . . . . . .                                                       & &             ",
". . . . . k $ $ $ $ $ $ $ $ $ $ l . . . . . . . . . . . .                                                       & & &           ",
". . . . . m n o o o o o o o o p q . . . . . . . . . . . .                                                       & & &           ",
". . . . . . : r r r r r r r r : . . . . . . . . . . . . .                                                         & &           ",
". . . . . . . . . . . . . . . . . . . . . . . . . . . . .                                                         &             ",
". . . . . . . . . . . . . . . . . . . . . . . . . . . . .                                                                       ",
"  . . . . . . . . . . . . . . . . . . . . . . . . . . .                                                             &           ",
"                                                                                                                  & & &         ",
"                                                                                                                  & & &         ",
"                                                                                                                  & & &         ",
"                                                                                                                    &           ",
"        & & &                                                                                                                   ",
"        & & &                                                                                                                   ",
"        & & &                                                                                                                   ",
"          & &                                                                                                                   ",
"                                                                                    s s s s s s s s s s s s s s s               ",
"                                                                            s s s s s s s s s s s s s s s s s s s s s s s s     ",
"          & &                                                           s s s s s s s s s s s s s s s s s s s s s s s s s s s s ",
"          & & &                                                       t s s s s s s s s s s s s s s s s s s s s s s s s s s s u ",
"          & & &                                                       v w x s s s s s s s s s s s s s s s s s s s s s s s s y z ",
"            & &                                                       A A v B C t s s s s s s s s s s s s s s s s s D E F G A A ",
"                                                                      A A A A A A H I J K L M N O O O P Q M R S T U A A A A A A ",
"                                                                      A A A A A A A A A A A A A A A A A A A A A A A A A A A A A ",
"              & & &                                                   A A A A A A A A A A A A A A A A A A A A A A A A A A A A A ",
"              & & &                                                   V A A A A A A A A A A A A A A A A A A A A A A A A A A A A ",
"                & & &                                                 W X A A A A A A A A A A A A A A A A A A A A A A A A A A Y ",
"                  & &                                                 Z `  ...A A A A A A A A A A A A A A A A A A A A A +.@.#.$.",
"                                                                      Z Z Z $.%.&.*.=.-.+.+.A A A A A A A A ;...>.,.'.).!.Z Z Z ",
"                      & &                                             Z Z Z Z Z Z Z Z Z ~.{.].^./.(.(.` _.:.<.[.Z Z Z Z Z Z Z Z ",
"                      & & &                                           Z Z Z Z Z Z Z Z Z Z Z Z Z Z Z Z Z Z Z Z Z Z Z Z Z Z Z Z Z ",
"                        & & &                                         Z Z Z Z Z Z Z Z Z Z Z Z Z Z Z Z Z Z Z Z Z Z Z Z Z Z Z Z Z ",
"                          & &                                         }.Z Z Z Z Z Z Z Z Z Z Z Z Z Z Z Z Z Z Z Z Z Z Z Z Z Z Z |.",
"                                & &                                   1.2.Z Z Z Z Z Z Z Z Z Z Z Z Z Z Z Z Z Z Z Z Z Z Z Z Z 3.4.",
"                                & & & &                               5.6.7.8.9.0.Z Z Z Z Z Z Z Z Z Z Z Z Z Z Z Z Z Z a.b.c.d.5.",
"                                  & & &                               5.5.5.5.6.e.f.4.g.h.i.j.k.l.m.m.n.o.p.q.r.s.t.u.v.5.5.5.5.",
"                                          & & & &                     5.5.5.5.5.5.5.5.5.5.5.5.5.5.5.5.5.5.5.5.5.5.5.5.5.5.5.5.5.",
"                                            & & & &     & & & &       5.5.5.5.5.5.5.5.5.5.5.5.5.5.5.5.5.5.5.5.5.5.5.5.5.5.5.5.5.",
"                                                &       & & & &       5.5.5.5.5.5.5.5.5.5.5.5.5.5.5.5.5.5.5.5.5.5.5.5.5.5.5.5.5.",
"                                                                      5.5.5.5.5.5.5.5.5.5.5.5.5.5.5.5.5.5.5.5.5.5.5.5.5.5.5.5.5.",
"                                                                        5.5.5.5.5.5.5.5.5.5.5.5.5.5.5.5.5.5.5.5.5.5.5.5.5.5.5.  ",
"                                                                              5.5.5.5.5.5.5.5.5.5.5.5.5.5.5.5.5.5.5.5.5.        ",
"                                                                                              5.5.5.5.5.5.                      "};
