/* XPM */
static const char * const display_xpm[] = {
"64 64 92 2",
"  	c None",
". 	c #5A5A5B",
"+ 	c #777778",
"@ 	c #7A7A7B",
"# 	c #717172",
"$ 	c #59595A",
"% 	c #686869",
"& 	c #616162",
"* 	c #6A6A6B",
"= 	c #5F5F60",
"- 	c #5B5B5C",
"; 	c #787879",
"> 	c #707071",
", 	c #616874",
"' 	c #91ABCA",
") 	c #92ACCA",
"! 	c #88A5C6",
"~ 	c #789AC2",
"{ 	c #87A4C7",
"] 	c #91ACCA",
"^ 	c #7B9CC2",
"/ 	c #616D7D",
"( 	c #647285",
"_ 	c #9ECCFF",
": 	c #A6D1FF",
"< 	c #A5D0FF",
"[ 	c #92C6FF",
"} 	c #90C5FF",
"| 	c #93C6FF",
"1 	c #9CCBFF",
"2 	c #697E97",
"3 	c #94C7FF",
"4 	c #9BCBFF",
"5 	c #9FCDFF",
"6 	c #91C5FF",
"7 	c #A0CEFF",
"8 	c #A4D0FF",
"9 	c #95C8FF",
"0 	c #99CAFF",
"a 	c #97C8FF",
"b 	c #98C9FF",
"c 	c #A1CEFF",
"d 	c #A3CFFF",
"e 	c #A2CFFF",
"f 	c #97C9FF",
"g 	c #9ACBFF",
"h 	c #91C6FF",
"i 	c #9DCCFF",
"j 	c #A5D1FF",
"k 	c #9ECDFF",
"l 	c #93C7FF",
"m 	c #95C7FF",
"n 	c #9ACAFF",
"o 	c #A0CDFF",
"p 	c #96C8FF",
"q 	c #99C9FF",
"r 	c #A2CEFF",
"s 	c #A3D0FF",
"t 	c #5B5F65",
"u 	c #687B94",
"v 	c #6E8096",
"w 	c #8593A4",
"x 	c #76879D",
"y 	c #7D8C9F",
"z 	c #8391A4",
"A 	c #697C95",
"B 	c #5D626B",
"C 	c #727273",
"D 	c #626263",
"E 	c #676768",
"F 	c #646465",
"G 	c #575758",
"H 	c #737374",
"I 	c #79797A",
"J 	c #747475",
"K 	c #585859",
"L 	c #D9DADD",
"M 	c #D3D3D7",
"N 	c #D6D7DA",
"O 	c #DCDCDF",
"P 	c #D5D6D9",
"Q 	c #E5E6E9",
"R 	c #DEDFE2",
"S 	c #D8D9DD",
"T 	c #DFE0E3",
"U 	c #E0E1E4",
"V 	c #DDDEE2",
"W 	c #DADBDF",
"X 	c #D9DADE",
"Y 	c #A7A8AC",
"Z 	c #A6A7AB",
"` 	c #A5A6AA",
"                                                                                                                                ",
"                                                                                                                                ",
"                                                                                                                                ",
"                                                                                                                                ",
"                                                                                                                                ",
"                                                                                                                                ",
"                                                                                                                                ",
"                                                                                                                                ",
"  . + @ @ @ # $ $ % @ @ @ @ & $ $ $ $ $ $ $ $ $ $ $ $ $ $ $ $ $ $ $ $ $ $ $ $ $ $ $ $ $ $ $ $ $ $ $ $ $ $ $ $ $ $ $ $ $ $ $ $   ",
"$ $ * @ @ @ @ = $ - ; @ @ @ > $ $ $ $ $ $ $ $ $ $ $ $ $ $ $ $ $ $ $ $ $ $ $ $ $ $ $ $ $ $ $ $ $ $ $ $ $ $ $ $ $ $ $ $ $ $ $ $ $ ",
"$ $ , ' ) ) ) ! ~ ~ { ) ) ) ] ^ ~ ~ ~ ~ ~ ~ ~ ~ ~ ~ ~ ~ ~ ~ ~ ~ ~ ~ ~ ~ ~ ~ ~ ~ ~ ~ ~ ~ ~ ~ ~ ~ ~ ~ ~ ~ ~ ~ ~ ~ ~ ~ ~ ~ ~ / $ $ ",
"$ $ ( _ : : : < [ } | : : : : 1 } } } } } } } } } } } } } } } } } } } } } } } } } } } } } } } } } } } } } } } } } } } } } 2 $ $ ",
"$ $ ( 3 : : : : 4 } } 5 : : : < 6 } } } } } } } } } } } } } } } } } } } } } } } } } } } } } } } } } } } } } } } } } } } } 2 $ $ ",
"$ $ ( } 7 : : : 8 } } 9 : : : : 0 } } } } } } } } } } } } } } } } } } } } } } } } } } } } } } } } } } } } } } } } } } } } 2 $ $ ",
"$ $ ( } a : : : : b } } c : : : d } } } } } } } } } } } } } } } } } } } } } } } } } } } } } } } } } } } } } } } } } } } } 2 $ $ ",
"$ $ ( } } d : : : e } } b : : : : f } } } } } } } } } } } } } } } } } } } } } } } } } } } } } } } } } } } } } } } } } } } 2 $ $ ",
"$ $ ( } } 0 : : : : 9 } } 8 : : : 7 } } } } } } } } } } } } } } } } } } } } } } } } } } } } } } } } } } } } } } } } } } } 2 $ $ ",
"$ $ ( } } 6 8 : : : 5 } } g : : : : 3 } } } } } } } } } } } } } } } } } } } } } } } } } } } } } } } } } } } } } } } } } } 2 $ $ ",
"$ $ ( } } } 1 : : : : | } h < : : : _ } } } } } } } } } } } } } } } } } } } } } } } } } } } } } } } } } } } } } } } } } } 2 $ $ ",
"$ $ ( } } } [ : : : : i } } i : : : j [ } } } } } } } } } } } } } } } } } } } } } } } } } } } } } } } } } } } } } } } } } 2 $ $ ",
"$ $ ( } } } } k : : : < h } l : : : : 4 } } } } } } } } } } } } } } } } } } } } } } } } } } } } } } } } } } } } } } } } } 2 $ $ ",
"$ $ ( } } } } m : : : : n } } o : : : 8 6 } } } } } } } } } } } } } } } } } } } } } } } } } } } } } } } } } } } } } } } } 2 $ $ ",
"$ $ ( } } } } } c : : : d } } p : : : : 0 } } } } } } } } } } } } } } } } } } } } } } } } } } } } } } } } } } } } } } } } 2 $ $ ",
"$ $ ( } } } } } f : : : : b } } e : : : e } } } } } } } } } } } } } } } } } } } } } } } } } } } } } } } } } } } } } } } } 2 $ $ ",
"$ $ ( } } } } } } d : : : c } } q : : : : p } } } } } } } } } } } } } } } } } } } } } } } } } } } } } } } } } } } } } } } 2 $ $ ",
"$ $ ( } } } } } } n : : : : m } 6 8 : : : o } } } } } } } } } } } } } } } } } } } } } } } } } } } } } } } } } } } } } } } 2 $ $ ",
"$ $ ( } } } } } } h < : : : 5 } } 4 : : : : l } } } } } } } } } } } } } } } } } } } } } } } } } } } } } } } } } } } } } } 2 $ $ ",
"$ $ ( } } } } } } } i : : : : [ } [ j : : : i } } } } } } } } } } } } } } } } } } } } } } } } } } } } } } } } } } } } } } 2 $ $ ",
"$ $ ( } } } } } } } | : : : : 1 } } _ : : : < [ } } } } } } } } } } } } } } } } } } } } } } } } } } } } } } } } } } } } } 2 $ $ ",
"$ $ ( } } } } } } } } 5 : : : < 6 } 3 : : : : 4 } } } } } } } } } } } } } } } } } } } } } } } } } } } } } } } } } } } } } 2 $ $ ",
"$ $ ( } } } } } } } } 9 : : : : 0 } } 7 : : : 8 } } } } } } } } } } } } } } } } } } } } } } } } } } } } } } } } } } } } } 2 $ $ ",
"$ $ ( } } } } } } } } } r : : : d } } f : : : : b } } } } } } } } } } } } } } } } } } } } } } } } } } } } } } } } } } } } 2 $ $ ",
"$ $ ( } } } } } } } } } b : : : : f } } d : : : r } } } } } } } } } } } } } } } } } } } } } } } } } } } } } } } } } } } } 2 $ $ ",
"$ $ ( } } } } } } } } } } 8 : : : 7 } } 0 : : : : 9 } } } } } } } } } } } } } } } } } } } } } } } } } } } } } } } } } } } 2 $ $ ",
"$ $ ( } } } } } } } } } } 4 : : : : 3 } 6 < : : : 5 } } } } } } } } } } } } } } } } } } } } } } } } } } } } } } } } } } } 2 $ $ ",
"$ $ ( } } } } } } } } } } [ < : : : _ } } 1 : : : : | } } } } } } } } } } } } } } } } } } } } } } } } } } } } } } } } } } 2 $ $ ",
"$ $ ( } } } } } } } } } } } i : : : j [ } [ : : : : i } } } } } } } } } } } } } } } } } } } } } } } } } } } } } } } } } } 2 $ $ ",
"$ $ ( } } } } } } } } } } } l : : : : 4 } } 5 : : : < h } } } } } } } } } } } } } } } } } } } } } } } } } } } } } } } } } 2 $ $ ",
"$ $ ( } } } } } } } } } } } } o : : : 8 6 } m : : : : n } } } } } } } } } } } } } } } } } } } } } } } } } } } } } } } } } 2 $ $ ",
"$ $ ( } } } } } } } } } } } } p : : : : b } } c : : : d } } } } } } } } } } } } } } } } } } } } } } } } } } } } } } } } } 2 $ $ ",
"$ $ ( } } } } } } } } } } } } } e : : : e } } b : : : : f } } } } } } } } } } } } } } } } } } } } } } } } } } } } } } } } 2 $ $ ",
"$ $ ( } } } } } } } } } } } } } 0 : : : : p } } s : : : c } } } } } } } } } } } } } } } } } } } } } } } } } } } } } } } } 2 $ $ ",
"$ $ ( } } } } } } } } } } } } } 6 8 : : : o } } n : : : : m } } } } } } } } } } } } } } } } } } } } } } } } } } } } } } } 2 $ $ ",
"$ $ ( } } } } } } } } } } } } } } 4 : : : : l } h < : : : k } } } } } } } } } } } } } } } } } } } } } } } } } } } } } } } 2 $ $ ",
"$ $ ( } } } } } } } } } } } } } } [ j : : : i } } i : : : : [ } } } } } } } } } } } } } } } } } } } } } } } } } } } } } } 2 $ $ ",
"$ $ ( } } } } } } } } } } } } } } } _ : : : < h } l : : : : 1 } } } } } } } } } } } } } } } } } } } } } } } } } } } } } } 2 $ $ ",
"$ $ t u u u u u u u u u u u u u u u v w w w w x u u y w w w z A u u u u u u u u u u u u u u u u u u u u u u u u u u u u u B $ $ ",
"$ $ $ $ $ $ $ $ $ $ $ $ $ $ $ $ $ $ $ C @ @ @ + $ $ D @ @ @ @ E $ $ $ $ $ $ $ $ $ $ $ $ $ $ $ $ $ $ $ $ $ $ $ $ $ $ $ $ $ $ $ $ ",
"  $ $ $ $ $ $ $ $ $ $ $ $ $ $ $ $ $ $ F @ @ @ @ F G G H I I I J G G G G G G G G K $ $ $ $ $ $ $ $ $ $ $ $ $ $ $ $ $ $ $ $ $ $   ",
"                                                L M M N O O O O P M M M M M M M                                                 ",
"                                              Q R S S S T U V W S S S S S S S S S                                               ",
"                                              W S S S S W X S S S S S S S S S S S                                               ",
"                                              S S S S S S S S S S S S S S S S S S                                               ",
"                                              S S S S S S S S S S S S S S S S S S                                               ",
"                                              S S S S S S S S S S S S S S S S S S S                                             ",
"                                            S S S S S S S S S S S S S S S S S S S S                                             ",
"                                            S S S S S S S S S S S S S S S S S S S S                                             ",
"                                            S S S S S S S S S S S S S S S S S S S S                                             ",
"                                            S S S S S S S S S S S S S S S S S S S S                                             ",
"                                          X S S S S S S S S S S S S S S S S S S S S S                                           ",
"                                    Y Z Z ` ` ` ` ` ` ` ` ` ` ` ` ` ` ` ` ` ` ` ` ` ` Z Z Z                                     ",
"                                    Y Z Z Z Z Z Z Z Z Z Z Z Z Z Z Z Z Z Z Z Z Z Z Z Z Z Z Z                                     ",
"                                      Z Z Z Z Z Z Z Z Z Z Z Z Z Z Z Z Z Z Z Z Z Z Z Z Z Z Y                                     ",
"                                                                                                                                "};
