/* XPM */
static const char * const miscellaneous_xpm[] = {
"64 64 64 1",
" 	c None",
".	c #D7DEED",
"+	c #C7CFE2",
"@	c #D4DBEA",
"#	c #A8ADBC",
"$	c #C0C6D5",
"%	c #878B9A",
"&	c #5B5D6E",
"*	c #797C8B",
"=	c #5A5C6D",
"-	c #AEB4C2",
";	c #C9D0DF",
">	c #D0D7E6",
",	c #ADB2C1",
"'	c #C5CBDA",
")	c #6F7282",
"!	c #CAD0DF",
"~	c #CBD2E1",
"{	c #636576",
"]	c #6F7281",
"^	c #C2C8D7",
"/	c #858997",
"(	c #CBD1E0",
"_	c #BFC5D4",
":	c #C4CBDA",
"<	c #D3DAE9",
"[	c #B6BBCA",
"}	c #D1D8E7",
"|	c #CAD1DF",
"1	c #606273",
"2	c #BAC0CE",
"3	c #838796",
"4	c #999EAC",
"5	c #D3D9E8",
"6	c #777B8A",
"7	c #B6BCCA",
"8	c #CED5E4",
"9	c #787B8A",
"0	c #7A7E8D",
"a	c #B0B6C4",
"b	c #848896",
"c	c #606373",
"d	c #6E7180",
"e	c #BAC0CF",
"f	c #D5DCEB",
"g	c #BDC3D2",
"h	c #C8CEDD",
"i	c #979BAA",
"j	c #B3B8C7",
"k	c #BBC1D0",
"l	c #CFD5E4",
"m	c #A9AFBD",
"n	c #CCD3E1",
"o	c #ADB3C1",
"p	c #858998",
"q	c #9094A3",
"r	c #868A98",
"s	c #7E8291",
"t	c #979CAA",
"u	c #C1C7D6",
"v	c #9195A4",
"w	c #A2A7B6",
"x	c #ABB1BF",
"y	c #9EA2B1",
"                                                ..............  ",
"                                               .................",
"                                              ..................",
"                                              ..................",
" ......................    +++++++++++++      .............@#$..",
"........................   ++++++++++++++     ............@%&*..",
" .......................   +++++++++++++      ...........@%&=-..",
"                                              ....;>....@%&=,...",
"                                              ...'&)!..@%&=,....",
"                                              ...~{&]!@%&=,.....",
"                                              ....^{&]/&=,......",
"+++++++++++   ..................   ++++++     .....^{&&=,.......",
"+++++++++++  ...................  +++++++     ......^{=,........",
"                                              .......(^.........",
"                                              ..................",
"                                               .................",
"                                               ................ ",
"                                                ..............  ",
"                                                                ",
"                                                                ",
"                                                                ",
"                                                                ",
"                                                                ",
"                                                ..............  ",
"                                               ................ ",
"                                               .................",
"                                              ..................",
"                                              ....._:....<[}....",
"........................   ++++++++++++++     ....|=12..<3&4....",
"........................   ++++++++++++++     ....56&12<3&&7....",
"                                              .....89&10&&a.....",
"                                              ......89&&&a......",
"                                              ......<b&&c2......",
"                                              .....<3&&d&1e.....",
" ++++++++++   ..................   +++++      ....f3&&a89&1g....",
"+++++++++++  ...................  +++++++     ....h&&a..89&i....",
" +++++++++    .................    +++++      .....jk....lmn....",
"                                              ..................",
"                                               .................",
"                                               ................ ",
"                                                ..............  ",
"                                                                ",
"                                                                ",
"                                                                ",
"                                                                ",
"                                                                ",
"                                                 .............  ",
"                                               ................ ",
"                                               .................",
"                                              ..................",
"                                              ..............|5..",
"........................   ++++++++++++++     .............o=p..",
"........................   ++++++++++++++     ............o=&q..",
"                                              ...........o=&r@..",
"                                              ...8stf...o=&r@...",
"                                              ...u&&vf.o=&r@....",
"                                              ....w&&vx=&r@.....",
" +++++++++    .................    +++++      .....w&&&&r@......",
"+++++++++++  ...................  +++++++     ......w&&r@.......",
" ++++++++++   .................    +++++      .......oy@........",
"                                              ..................",
"                                              ..................",
"                                               .................",
"                                                ............... "};
