/* XPM */
static const char * const security_xpm[] = {
"64 64 138 2",
"  	c None",
". 	c #D7ECFF",
"+ 	c #B7C4CC",
"@ 	c #D7EBFF",
"# 	c #B6C3CB",
"$ 	c #B8C5CE",
"% 	c #B8C5CD",
"& 	c #B7C5CD",
"* 	c #DEEEFF",
"= 	c #AEC2CD",
"- 	c #DAEDFF",
"; 	c #F2F8FF",
"> 	c #FFFFFF",
", 	c #74B7D5",
"' 	c #6DAFCC",
") 	c #ACC0CC",
"! 	c #D8ECFF",
"~ 	c #E9F4FF",
"{ 	c #FDFEFF",
"] 	c #33A6CC",
"^ 	c #3CA7CC",
"/ 	c #87B5CC",
"( 	c #B3C3CC",
"_ 	c #D9ECFF",
": 	c #E8F3FF",
"< 	c #FBFDFF",
"[ 	c #47A8CC",
"} 	c #8BB7CC",
"| 	c #B2C2CC",
"1 	c #EEF6FF",
"2 	c #FCFEFF",
"3 	c #40A8CC",
"4 	c #7DB3CC",
"5 	c #A5BECC",
"6 	c #E0EFFF",
"7 	c #ECF5FF",
"8 	c #F8FBFF",
"9 	c #55ABCC",
"0 	c #85B5CC",
"a 	c #A2BDCC",
"b 	c #B5C3CC",
"c 	c #DAECFF",
"d 	c #E1F0FF",
"e 	c #E7F3FF",
"f 	c #EDF6FF",
"g 	c #F5FAFF",
"h 	c #3DA7CC",
"i 	c #65ADCC",
"j 	c #83B4CC",
"k 	c #92B8CC",
"l 	c #B0C2CC",
"m 	c #3AA7CC",
"n 	c #9BBBCC",
"o 	c #F4F9FF",
"p 	c #5CACCC",
"q 	c #F7FBFF",
"r 	c #55AACC",
"s 	c #58ABCC",
"t 	c #F3F9FF",
"u 	c #5DACCC",
"v 	c #EFF7FF",
"w 	c #68AECC",
"x 	c #EBF5FF",
"y 	c #7EB3CC",
"z 	c #E5F2FF",
"A 	c #8DB7CC",
"B 	c #A0BDCC",
"C 	c #FEFEFF",
"D 	c #72B6D4",
"E 	c #2AA5CB",
"F 	c #B1C2CC",
"G 	c #82CBEE",
"H 	c #2FBAE6",
"I 	c #CAE5FC",
"J 	c #D2E5F7",
"K 	c #ACD9F5",
"L 	c #3ABBE6",
"M 	c #C9E5FC",
"N 	c #C9DAE9",
"O 	c #CDE7FD",
"P 	c #BFCDD8",
"Q 	c #7BC9ED",
"R 	c #D3E6F9",
"S 	c #B2DBF6",
"T 	c #C7D8E6",
"U 	c #D4EAFE",
"V 	c #55BFE8",
"W 	c #D6EAFE",
"X 	c #BAC8D1",
"Y 	c #A2D6F3",
"Z 	c #CBDDED",
"` 	c #D1E9FE",
" .	c #51BFE8",
"..	c #BBCAD3",
"+.	c #A6D7F4",
"@.	c #CADCEB",
"#.	c #D5EAFE",
"$.	c #64C3EA",
"%.	c #D5E9FC",
"&.	c #BAC7D0",
"*.	c #BDE0F9",
"=.	c #39BBE6",
"-.	c #C4D4E1",
";.	c #94D0F1",
">.	c #CEE1F2",
",.	c #D3EAFE",
"'.	c #69C4EA",
").	c #D4E8FB",
"!.	c #C8E4FB",
"~.	c #4BBEE7",
"{.	c #BFCEDA",
"].	c #B9DEF8",
"^.	c #3FBCE6",
"/.	c #C5D5E2",
"(.	c #AEDAF6",
"_.	c #C8D9E8",
":.	c #A8D8F4",
"<.	c #38BBE6",
"[.	c #ABD9F5",
"}.	c #3CBBE6",
"|.	c #B4DCF7",
"1.	c #45BDE7",
"2.	c #D7EBFE",
"3.	c #C6D6E4",
"4.	c #C2E2FA",
"5.	c #5CC1E9",
"6.	c #C1D0DC",
"7.	c #CFE8FD",
"8.	c #81CAEE",
"9.	c #D1E3F5",
"0.	c #BCCAD3",
"a.	c #4CBEE7",
"b.	c #C8D8E7",
"c.	c #9BD3F2",
"d.	c #C0D7E8",
"e.	c #BCCBD5",
"f.	c #B7C4CD",
"g.	c #B7C4CB",
"                                                              . +                                                               ",
"                                                            @ . # +                                                             ",
"                                                        @ @ @ . # + + $                                                         ",
"                                                      @ @ @ @ . # + + + %                                                       ",
"                                                    @ @ @ @ @ . # + + + + +                                                     ",
"                                                @ @ @ @ @ @ @ . # + + + + + + &                                                 ",
"                                            @ @ @ @ @ @ @ @ @ . # + + + + + + + + %                                             ",
"                                      @ @ @ @ @ @ @ @ @ @ @ @ . # + + + + + + + + + + + %                                       ",
"            @ @             @ @ @ @ @ @ @ @ @ @ @ @ @ @ @ @ @ . # + + + + + + + + + + + + + + % % %             % %             ",
"          @ @ @ @ @ @ @ @ @ @ @ @ @ @ @ @ @ @ @ @ @ @ @ @ @ @ . # + + + + + + + + + + + + + + + + + + + + + + + + + &           ",
"          @ @ @ @ @ @ @ @ @ @ @ @ @ @ @ @ @ @ @ @ @ @ @ @ @ @ * = + + + + + + + + + + + + + + + + + + + + + + + + + +           ",
"          @ @ @ @ @ @ @ @ @ @ @ @ @ @ @ @ @ @ @ @ @ @ @ @ - ; > , ' ) + + + + + + + + + + + + + + + + + + + + + + + +           ",
"          @ @ @ @ @ @ @ @ @ @ @ @ @ @ @ @ @ @ @ @ @ @ ! ~ { > > , ] ^ / ( + + + + + + + + + + + + + + + + + + + + + +           ",
"          @ @ @ @ @ @ @ @ @ @ @ @ @ @ @ @ @ @ @ @ _ : < > > > > , ] ] ] [ } | + + + + + + + + + + + + + + + + + + + +           ",
"          @ @ @ @ @ @ @ @ @ @ @ @ @ @ @ @ @ @ * 1 2 > > > > > > , ] ] ] ] ] 3 4 5 + + + + + + + + + + + + + + + + + +           ",
"          @ @ @ @ @ @ @ @ @ @ @ @ @ @ @ 6 7 8 > > > > > > > > > , ] ] ] ] ] ] ] ] 9 0 a b + + + + + + + + + + + + + +           ",
"          @ @ @ @ @ @ @ @ @ c d e f g { > > > > > > > > > > > > , ] ] ] ] ] ] ] ] ] ] ] h i j k a l + + + + + + + + +           ",
"          @ @ @ @ @ @ @ @ d { > > > > > > > > > > > > > > > > > , ] ] ] ] ] ] ] ] ] ] ] ] ] ] ] ] m n + + + + + + + +           ",
"          @ @ @ @ @ @ @ @ o > > > > > > > > > > > > > > > > > > , ] ] ] ] ] ] ] ] ] ] ] ] ] ] ] ] ] p + + + + + + + +           ",
"          @ @ @ @ @ @ @ @ q > > > > > > > > > > > > > > > > > > , ] ] ] ] ] ] ] ] ] ] ] ] ] ] ] ] ] r + + + + + + + +           ",
"          @ @ @ @ @ @ @ @ q > > > > > > > > > > > > > > > > > > , ] ] ] ] ] ] ] ] ] ] ] ] ] ] ] ] ] r + + + + + + + +           ",
"          @ @ @ @ @ @ @ @ q > > > > > > > > > > > > > > > > > > , ] ] ] ] ] ] ] ] ] ] ] ] ] ] ] ] ] r + + + + + + + +           ",
"          @ @ @ @ @ @ @ @ q > > > > > > > > > > > > > > > > > > , ] ] ] ] ] ] ] ] ] ] ] ] ] ] ] ] ] r + + + + + + + +           ",
"          @ @ @ @ @ @ @ @ q > > > > > > > > > > > > > > > > > > , ] ] ] ] ] ] ] ] ] ] ] ] ] ] ] ] ] r + + + + + + + +           ",
"          @ @ @ @ @ @ @ @ q > > > > > > > > > > > > > > > > > > , ] ] ] ] ] ] ] ] ] ] ] ] ] ] ] ] ] 9 + + + + + + + +           ",
"          @ @ @ @ @ @ @ @ q > > > > > > > > > > > > > > > > > > , ] ] ] ] ] ] ] ] ] ] ] ] ] ] ] ] ] s + + + + + + + +           ",
"          @ @ @ @ @ @ @ @ t > > > > > > > > > > > > > > > > > > , ] ] ] ] ] ] ] ] ] ] ] ] ] ] ] ] ] u + + + + + + + +           ",
"          @ @ @ @ @ @ @ @ v > > > > > > > > > > > > > > > > > > , ] ] ] ] ] ] ] ] ] ] ] ] ] ] ] ] ] w + + + + + + + +           ",
"          @ @ @ @ @ @ @ @ x > > > > > > > > > > > > > > > > > > , ] ] ] ] ] ] ] ] ] ] ] ] ] ] ] ] ] y + + + + + + + +           ",
"          @ @ @ @ @ @ @ @ z > > > > > > > > > > > > > > > > > > , ] ] ] ] ] ] ] ] ] ] ] ] ] ] ] ] ] A + + + + + + + %           ",
"          @ @ @ @ @ @ @ @ * > > > > > > > > > > > > > > > > > > , ] ] ] ] ] ] ] ] ] ] ] ] ] ] ] ] ] B + + + + + + + %           ",
"            @ @ @ @ @ @ @ @ C > > > > > > > > > > > > > > > > > D E E E E E E E E E E E E E E E E E F + + + + + + + $           ",
"            @ @ @ @ @ @ @ @ G H H H H H H H H H H H H H H H H H I ! ! ! ! ! ! ! ! ! ! ! ! ! ! ! ! J + + + + + + + +             ",
"            @ @ @ @ @ @ @ @ K L L L L L L L L L L L L L L L L L M @ @ @ @ @ @ @ @ @ @ @ @ @ @ @ @ N + + + + + + + +             ",
"            @ @ @ @ @ @ @ @ O L L L L L L L L L L L L L L L L L M @ @ @ @ @ @ @ @ @ @ @ @ @ @ @ @ P + + + + + + + &             ",
"            @ @ @ @ @ @ @ @ @ Q L L L L L L L L L L L L L L L L M @ @ @ @ @ @ @ @ @ @ @ @ @ @ @ R + + + + + + + + %             ",
"              @ @ @ @ @ @ @ @ S L L L L L L L L L L L L L L L L M @ @ @ @ @ @ @ @ @ @ @ @ @ @ @ T + + + + + + + +               ",
"              @ @ @ @ @ @ @ @ U V L L L L L L L L L L L L L L L M @ @ @ @ @ @ @ @ @ @ @ @ @ @ W X + + + + + + + +               ",
"              @ @ @ @ @ @ @ @ @ Y L L L L L L L L L L L L L L L M @ @ @ @ @ @ @ @ @ @ @ @ @ @ Z + + + + + + + + %               ",
"                @ @ @ @ @ @ @ @ `  .L L L L L L L L L L L L L L M @ @ @ @ @ @ @ @ @ @ @ @ @ W ..+ + + + + + + +                 ",
"                @ @ @ @ @ @ @ @ @ +.L L L L L L L L L L L L L L M @ @ @ @ @ @ @ @ @ @ @ @ @ @.+ + + + + + + + %                 ",
"                  @ @ @ @ @ @ @ @ #.$.L L L L L L L L L L L L L M @ @ @ @ @ @ @ @ @ @ @ @ %.&.+ + + + + + + +                   ",
"                  @ @ @ @ @ @ @ @ @ *.=.L L L L L L L L L L L L M @ @ @ @ @ @ @ @ @ @ @ @ -.+ + + + + + + + +                   ",
"                    @ @ @ @ @ @ @ @ @ ;.L L L L L L L L L L L L M @ @ @ @ @ @ @ @ @ @ @ >.+ + + + + + + + +                     ",
"                    @ @ @ @ @ @ @ @ @ ,.'.L L L L L L L L L L L M @ @ @ @ @ @ @ @ @ @ ).X + + + + + + + + %                     ",
"                      @ @ @ @ @ @ @ @ @ !.~.L L L L L L L L L L M @ @ @ @ @ @ @ @ @ W {.+ + + + + + + + +                       ",
"                      @ @ @ @ @ @ @ @ @ @ ].^.L L L L L L L L L M @ @ @ @ @ @ @ @ @ /.+ + + + + + + + + %                       ",
"                        @ @ @ @ @ @ @ @ @ @ (.=.L L L L L L L L M @ @ @ @ @ @ @ @ _.+ + + + + + + + + +                         ",
"                          @ @ @ @ @ @ @ @ @ @ :.<.L L L L L L L M @ @ @ @ @ @ @ @.+ + + + + + + + + +                           ",
"                          @ @ @ @ @ @ @ @ @ @ @ [.}.L L L L L L M @ @ @ @ @ @ N + + + + + + + + + + %                           ",
"                            @ @ @ @ @ @ @ @ @ @ @ |.1.L L L L L M @ @ @ @ 2.3.+ + + + + + + + + + &                             ",
"                              @ @ @ @ @ @ @ @ @ @ @ 4.5.L L L L M @ @ @ %.6.+ + + + + + + + + + +                               ",
"                                @ @ @ @ @ @ @ @ @ @ @ 7.8.L L L M @ @ 9.0.+ + + + + + + + + + +                                 ",
"                                  @ @ @ @ @ @ @ @ @ @ @ @ K a.L M W b.% + + + + + + + + + + +                                   ",
"                                    @ @ @ @ @ @ @ @ @ @ @ @ O c.d.e.+ + + + + + + + + + + +                                     ",
"                                      @ @ @ @ @ @ @ @ @ @ @ @ . # + + + + + + + + + + + +                                       ",
"                                        @ @ @ @ @ @ @ @ @ @ @ . # + + + + + + + + + + +                                         ",
"                                          @ @ @ @ @ @ @ @ @ @ . # + + + + + + + + + f.                                          ",
"                                            @ @ @ @ @ @ @ @ @ . # + + + + + + + + %                                             ",
"                                                @ @ @ @ @ @ @ . # + + + + + + + $                                               ",
"                                                  @ @ @ @ @ @ . # + + + + + %                                                   ",
"                                                      @ @ @ @ . # + + + f.                                                      ",
"                                                        @ @ @ . # + + %                                                         ",
"                                                            @ . g.%                                                             "};
