/* XPM */
static const char * const system_xpm[] = {
"64 64 211 2",
"  	c None",
". 	c #EFF2FA",
"+ 	c #EFF0F8",
"@ 	c #F2DEE5",
"# 	c #F2EFEB",
"$ 	c #F0F1F3",
"% 	c #E9F0F1",
"& 	c #E6EEEC",
"* 	c #F3F5FB",
"= 	c #F1F3FA",
"- 	c #F8B6BB",
"; 	c #FF6464",
"> 	c #F7BCC1",
", 	c #F3EEE3",
"' 	c #FFE181",
") 	c #FCE4A1",
"! 	c #EEF2F9",
"~ 	c #ACD97F",
"{ 	c #A6D771",
"] 	c #E6EFEC",
"^ 	c #F7F9FD",
"/ 	c #FFFFFF",
"( 	c #FEFEFF",
"_ 	c #F6C5CB",
": 	c #F5CAD1",
"< 	c #FEE28A",
"[ 	c #FAE7B3",
"} 	c #B6DD96",
"| 	c #ADDA82",
"1 	c #EAF0F1",
"2 	c #F5F7FC",
"3 	c #FCFDFE",
"4 	c #D7DEED",
"5 	c #D2D9E9",
"6 	c #CFD7E8",
"7 	c #D0D8E8",
"8 	c #D5DCEC",
"9 	c #D4DBEB",
"0 	c #D6DDEC",
"a 	c #CED6E7",
"b 	c #AFB9D2",
"c 	c #C7CFE2",
"d 	c #C9D1E3",
"e 	c #D1D8E9",
"f 	c #B1BAD3",
"g 	c #CBD2E4",
"h 	c #D5DCEB",
"i 	c #C8D0E2",
"j 	c #D4DCEB",
"k 	c #D5DDEC",
"l 	c #959CB3",
"m 	c #CBD3E5",
"n 	c #CAD2E4",
"o 	c #BFC8DD",
"p 	c #B7C1D8",
"q 	c #BAC3D9",
"r 	c #D2D9EA",
"s 	c #CCD3E5",
"t 	c #CCD4E5",
"u 	c #C4CDE0",
"v 	c #8D93A9",
"w 	c #83889D",
"x 	c #939AB1",
"y 	c #969DB4",
"z 	c #9BA3BA",
"A 	c #A0A8C0",
"B 	c #7B8094",
"C 	c #707487",
"D 	c #8F95AB",
"E 	c #9EA6BE",
"F 	c #99A0B8",
"G 	c #9DA5BC",
"H 	c #A7B0C9",
"I 	c #AEB8D1",
"J 	c #9EA7BE",
"K 	c #8B92A8",
"L 	c #AAB4CC",
"M 	c #ACB6CF",
"N 	c #A3ACC4",
"O 	c #989FB7",
"P 	c #9BA2BA",
"Q 	c #AAB3CC",
"R 	c #ADB7D0",
"S 	c #ABB4CD",
"T 	c #ABB5CE",
"U 	c #AFB8D1",
"V 	c #A4ADC5",
"W 	c #969EB5",
"X 	c #D3DAEA",
"Y 	c #D1D8E8",
"Z 	c #A2ABC3",
"` 	c #A0A9C0",
" .	c #99A0B7",
"..	c #9BA3BB",
"+.	c #CFD6E7",
"@.	c #B2BCD4",
"#.	c #CED5E7",
"$.	c #A6AFC7",
"%.	c #ACB5CE",
"&.	c #949BB2",
"*.	c #A3ABC3",
"=.	c #B0BAD3",
"-.	c #B3BDD5",
";.	c #A5AEC6",
">.	c #A6B0C8",
",.	c #A2AABF",
"'.	c #B4BCD0",
").	c #BFC7DB",
"!.	c #C6CEE1",
"~.	c #C3CBDE",
"{.	c #BCC4D8",
"].	c #AFB6CB",
"^.	c #9AA1B8",
"/.	c #9AA2BA",
"(.	c #9FA8BF",
"_.	c #9EA5BB",
":.	c #BCC4D7",
"<.	c #B1B8CD",
"[.	c #979EB4",
"}.	c #98A0B7",
"|.	c #ACB6CE",
"1.	c #ADB6CF",
"2.	c #979FB6",
"3.	c #AEB8D0",
"4.	c #A8B2CA",
"5.	c #A6ADC3",
"6.	c #C5CDE0",
"7.	c #BEC5D9",
"8.	c #9AA1B7",
"9.	c #9AA1B9",
"0.	c #A6AFC8",
"a.	c #BCC5DA",
"b.	c #B8C2D8",
"c.	c #C0C9DD",
"d.	c #D2DAEA",
"e.	c #D0D7E8",
"f.	c #AEB7D0",
"g.	c #989FB6",
"h.	c #A4ABC0",
"i.	c #BFC6DA",
"j.	c #979EB5",
"k.	c #A1A9C1",
"l.	c #C8D0E3",
"m.	c #A2AAC2",
"n.	c #C4CCE0",
"o.	c #CFD7E7",
"p.	c #B3BACF",
"q.	c #9FA6BC",
"r.	c #A8B1C9",
"s.	c #B5BCD0",
"t.	c #CCD4E6",
"u.	c #D1D9E9",
"v.	c #A5ACC2",
"w.	c #C2CADE",
"x.	c #ABB5CD",
"y.	c #9197AE",
"z.	c #AFB7CB",
"A.	c #9BA2B8",
"B.	c #949BB1",
"C.	c #B6BFD7",
"D.	c #B3BCD4",
"E.	c #CDD5E6",
"F.	c #9299AF",
"G.	c #717588",
"H.	c #74788B",
"I.	c #B3BBCF",
"J.	c #9FA7BD",
"K.	c #9AA2B9",
"L.	c #7D8296",
"M.	c #75798D",
"N.	c #7C8195",
"O.	c #A5AEC7",
"P.	c #717689",
"Q.	c #82889D",
"R.	c #9EA6BD",
"S.	c #AEB6CA",
"T.	c #99A0B6",
"U.	c #A8B1CA",
"V.	c #A2A9BF",
"W.	c #C0C8DB",
"X.	c #A9B3CB",
"Y.	c #C3CADE",
"Z.	c #99A1B8",
"`.	c #ADB4C9",
" +	c #BFC7DA",
".+	c #ADB5CA",
"++	c #9DA4BA",
"@+	c #B7BFD3",
"#+	c #9DA5BB",
"$+	c #C1C8DC",
"%+	c #9DA5BD",
"&+	c #9CA3BB",
"*+	c #969DB5",
"=+	c #B1B9CD",
"-+	c #A6ADC2",
";+	c #9CA4BB",
">+	c #AAB1C6",
",+	c #B5BCD1",
"'+	c #BDC4D8",
")+	c #BAC2D6",
"!+	c #A3AAC0",
"~+	c #A1AAC2",
"{+	c #979EB6",
"]+	c #9FA7BE",
"^+	c #7C8296",
"/+	c #A7B0C8",
"(+	c #959DB4",
"_+	c #8C92A8",
":+	c #9198AF",
"<+	c #8A90A6",
"[+	c #959CB2",
"                                                                                                                                ",
"                                                                                                                                ",
"                                                                                                                                ",
"                                                                                                                                ",
"      . . . . . . . . . . . . . . . . . . . . . . . . . . . . . . . . . . . . . . . . . . . . . . . . . . .                     ",
"  . . . . . . . . . . . . . . . . . . . . . . . . . . . . . . . . . . . . . . . . . . . . . . . . . . . . . .                   ",
". . . . . . . . . . . . . . . . . . . . . . . . . . . . . . . . . . . . . . . . . . . . . . . . . . . . . . . .                 ",
". . . + @ + . # $ . % & . . . * * * * * * * * * * * * * * * * * * * * * * * * * * * * * * * * * * * * * = . . .                 ",
". . . - ; > , ' ) ! ~ { ] . ^ / / / / / / / / / / / / / / / / / / / / / / / / / / / / / / / / / / / / / ( . . .                 ",
". . . _ ; : # < [ . } | 1 . 2 / / / / / / / / / / / / / / / / / / / / / / / / / / / / / / / / / / / / / 3 . . .                 ",
". . . . . . . . . . . . . . . . . . . . . . . . . . . . . . . . . . . . . . . . . . . . . . . . . . . . . . . .                 ",
". . . . . . . . . . . . . . . . . . . . . . . . . . . . . . . . . . . . . . . . . . . . . . . . . . . . . . . .                 ",
". . . . . . . . . . . . . . . . . . . . . . . . . . . . . . . . . . . . . . . . . . . . . . . . . . . . . . . .                 ",
". . .                                                                                                     . . .                 ",
". .                                                                                                         . .                 ",
". .       4 4 4 4 4 4 4 4 4 4 4 4 4 4 4 4 4 4 4 4 4 4 4 4 4 4 4 4 4 4 4 4 4 4 4 4 4 4 4 4 4 4 4 4 4 4       . .                 ",
". .     4 4 4 4 4 4 4 4 4 4 4 4 4 4 4 4 4 4 4 4 4 4 4 4 4 4 4 4 4 4 4 4 4 4 4 4 4 4 4 4 4 4 4 4 4 4 4 4     . .                 ",
". .     4 4 4 4 4 4 4 4 4 4 4 4 4 4 4 4 4 4 4 4 4 4 4 4 4 4 4 4 4 4 4 4 4 4 4 4 4 4 4 4 4 4 4 4 4 4 4 4     . .                 ",
". .     4 4 4 5 6 6 6 6 6 6 7 4 4 4 8 9 9 9 9 9 9 9 9 9 9 9 0 4 4 4 4 4 4 4 4 4 4 4 4 4 4 4 4 4 4 4 4 4     . .                 ",
". .     4 4 a b b b b b b b b c 4 9 c c c c c c c c c c c c d 4 4 4 4 4 4 4 4 4 4 4 4 4 4 4 4 4 4 4 4 4     . .                 ",
". .     4 4 e f b b b b b b b g 4 h i c c c c c c c c c c c g 4 4 4 4 4 4 4 4 4 4                   4 4     . .                 ",
". .     4 4 4 0 j j j j j j k 4 4 4 4 0 0 0 0 0 0 0 0 0 0 0 4 4 4 4 4 4 4                                   . .                 ",
". .     4 4 4 4 4 4 4 4 4 4 4 4 4 4 4 4 4 4 4 4 4 4 4 4 4 4 4 4 4 4 4                     l                   .                 ",
". .     4 4 0 m n n n n n n n n n 5 4 4 o p p q 9 4 4 4 4 4 4 4 4 4             l l l l l l l l l l l                           ",
". .     4 4 r c c c c c c c c c c s 4 9 b b b b g 4 4 4 4 4 4 4         l     l l l l l l l l l l l l l                         ",
". .     4 4 4 e 6 6 6 6 6 6 6 6 6 h 4 4 t u u c 0 4 4 4 4 4 4         l l l l l l l l l v w x l l l l l l l l                   ",
". .     4 4 4 4 4 4 4 4 4 4 4 4 4 4 4 4 4 4 4 4 4 4 4 4 4 4           l l l l l l y z A B C D E F l l l l l l l                 ",
". .     4 4 4 4 4 4 4 4 4 4 4 4 4 4 4 4 4 4 4 4 4 4 4 4 4       l l l l l l l G H I b b J K L b b M N O l l l l l l             ",
". .     4 4 4 4 4 4 4 4 4 4 4 4 4 4 4 4 4 4 4 4 4 4 4 4         l l l l l P Q b b b b R S L T U b b b U V W l l l l l           ",
". .     4 4 4 X Y Y 9 4 4 4 j 9 9 9 9 9 9 9 k 4 4 4 4 4         l l l l Z b b b L `  .l l l l l ..V R b b M P l l l l           ",
". .     4 4 +.b b b @.h 4 #.c c c c c c c c c 8 4 4 4         l l l l $.b b %.G l l l l &.&.l l l l y *.I b I G l l l l         ",
". .     4 4 7 =.b b -.8 4 a c c c c c c c c i 8 4 4 4     l l l l l ;.b b >.y l l ,.'.).!.c ~.{.].^.l l /.M b I ..l l l l l     ",
". .     4 4 4 h 5 5 0 4 4 4 8 h h h h h h h 0 4 4 4       l l l l (.b b ;.l l _.:.c c c c c c c c !.<.[.l }.|.b 1.2.l l l l     ",
". .     4 4 4 4 4 4 4 4 4 4 4 4 4 4 4 4 4 4 4 4 4 4       l l l 2.3.b 4.l l 5.6.c c c         c c c c 7.8.l 9.I b 0.l l l       ",
". .     4 4 9 a.b.b.c.4 4 d.g n n n g e.4 4 4 4 4         l l l ;.b f.g.l h.!.c c                   c c i.j.l k.b b /.l l l     ",
". .     4 4 m b b b b X 4 t c c c c c l.4 4 4 4 4       l l l j.I b m.l  .~.c c                       c c '.l l %.b 0.l l l l   ",
". .     4 4 0 c n.n.n 4 4 h 6 o.o.o.o.X 4 4 4 4 4     l l l l A b I j.l p.c c                           c c q.l k.b I y l l l   ",
". .     4 4 4 4 4 4 4 4 4 4 4 4 4 4 4 4 4 4 4 4 4       l l l H b r.l j.6.c                             c c s.l g.b b G l l l   ",
". .     4 4 4 t.l.l.e.4 4 0 u.e e e e 8 4 4 4 4 4       l l l |.b m.l v.c c                               c w.l l x.b Z l l l   ",
". .     4 4 t.b b b =.9 4 t.c c c c c d 4 4 4 4         l l y.Q b G l z.c c                               c c A.l H b G B.l l   ",
". .     4 4 X C.D.D.q 0 4 e d l.l.l.l.E.4 4 4 4       l l F.G.H.M P l I.c c                               c c J.l ;.K.C L.l l l ",
". .     4 4 4 4 4 4 4 4 4 4 4 4 4 4 4 4 4 4 4 4       l l x M.N.I z l p.c c                               c c q.l O.` P.Q.l l l ",
". .     4 4 4 4 4 4 4 4 4 4 4 4 4 4 4 4 4 4 4 4         l l l b b R.l S.c c                               c c T.l U.b ;.l l l   ",
". .     4 4 4 4 4 4 4 4 4 4 4 4 4 4 4 4 4 4 4 4 4       l l l x.b Z l V.c c                               c W.l l M b m.l l l   ",
". .       4 4 4 4 4 4 4 4 4 4 4 4 4 4 4 4 4 4 4 4       l l l $.b X.l l Y.c c                           c c <.l Z.b b ..l l l   ",
". .                                                   l l l l E b b }.l `.c c                         c c 6.^.l N b R l l l l   ",
". .                                                     l l l y R b ;.l y  +c c                       c c .+l W R b V l l l l   ",
". . . . . . . . . . . . . . . . . . . . . . . . .         l l l m.b b K.l ++~.c c                 c c c @+l l V b I O l l l     ",
"  . . . . . . . . . . . . . . . . . . . . . . . . .       l l l y |.b T j.l #+$+c c c c     c c c c c '.y l %+b b N l l l       ",
"    . . . . . . . . . . . . . . . . . . . . . . . .       l l l l &+b b Q *+l j.=+6.c c c c c c c W.-+l l ;+I b L y l l l l     ",
"                                                          l l l l l A b b S Z.l l T.>+,+'+7.)+=+!+l l l A I b M }.l l l l       ",
"                                                              l l l l ` b b I *.j.l l l l l l l l l K.4.b b %.F l l l           ",
"                                                                l l l l G 1.b b I $.J ^.y l 2.P ~+X.b b b U.{+l l l l           ",
"                                                                l l l l l j.V I b b b b b b b b b b b %.]+l l l l l l           ",
"                                                                    l l l l l 2.~+X.U b B.^+$.b R /+R.l l l l l l               ",
"                                                                      l l l l l l l (+9.B C _+}.l l l l l l l                   ",
"                                                                      l l l l l l l l l :+<+[+l l l l l l l l                   ",
"                                                                              l l l l l l l l l l l l                           ",
"                                                                                l l     l l l     l l                           ",
"                                                                                          l                                     ",
"                                                                                                                                ",
"                                                                                                                                ",
"                                                                                                                                ",
"                                                                                                                                "};
