/* XPM */
static char *abase_warn_xpm[] = {
/* columns rows colors chars-per-pixel */
"9 9 31 1",
"X c Black",
"q c #009800",
"O c #4E004E",
"% c #4A004A",
"# c #6A006A",
"3 c #496A49",
"+ c #656565",
"9 c #2AA82A",
"o c #3C003C",
"7 c #224822",
"6 c #9A9A9A",
"= c #166616",
"  c #C0C0C0",
"2 c #2DA32D",
". c #505050",
": c #5E005E",
"; c #6C256C",
"0 c #533153",
", c #2B2B2B",
"* c #858585",
"1 c #00FF00",
"8 c #00D600",
"@ c #4C214C",
"& c #800080",
"- c #2D622D",
"< c #00CD00",
"$ c #252525",
"> c #3E163E",
"4 c #5F3E5F",
"5 c #670067",
"w c #00C400",
/* pixels */
"   .XX.  ",
"   .oo.  ",
"   .OO.  ",
"  +@##@+ ",
"  $%&&%$ ",
" *=-;&:>*",
" ,<12345,",
"678111907",
"Xqwwwwwwq"
};
