/* XPM */
static const char *alias_xpm[] = {
/* columns rows colors chars-per-pixel */
"9 9 20 1",
"X c Black",
"o c #787878",
"& c #FFFFFF",
"< c #9E9E9E",
"1 c #C4C4C4",
"- c #BDBDBD",
"# c #D4D4D4",
": c #CDCDCD",
"+ c #656565",
", c #222222",
"> c #9A9A9A",
"= c #666666",
"  c #C0C0C0",
". c #505050",
"; c #2B2B2B",
"* c #858585",
"% c #949494",
"O c #9C9C9C",
"@ c #777777",
"$ c #252525",
/* pixels */
"   .XX.  ",
"   .oo.  ",
"   .OO.  ",
"  +@##@+ ",
"  $%&&%$ ",
" *=-&&-=*",
" ;:&&&&:;",
">,:&&&&:,",
"XX<1111<X"
};
