/* XPM */
static char *node_xpm[] = {
/* columns rows colors chars-per-pixel */
"9 9 3 1",
". c Black",
"X c #FFFF00",
"  c #C0C0C0",
/* pixels */
"         ",
"         ",
"    ..   ",
"   XXXX  ",
"  .XXXX. ",
"  .XXXX. ",
"   XXXX  ",
"    ..   ",
"         "
};
