/* XPM */
static const char *pwsafe8[] = {
/* columns rows colors chars-per-pixel */
"8 8 22 1",
"  c #76571DA42167",
". c #5F6036383B08",
"X c #5F833B073B04",
"o c #7FE0256F2569",
"O c #7A1E49D44B79",
"+ c #824D1ED51ED3",
"@ c #94FF2E1C2E18",
"# c #854437433803",
"$ c #82463F3C3F50",
"% c #A1A42EF330E4",
"& c #AD563943396A",
"* c #931C47104798",
"= c #931D4AF44B64",
"- c #964049774B0C",
"; c #94194BDF5088",
": c #8AE258625862",
"> c #9BF1555F555F",
", c #A4494A554A93",
"< c #80A160D460DA",
"1 c #AC2376B97651",
"2 c #B48E7BC77D07",
"3 c None",
/* pixels */
"<3333333",
",2333333",
"$-333333",
":3333333",
"@*333333",
"X33.;133",
">333 &=3",
"o#333+%O"
};
