/* XPM */
static const char *sbase_exp_xpm[] = {
/* columns rows colors chars-per-pixel */
"9 9 11 1",
"o c #696969",
"@ c #0F860F",
". c #BEBEBE",
"X c #494A49",
"$ c #00D100",
"# c #00EB00",
"  c None",
"O c #108910",
"% c #00FF00",
"+ c #424242",
"& c #4A4A4A",
/* pixels */
"   .XX.  ",
"   oOOo  ",
"  +@##@+ ",
" o@$%%$@o",
"&O#%%%%#O",
"&O#%%%%#O",
" o@$%%$@o",
"  +@##@+ ",
"   oOOo  "
};
