/* XPM */
static const char *sbase_warn_xpm[] = {
/* columns rows colors chars-per-pixel */
"9 9 23 1",
/* colors */
"  c None",
"o c #696969",
"< c #4F5F4F",
"; c #4D104D",
"2 c #1CC41C",
"1 c #319B31",
"@ c #0F860F",
"4 c #4A3D4A",
". c #BEBEBE",
"X c #494A49",
"3 c #680068",
"% c #493E49",
"$ c #4B0F4B",
"= c #00D100",
": c #750075",
"# c #00EB00",
"O c #108910",
"* c #00FF00",
"+ c #424242",
"> c #800080",
"- c #4A4A4A",
"& c #1CC51C",
", c #319C31",
/* pixels */
"   .XX.  ",
"   oOOo  ",
"  +@##@+ ",
" o$%&*=@o",
"-;:>,**#O",
"-;:><12#O",
" o$3>>4@o",
"  +$::$+ ",
"   o;;o  "
};
