/* XPM */
static const char *shortcut_xpm[] = {
/* columns rows colors chars-per-pixel */
"9 9 35 1",
"* c Black",
"8 c #2D2D2D",
"1 c #626262",
"< c #808080",
": c #E9E9E9",
"= c #727272",
"y c #989898",
", c #C5C5C5",
"% c #555555",
"q c #646464",
"o c #BEBEBE",
"O c #121212",
"e c #212121",
"+ c #474747",
"r c #656565",
"t c #838383",
"; c #BFBFBF",
"5 c #313131",
"9 c #404040",
"X c #4F4F4F",
"0 c #8B8B8B",
"6 c #2A2A2A",
"4 c #666666",
". c #757575",
"> c #848484",
"- c #939393",
"  c #C0C0C0",
"7 c #494949",
"2 c #A3A3A3",
"3 c #DFDFDF",
"# c #242424",
"w c #6F6F6F",
"$ c #161616",
"@ c #252525",
"& c #ACACAC",
/* pixels */
"     .Xo ",
"     .O+ ",
"@####$%&+",
"*=----;:>",
"*,<111234",
"*,567890q",
"*,5w .er ",
"*,5w tr  ",
"*y@w     "
};
