/* XPM */
static const char * const add_xpm[] = {
/* columns rows colors chars-per-pixel */
"16 16 174 2",
/* colors */
"  	c None",
". 	c #447DC1",
"+ 	c #4D8BC8",
"@ 	c #4F8CC8",
"# 	c #4F8DC8",
"$ 	c #4F8CC9",
"% 	c #4F8BC7",
"& 	c #4B89C5",
"* 	c #3B76C4",
"= 	c #3C68B3",
"- 	c #4985C4",
"; 	c #ECF2F7",
"> 	c #EEF4F8",
", 	c #EDF4F8",
"' 	c #EDF3F8",
") 	c #ECF2F8",
"! 	c #D7E6F2",
"~ 	c #7DB2E2",
"{ 	c #6594DB",
"] 	c #3B68B3",
"^ 	c #4B88C5",
"/ 	c #F2F6FA",
"( 	c #C7E0FA",
"_ 	c #C9E1FB",
": 	c #C9E2FB",
"< 	c #C8E0FB",
"[ 	c #C5DFF9",
"} 	c #C1DBF8",
"| 	c #B8D6F4",
"1 	c #F8FBFF",
"2 	c #B4D8F6",
"3 	c #7DB0E1",
"4 	c #6492DB",
"5 	c #3E6BB4",
"6 	c #4C89C6",
"7 	c #F1F5F9",
"8 	c #CDE3FC",
"9 	c #CEE3FB",
"0 	c #CDE3FB",
"a 	c #CBE2FB",
"b 	c #C8E0F9",
"c 	c #C2DCF8",
"d 	c #BAD6F5",
"e 	c #F8FBFD",
"f 	c #CDE6FC",
"g 	c #C9E5FA",
"h 	c #84B6E2",
"i 	c #4279BF",
"j 	c #4B89C6",
"k 	c #CFE3FC",
"l 	c #D0E4FB",
"m 	c #CFE4FC",
"n 	c #CAE1FA",
"o 	c #C4DDF9",
"p 	c #BCD9F6",
"q 	c #DFE9F4",
"r 	c #F3F7FB",
"s 	c #E9EFF5",
"t 	c #457EC2",
"u 	c #F0F4F9",
"v 	c #D3E6FC",
"w 	c #D4E6FC",
"x 	c #D3E7FD",
"y 	c #D1E4FC",
"z 	c #C8E0FA",
"A 	c #BBD6F5",
"B 	c #B5D4F3",
"C 	c #B3D2F1",
"D 	c #F0F4F8",
"E 	c #4682C4",
"F 	c #4A88C6",
"G 	c #EFF4F9",
"H 	c #D7E7FE",
"I 	c #D6E7FD",
"J 	c #D5E7FD",
"K 	c #D4E6FD",
"L 	c #D2E6FC",
"M 	c #CCE1FB",
"N 	c #C7DFFA",
"O 	c #BDDAF6",
"P 	c #BBD8F6",
"Q 	c #EFF4FA",
"R 	c #4683C6",
"S 	c #4988C6",
"T 	c #EDF4F9",
"U 	c #D8E8FE",
"V 	c #D7E8FE",
"W 	c #D6E7FE",
"X 	c #D3E5FD",
"Y 	c #C3DDF9",
"Z 	c #EDF4FA",
"` 	c #4582C6",
" .	c #4784C6",
"..	c #ECF3F9",
"+.	c #D6E8FE",
"@.	c #CCE3FB",
"#.	c #C6DFFA",
"$.	c #EAF2FA",
"%.	c #4280C6",
"&.	c #4582C5",
"*.	c #EBF2F8",
"=.	c #D5E6FD",
"-.	c #9FBCAD",
";.	c #739860",
">.	c #668E4F",
",.	c #618A4A",
"'.	c #447A7A",
").	c #4280C5",
"!.	c #E8F1F8",
"~.	c #D5E5FE",
"{.	c #D3E5FC",
"].	c #9BB8A6",
"^.	c #81AB61",
"/.	c #B4D495",
"(.	c #D0E6BA",
"_.	c #8FBB6A",
":.	c #578F2D",
"<.	c #376B19",
"[.	c #407CC4",
"}.	c #E6F0F7",
"|.	c #55B4F8",
"1.	c #56B4F7",
"2.	c #54B5F7",
"3.	c #53B4F8",
"4.	c #53B2F8",
"5.	c #52B3F7",
"6.	c #5D884A",
"7.	c #B1D390",
"8.	c #B1D692",
"9.	c #FFFFFF",
"0.	c #8CBC65",
"a.	c #8FBC67",
"b.	c #3C78C1",
"c.	c #E3EDF7",
"d.	c #6EC2FD",
"e.	c #A0D8FF",
"f.	c #9ED7FF",
"g.	c #9BD6FF",
"h.	c #98D7FF",
"i.	c #96D6FF",
"j.	c #4C7B31",
"k.	c #B6D49C",
"l.	c #B2D295",
"m.	c #3871BF",
"n.	c #DFEBF5",
"o.	c #68BFFD",
"p.	c #67BDFC",
"q.	c #65BEFB",
"r.	c #64BEFC",
"s.	c #62BDFC",
"t.	c #3A6F22",
"u.	c #8BBA62",
"v.	c #87BA60",
"w.	c #87B960",
"x.	c #3369BC",
"y.	c #EAF1F8",
"z.	c #DFECF7",
"A.	c #DEEBF6",
"B.	c #DEEAF6",
"C.	c #DCEAF6",
"D.	c #EBF3FA",
"E.	c #8EAD86",
"F.	c #538C28",
"G.	c #8DBA64",
"H.	c #346ABB",
"I.	c #3065BA",
"J.	c #3166BB",
"K.	c #3066BA",
"L.	c #2F65BA",
"M.	c #2E65B9",
"N.	c #336862",
"O.	c #376B21",
"P.	c #376B1F",
"Q.	c #356941",
/* pixles */
"  . + @ @ @ @ # $ % & * =       ",
"  - ; > , ' ' ' ) ; ! ~ { ]     ",
"  ^ / ( _ : < [ } | 1 2 3 4 5   ",
"  6 7 8 9 0 a b c d e f g h i   ",
"  j 7 k l m 8 n o p q ; r s t   ",
"  j u v w x y 0 z c A B C D E   ",
"  F G H I J K L M N c O P Q R   ",
"  S T U U V W X y M ( Y c Z `   ",
"   ...+.V I I J X l @.N #.$.%.  ",
"  &.*.W I I I =.X y -.;.>.,.'.  ",
"  ).!.~.X X {.{.y ].^./.(._.:.<.",
"  [.}.|.1.2.3.4.5.6.7.8.9.0.a.<.",
"  b.c.d.e.f.g.h.i.j.k.9.9.9.l.<.",
"  m.n.o.p.q.r.r.s.t.u.v.9.w.a.<.",
"  x.y.z.A.B.C.C.D.E.F.G.l.G.F.<.",
"  H.I.J.K.K.K.I.L.M.N.O.<.P.Q.  "};
