/* XPM */
static const char * const addgroup_xpm[] = {
/* columns rows colors chars-per-pixel */
"16 16 123 2",
/* colors */
"  	c None",
". 	c #fbf928",
"X 	c #7c541a",
"o 	c #d39725",
"O 	c #e4a51b",
"+ 	c #dea021",
"@ 	c #9f6f22",
"# 	c #4e3722",
"$ 	c #6f4a1c",
"% 	c #dfa321",
"& 	c #e5a619",
"* 	c #996b23",
"= 	c #9d5f15",
"- 	c #e5ae34",
"; 	c #e6b865",
": 	c #f6c88d",
"> 	c #e6ad3b",
", 	c #e5a71d",
"< 	c #d49723",
"1 	c #96540f",
"2 	c #e7d0b8",
"3 	c #f1c596",
"4 	c #fbd0a1",
"5 	c #f3c696",
"6 	c #e4cfb6",
"7 	c #bf8331",
"8 	c #524a56",
"9 	c #d6a472",
"0 	c #f2d1ac",
"q 	c #fdd7ae",
"w 	c #f5d4b0",
"e 	c #e7c092",
"r 	c #825e40",
"t 	c #664125",
"y 	c #956142",
"u 	c #925d41",
"i 	c #966043",
"p 	c #69572d",
"a 	c #92776b",
"s 	c #e7ad73",
"d 	c #e3b181",
"f 	c #e7b27d",
"g 	c #c4986c",
"h 	c #2e652b",
"j 	c #35752c",
"k 	c #5f3b24",
"l 	c #956144",
"z 	c #905b41",
"x 	c #fff200",
"c 	c #7f8c75",
"v 	c #b1d5a4",
"b 	c #85bf82",
"n 	c #2d7e27",
"m 	c #307326",
"M 	c #8f5732",
"N 	c #9a6950",
"B 	c #ae8063",
"V 	c #d6a67c",
"C 	c #a57355",
"Z 	c #925d43",
"A 	c #8ecd71",
"S 	c #88cd72",
"D 	c #abd89d",
"F 	c #70b06d",
"G 	c #396935",
"H 	c #945723",
"J 	c #dbbfa7",
"K 	c #79c96a",
"L 	c #619660",
"P 	c #de964e",
"I 	c #74b46b",
"U 	c #5a8f5a",
"Y 	c #e69b4c",
"T 	c #023391",
"R 	c #94796d",
"E 	c #3e843b",
"W 	c #756680",
"Q 	c #de9f59",
"! 	c #013ba8",
"~ 	c #5273cd",
"^ 	c #c0e8ff",
"/ 	c #86aaad",
"( 	c #7d9ea7",
") 	c #7592a0",
"_ 	c #9ccaf7",
"` 	c #214a98",
"' 	c #556fb4",
"] 	c #b2d7fd",
"[ 	c #84d6ff",
"{ 	c #65caff",
"} 	c #5ec0ff",
"| 	c #56b4ff",
" .	c #57a7ff",
"..	c #d28434",
"X.	c #ccac93",
"o.	c #73afe7",
"O.	c #5fb8ff",
"+.	c #5fb0fe",
"@.	c #5ba7fe",
"#.	c #55a0fd",
"$.	c #4d97ff",
"%.	c #4d93fd",
"&.	c #a29fb3",
"*.	c #df913f",
"=.	c #ac8571",
"-.	c #597ec8",
";.	c #66baff",
":.	c #61b7ff",
">.	c #5eb0ff",
",.	c #5db2ff",
"<.	c #5cb4ff",
"1.	c #5788de",
"2.	c #7e7387",
"3.	c #d9a367",
"4.	c #b68252",
"5.	c #3755a4",
"6.	c #3470cb",
"7.	c #417ed2",
"8.	c #417ed3",
"9.	c #417cd1",
"0.	c #3f7acd",
"q.	c #2348a9",
"w.	c #937464",
/* pixels */
"            .   X o O + @ #     ",
"            . $ % & & & & *     ",
"          .   = - ; : > , <     ",
"          .   1 2 3 4 5 6 7     ",
"        .     8 9 0 q w e r     ",
"      t y u i p a s d f g h j   ",
"  . k l z z z z x x x c v b n m ",
"  . M N B V C Z x x x A S D F G ",
".   H J 3 4 x x x x x x x K L P ",
"    8 9 0 q x x x x x x x I U Y ",
"    T R s d x x x x x x x E W Q ",
"  ! ~ ^ / ( ) _ x x x         . ",
"` ' ] [ { } |  .x x x         . ",
"..X.o.O.+.@.#.$.%.&.P       .   ",
"*.=.-.;.:.>.,.<.1.2.Y       .   ",
"3.4.5.6.7.8.9.0.q.w.Q     .     "};
