/* XPM */
static const char * const autotype_disabled_xpm[] = {
/* columns rows colors chars-per-pixel */
"16 16 71 1",
/* colors */
" 	g None",
".	g #D9D9D9",
"+	g #D4D4D4",
"@	g #CFCFCF",
"#	g #C8C8C8",
"$	g #B7B7B7",
"%	g #AEAEAE",
"&	g #A4A4A4",
"*	g #9B9B9B",
"=	g #919191",
"-	g #878787",
";	g #D0D0D0",
">	g #C9C9C9",
",	g #C2C2C2",
"'	g #C4C4C4",
")	g #BCBCBC",
"!	g #B3B3B3",
"~	g #B8B8B8",
"{	g #B0B0B0",
"]	g #D6D6D6",
"^	g #D3D3D3",
"/	g #CCCCCC",
"(	g #BFBFBF",
"_	g #BBBBBB",
":	g #B6B6B6",
"<	g #B2B2B2",
"[	g #ACACAC",
"}	g #A8A8A8",
"|	g #E0E0E0",
"1	g #DFDFDF",
"2	g #DDDDDD",
"3	g #DCDCDC",
"4	g #DBDBDB",
"5	g #D8D8D8",
"6	g #D5D5D5",
"7	g #D1D1D1",
"8	g #A2A2A2",
"9	g #FCFCFC",
"0	g #CACACA",
"a	g #C6C6C6",
"b	g #C1C1C1",
"c	g #B5B5B5",
"d	g #F3F3F3",
"e	g #9C9C9C",
"f	g #D7D7D7",
"g	g #C7C7C7",
"h	g #B9B9B9",
"i	g #979797",
"j	g #ADADAD",
"k	g #C5C5C5",
"l	g #939393",
"m	g #DADADA",
"n	g #BABABA",
"o	g #B4B4B4",
"p	g #B1B1B1",
"q	g #AAAAAA",
"r	g #A7A7A7",
"s	g #9F9F9F",
"t	g #C3C3C3",
"u	g #8F8F8F",
"v	g #CBCBCB",
"w	g #9D9D9D",
"x	g #8C8C8C",
"y	g #D2D2D2",
"z	g #CECECE",
"A	g #8A8A8A",
"B	g #A3A3A3",
"C	g #9A9A9A",
"D	g #969696",
"E	g #909090",
"F	g #8D8D8D",
/* pixels */
"                ",
"                ",
"  .+@# $%&*=-   ",
"  ;>,           ",
"  ')!           ",
"..~{]^;/#'(_:<[}",
".|||112345]6^7@8",
".|909a9b9_9c9d/e",
"f1>g'b()h:!{69>i",
"^299(9h9!9j999kl",
"@m )n$opjqr&8stu",
"v]9$99999999w9bx",
"k^y;z/0#aktbb (A",
"(_:<[}BsCDlEFAAA",
"                ",
"                "};
