/* XPM */
static const char * const browseurlplus_disabled_xpm[] = {
/* columns rows colors chars-per-pixel */
"16 16 104 2",
/* colors */
"   c None",
" . c #a0a0a0",
" + c #b0b0b0",
" @ c #909090",
" # c #808080",
" $ c #bababa",
" % c #ededed",
" & c #757575",
" * c #a7a7a7",
" = c #747474",
" - c #adadad",
" ; c #7f7f7f",
" > c #818181",
" , c #5c5c5c",
" ' c #595959",
" ) c #c6c6c6",
" ! c #c8c8c8",
" ~ c #888888",
" { c #aeaeae",
" ] c #bfbfbf",
" ^ c #c1c1c1",
" / c #9b9b9b",
" ( c #dedede",
" _ c #e2e2e2",
" : c #d4d4d4",
" < c #b7b7b7",
" [ c #dddddd",
" } c #b3b3b3",
" | c #bcbcbc",
" 1 c #bdbdbd",
" 2 c #c4c4c4",
" 3 c #c3c3c3",
" 4 c #d5d5d5",
" 5 c #565656",
" 6 c #cdcdcd",
" 7 c #cacaca",
" 8 c #a3a3a3",
" 9 c #7b7b7b",
" 0 c #5f5f5f",
" a c #dbdbdb",
" b c #7a7a7a",
" c c #dadada",
" d c #d7d7d7",
" e c #9f9f9f",
" f c #4f4f4f",
" g c #858585",
" h c #d8d8d8",
" i c #868686",
" j c #d3d3d3",
" k c #afafaf",
" l c #4d4d4d",
" m c #e6e6e6",
" n c #cfcfcf",
" o c #bbbbbb",
" p c #848484",
" q c #939393",
" r c #656565",
" s c #c5c5c5",
" t c #6c6c6c",
" u c #c2c2c2",
" v c #c9c9c9",
" w c #535353",
" x c #959595",
" y c #dcdcdc",
" z c #525252",
" A c #696969",
" B c #e8e8e8",
" C c #a8a8a8",
" D c #e4e4e4",
" E c #9a9a9a",
" F c #cccccc",
" G c #878787",
" H c #b5b5b5",
" I c #545454",
" J c #d9d9d9",
" K c #a5a5a5",
" L c #ababab",
" M c #a6a6a6",
" N c #898989",
" O c #6a6a6a",
" P c #9d9d9d",
" Q c #929292",
" R c #b9b9b9",
" S c #b1b1b1",
" T c #b6b6b6",
" U c #616161",
" V c #b4b4b4",
" W c #d1d1d1",
" X c #838383",
" Y c #a1a1a1",
" Z c #787878",
" ` c #e5e5e5",
".  c #636363",
".. c #a4a4a4",
".+ c #b2b2b2",
".@ c #6f6f6f",
".# c #8c8c8c",
".$ c #555555",
".% c #6e6e6e",
".& c #9e9e9e",
".* c #a2a2a2",
".= c #c7c7c7",
".- c #969696",
".; c #d2d2d2",
*/ pixels */
"         e e e e e e e P        ",
"     e e e n y j F ! s E.- Q    ",
"   e e ] % D _ n W s u 3 S.# G  ",
"   e 1 m ` D ( 7 n | < }.= { >  ",
" e e B d 4 h : ) ^.* . } u J b &",
" e 7 y.; 4 [ | R . 8 S V S o T.@",
" e (.= s c [ K.& + -.* Y.. Y 6 A",
" e D H k 7 F x K ] { ~ > @ @ h. ",
".& D - L ! x / N M } p E Z N d 0",
" / a T   V @ N G X ; x o @ t v ,",
".- 3 7 K V q i ] 1 o $ * H ~ U ,",
" @.# [ P P Y > 1.. Y.& E P { # 5",
"   i C s K - 9 $ < V.+ e { ~.$ f",
"   ; b . h ^ &.% O r # - g I '  ",
"     =.@ O V H H < 2 U X w '    ",
"         r U 0 , , , I z l      ",
};