/* XPM */
static const char * const browseurlplus_xpm[] = {
/* columns rows colors chars-per-pixel */
"16 16 200 2",
/* colors */
"  	c None",
". 	c #6EC461",
"+ 	c #6DC260",
"@ 	c #BBE1A5",
"# 	c #CCEABA",
"$ 	c #BEE0C5",
"% 	c #B4DAC5",
"& 	c #B0D7BD",
"* 	c #ACD7A6",
"= 	c #69BE5D",
"- 	c #66BA5A",
"; 	c #62B657",
"> 	c #A2D88C",
", 	c #E8F5CD",
"' 	c #DAEDD4",
") 	c #D3EDCE",
"! 	c #AFDFCF",
"~ 	c #B5DED6",
"{ 	c #A2D4D4",
"] 	c #A1D0CE",
"^ 	c #AAD0C4",
"/ 	c #91C987",
"( 	c #5DAF53",
"_ 	c #59AA4F",
": 	c #A0D787",
"< 	c #DEF2C0",
"[ 	c #D6F2C7",
"} 	c #D5EFD5",
"| 	c #CFE9D0",
"1 	c #A6DBD5",
"2 	c #ABDEDC",
"3 	c #90CDDB",
"4 	c #8BC8D7",
"5 	c #8EC1C9",
"6 	c #AFD5BD",
"7 	c #91C77A",
"8 	c #53A34A",
"9 	c #E2F3C0",
"0 	c #B4EFB5",
"a 	c #ACF0B5",
"b 	c #B7EDC1",
"c 	c #B7E3D4",
"d 	c #9CD8D9",
"e 	c #95D3DA",
"f 	c #6DB5CD",
"g 	c #6DB3C7",
"h 	c #84CBB5",
"i 	c #9ADF94",
"j 	c #CDE7AF",
"k 	c #4D9B46",
"l 	c #499642",
"m 	c #B5DE98",
"n 	c #CCEBB5",
"o 	c #A7EFB1",
"p 	c #A9EEC9",
"q 	c #C9EAD1",
"r 	c #8DCFD5",
"s 	c #8BCBD9",
"t 	c #66B4CD",
"u 	c #67BCBC",
"v 	c #71D69A",
"w 	c #73DE82",
"x 	c #71DC7A",
"y 	c #A3D091",
"z 	c #A4C888",
"A 	c #438F3D",
"B 	c #D2ECB3",
"C 	c #A2E29B",
"D 	c #8DEA9D",
"E 	c #B7EDD4",
"F 	c #C7EAD0",
"G 	c #6EB9CF",
"H 	c #66B1CC",
"I 	c #75C9CB",
"J 	c #67DB76",
"K 	c #4DD966",
"L 	c #4DD765",
"M 	c #5DD36C",
"N 	c #7EBB73",
"O 	c #C2DBA5",
"P 	c #3E8839",
"Q 	c #DCF0BE",
"R 	c #83D881",
"S 	c #6DDB77",
"T 	c #9AE5BF",
"U 	c #A7DFCC",
"V 	c #5DA8CA",
"W 	c #6CBDC2",
"X 	c #8BDAB8",
"Y 	c #60D8A6",
"Z 	c #68A73C",
"` 	c #659F31",
" .	c #50BC59",
"..	c #6CAB63",
"+.	c #CEE4B2",
"@.	c #398235",
"#.	c #6DC360",
"$.	c #DDEFBE",
"%.	c #7DD173",
"&.	c #6CD190",
"*.	c #9EE0BC",
"=.	c #5EA7C7",
"-.	c #5EB0D3",
";.	c #5399C6",
">.	c #6EBCC6",
",.	c #7AD1AF",
"'.	c #64A23B",
").	c #81B35A",
"!.	c #579828",
"~.	c #67A35A",
"{.	c #CEE3B1",
"].	c #357E31",
"^.	c #6ABF5E",
"/.	c #CFE9B0",
"(.	c #90D483",
"_.	c #8ADCBF",
":.	c #82CBC3",
"<.	c #56A2CC",
"[.	c #6FA53D",
"}.	c #6DA33A",
"|.	c #67A135",
"1.	c #619D31",
"2.	c #7CAF55",
"3.	c #AACB91",
"4.	c #74AB4F",
"5.	c #468F18",
"6.	c #BCD8A1",
"7.	c #327A2F",
"8.	c #AFD792",
"9.	c #B4DEA0",
"0.	c #70C684",
"a.	c #80D0A8",
"b.	c #5CA5C5",
"c.	c #6BA337",
"d.	c #B0CE96",
"e.	c #ADCD94",
"f.	c #A8CB90",
"g.	c #90BC74",
"h.	c #A1C78A",
"i.	c #68A546",
"j.	c #378809",
"k.	c #61B456",
"l.	c #D3EAB5",
"m.	c #74BC69",
"n.	c #71BD6E",
"o.	c #6DB6BE",
"p.	c #639F31",
"q.	c #8EBA6F",
"r.	c #89B86B",
"s.	c #85B666",
"t.	c #80B361",
"u.	c #82B567",
"v.	c #98C283",
"w.	c #5CA03C",
"x.	c #257F00",
"y.	c #57A84E",
"z.	c #8DC076",
"A.	c #B3D799",
"B.	c #80C079",
"C.	c #7EC2BC",
"D.	c #5B9B29",
"E.	c #A9CA90",
"F.	c #A5C88D",
"G.	c #A1C68A",
"H.	c #9EC588",
"I.	c #85B66A",
"J.	c #97C282",
"K.	c #66A548",
"L.	c #237D06",
"M.	c #1B7900",
"N.	c #52A149",
"O.	c #86B770",
"P.	c #C7E8AE",
"Q.	c #A0D2C0",
"R.	c #519722",
"S.	c #49911C",
"T.	c #438F16",
"U.	c #3B8B10",
"V.	c #5E9F3A",
"W.	c #96C180",
"X.	c #62A346",
"Y.	c #227D07",
"Z.	c #2C7A24",
"`.	c #479441",
" +	c #3F8A3A",
".+	c #9DC59B",
"++	c #9DC2B3",
"@+	c #9CC1BD",
"#+	c #9DC3BE",
"$+	c #B1D2B0",
"%+	c #34880B",
"&+	c #5FA143",
"*+	c #227B07",
"=+	c #2D7A25",
"-+	c #3A8436",
";+	c #378033",
">+	c #347D31",
",+	c #227D03",
"'+	c #1E7B03",
")+	c #157900",
/* pixels */
"        . . . . . . . +         ",
"    . . . @ # $ % & * = - ;     ",
"  . . > , ' ) ! ~ { ] ^ / ( _   ",
"  . : < [ } | 1 2 3 4 5 6 7 8   ",
". . 9 0 a b c d e f g h i j k l ",
". m n o p q r s t u v w x y z A ",
". B C D E F G H I J K L M N O P ",
". Q R S T U V W X Y Z `  ...+.@.",
"#.$.%.&.*.=.-.;.>.,.'.).!.~.{.].",
"^./.(._.:.<.[.}.|.1.2.3.4.5.6.7.",
"- 8.9.0.a.b.c.d.e.3.f.g.h.i.j.7.",
"k.( l.m.n.o.p.e.q.r.s.t.u.v.w.x.",
"  y.z.A.B.C.D.E.F.G.H.I.J.K.L.M.",
"  N.k O.P.Q.R.S.T.U.V.W.X.Y.Z.  ",
"    `.A  +.+++@+#+$+%+&+*+=+    ",
"        -+;+>+7.7.7.,+'+)+      "};
