/* XPM */
static const char * const clearclipboard_disabled_xpm[] = {
/* columns rows colors chars-per-pixel */
"16 16 118 2",
/* colors */
"  	c None",
"@ 	c #B1B1B1",
". 	c #CCCCCC",
"+ 	c #6B6B6B",
"# 	c #8E8E8E",
"$ 	c #5A5A5A",
"% 	c #5C5C5C",
"& 	c #646464",
"* 	c #7C7C7C",
"= 	c #EDEDED",
"- 	c #D8D8D8",
"; 	c #767676",
"> 	c #919191",
", 	c #A8A8A8",
"' 	c #CACACA",
") 	c #909090",
"! 	c #949494",
"~ 	c #ECECEC",
"{ 	c #D2D2D2",
"] 	c #A6A6A6",
"^ 	c #CDCDCD",
"/ 	c #B8B8B8",
"( 	c #E0E0E0",
"_ 	c #BFBFBF",
": 	c #717171",
"< 	c #A1A1A1",
"[ 	c #A0A0A0",
"} 	c #C9C9C9",
"| 	c #595959",
"1 	c #5D5D5D",
"2 	c #BABABA",
"3 	c #DDDDDD",
"4 	c #BDBDBD",
"5 	c #B9B9B9",
"6 	c #A7A7A7",
"7 	c #A5A5A5",
"8 	c #A3A3A3",
"9 	c #707070",
"0 	c #535353",
"a 	c #757575",
"b 	c #818181",
"c 	c #636363",
"d 	c #DADADA",
"e 	c #B5B5B5",
"f 	c #ABABAB",
"g 	c #6D6D6D",
"h 	c #FFFFFF",
"i 	c #F1F1F1",
"j 	c #9C9C9C",
"k 	c #606060",
"l 	c #F0F0F0",
"m 	c #838383",
"n 	c #D6D6D6",
"o 	c #B6B6B6",
"p 	c #B4B4B4",
"q 	c #B0B0B0",
"r 	c #D0D0D0",
"s 	c #9B9B9B",
"t 	c #5E5E5E",
"u 	c #CECECE",
"v 	c #F8F8F8",
"w 	c #DCDCDC",
"x 	c #D3D3D3",
"y 	c #B3B3B3",
"z 	c #ADADAD",
"A 	c #ACACAC",
"B 	c #676767",
"C 	c #DBDBDB",
"D 	c #D4D4D4",
"E 	c #E7E7E7",
"F 	c #F7F7F7",
"G 	c #7D7D7D",
"H 	c #CFCFCF",
"I 	c #AFAFAF",
"J 	c #656565",
"K 	c #C2C2C2",
"L 	c #DEDEDE",
"M 	c #D9D9D9",
"N 	c #CBCBCB",
"O 	c #888888",
"P 	c #696969",
"Q 	c #C7C7C7",
"R 	c #A4A4A4",
"S 	c #878787",
"T 	c #5F5F5F",
"U 	c #F6F6F6",
"V 	c #E4E4E4",
"W 	c #C4C4C4",
"X 	c #C1C1C1",
"Y 	c #DFDFDF",
"Z 	c #808080",
"` 	c #C3C3C3",
" .	c #616161",
"..	c #959595",
"+.	c #E8E8E8",
"@.	c #C6C6C6",
"#.	c #626262",
"$.	c #7F7F7F",
"%.	c #BEBEBE",
"&.	c #8D8D8D",
"*.	c #666666",
"=.	c #979797",
"-.	c #989898",
";.	c #F4F4F4",
">.	c #B7B7B7",
",.	c #7E7E7E",
"'.	c #9D9D9D",
").	c #747474",
"!.	c #B2B2B2",
"~.	c #EEEEEE",
"{.	c #E5E5E5",
"].	c #8A8A8A",
"^.	c #F2F2F2",
"/.	c #EFEFEF",
"(.	c #727272",
"_.	c #9A9A9A",
":.	c #6E6E6E",
"<.	c #555555",
/* pixels */
"@ . + + + + + + +           # $ ",
"+ % & * = - - = ; + + +   > $ , ",
"+ ' ) ! ~ { { ~ ] ^ . + > $ /   ",
"+ ( _ : ) < < < [ ] } | 1 2     ",
"+ 3 4 5 : [ 6 7 8 8 9 0 a b c   ",
"+ d 5 e f g > h i j k 4 l   m & ",
"+ n o p q , & r s t 5 u v w / b ",
"+ x y q z A [ B 1   C D E i F G ",
"+ H I A , 6 b J B K L M { N = b ",
"+ N A , 7 O % L u P K w M D l b ",
"+ Q 6 R S T j U V W J X Y - i Z ",
"+ ` 8 S  ...< U E +.@.#.` L U $.",
"+ %.&.*.=.-.< ;.E +.E >. ._ ;.,.",
"+ '.).  !.!.< ~.E +.E {.  t . G ",
"& | + + + + ].^./.~.l i i I  .(.",
"_.          :.9 9 9 9 9 9 9 k <."};
