/* XPM */
static const char * const close_xpm[] = {
/* columns rows colors chars-per-pixel */
"16 16 120 2",
/* colors */
"  	c None",
". 	c #D59D6E",
"+ 	c #D39B6C",
"@ 	c #D29A69",
"# 	c #CF9766",
"$ 	c #CD9563",
"% 	c #CB9360",
"& 	c #C8905C",
"* 	c #C68E59",
"= 	c #C38B55",
"- 	c #C08851",
"; 	c #D39B6B",
"> 	c #E8D4AE",
", 	c #E8D3AB",
"' 	c #E7D1AA",
") 	c #E5CFA8",
"! 	c #E4CDA5",
"~ 	c #E4CBA2",
"{ 	c #E2C9A0",
"] 	c #E1C79D",
"^ 	c #BC844B",
"/ 	c #D09867",
"( 	c #E7D1AB",
"_ 	c #DFC290",
": 	c #DEC08D",
"< 	c #DCBE8A",
"[ 	c #DBBB87",
"} 	c #DAB883",
"| 	c #D8B680",
"1 	c #E0C499",
"2 	c #B88045",
"3 	c #DDBF8C",
"4 	c #DCBD88",
"5 	c #DBBA85",
"6 	c #D9B781",
"7 	c #D7B47E",
"8 	c #D6B27A",
"9 	c #DDC194",
"0 	c #B47C3F",
"a 	c #C9915E",
"b 	c #E4CCA4",
"c 	c #DAB984",
"d 	c #D7B37C",
"e 	c #D5B079",
"f 	c #D4AD74",
"g 	c #DCBD8F",
"h 	c #AF7739",
"i 	c #E3C9A0",
"j 	c #D9B882",
"k 	c #D8B57E",
"l 	c #D5AF77",
"m 	c #D3AC73",
"n 	c #D4AB6D",
"o 	c #DABA8C",
"p 	c #AB7333",
"q 	c #C28A53",
"r 	c #E1C69C",
"s 	c #D5B179",
"t 	c #D4AD75",
"u 	c #D2AB71",
"v 	c #E4BA5F",
"w 	c #FFD44B",
"x 	c #E0BB7C",
"y 	c #A76F2E",
"z 	c #BE864E",
"A 	c #DFC398",
"B 	c #D2A96F",
"C 	c #D0A76B",
"D 	c #E3B75B",
"E 	c #EDC254",
"F 	c #D7B481",
"G 	c #A36B28",
"H 	c #BA8248",
"I 	c #DDC093",
"J 	c #D1A86D",
"K 	c #CFA569",
"L 	c #CEA266",
"M 	c #CC9F62",
"N 	c #CB9C5E",
"O 	c #D5B07F",
"P 	c #9F6723",
"Q 	c #B57D42",
"R 	c #D0A76C",
"S 	c #CFA467",
"T 	c #CDA164",
"U 	c #CC9E60",
"V 	c #CA9B5C",
"W 	c #C99959",
"X 	c #D4AD7B",
"Y 	c #9C641E",
"Z 	c #B1793C",
"` 	c #DAB98B",
" .	c #CDA062",
"..	c #CB9D5F",
"+.	c #C99A5B",
"@.	c #C89758",
"#.	c #C79554",
"$.	c #D3AB77",
"%.	c #986019",
"&.	c #AD7536",
"*.	c #D8B686",
"=.	c #D7B383",
"-.	c #D6B281",
";.	c #D5AF7D",
">.	c #D3AB79",
",.	c #D2AA76",
"'.	c #D1A874",
").	c #955D15",
"!.	c #B7B7B7",
"~.	c #AEAEAE",
"{.	c #A97130",
"].	c #A66E2C",
"^.	c #A06824",
"/.	c #9E6621",
"(.	c #9B631D",
"_.	c #99611A",
":.	c #975F17",
"<.	c #945C14",
"[.	c #935B11",
"}.	c #6C6C6C",
/* pixels */
"                                ",
"                                ",
"      . + @ # $ % & * = -       ",
"      ; > , ' ) ! ~ { ] ^       ",
"      / ( _ : < [ } | 1 2       ",
"      $ ) 3 4 5 6 7 8 9 0       ",
"      a b [ c | d e f g h       ",
"      * i j k 8 l m n o p       ",
"      q r d s t u v w x y       ",
"      z A l m B C D E F G       ",
"      H I u J K L M N O P       ",
"      Q g R S T U V W X Y       ",
"      Z ` L  ...+.@.#.$.%.      ",
"      &.*.=.-.;.X >.,.'.).      ",
"  !.~.{.].G ^./.(._.:.<.[.}.}.  ",
"                                "};
