/* XPM */
static const char * const collapseall_xpm[] = {
/* columns rows colors chars-per-pixel */
"16 16 104 2",
/* colors */
"  	c None",
". 	c #5171A9",
"+ 	c #8DB1DD",
"@ 	c #7BA7DC",
"# 	c #7AA6DC",
"$ 	c #7AA4DA",
"% 	c #79A2D8",
"& 	c #76A0D5",
"* 	c #759ED4",
"= 	c #739DD2",
"- 	c #729ACF",
"; 	c #7099CE",
"> 	c #6F96CB",
", 	c #6C94C9",
"' 	c #7A9AC4",
") 	c #85ACDD",
"! 	c #92B9E8",
"~ 	c #6F90C1",
"{ 	c #668BC0",
"] 	c #7AA4DB",
"^ 	c #DAFFD5",
"/ 	c #DBFFD5",
"( 	c #DBFFD6",
"_ 	c #DCFFD7",
": 	c #DEFFD9",
"< 	c #5EAB54",
"[ 	c #BCDAB8",
"} 	c #EAF3E9",
"| 	c #FBFDFB",
"1 	c #FFFFFF",
"2 	c #6387BD",
"3 	c #79A3D9",
"4 	c #D8FDD3",
"5 	c #83C67B",
"6 	c #55A14D",
"7 	c #B9D6B5",
"8 	c #E9F2E8",
"9 	c #6085BA",
"0 	c #71B969",
"a 	c #5EA954",
"b 	c #BFEABA",
"c 	c #63A45B",
"d 	c #B5D2B2",
"e 	c #E9F1E8",
"f 	c #FBFCFB",
"g 	c #5E81B7",
"h 	c #75BB6C",
"i 	c #74B66B",
"j 	c #7EBC76",
"k 	c #5BA053",
"l 	c #6BA764",
"m 	c #B5CFB2",
"n 	c #E7EFE7",
"o 	c #FAFCFA",
"p 	c #5C7EB5",
"q 	c #62AC58",
"r 	c #71B469",
"s 	c #96CC8E",
"t 	c #92CB8B",
"u 	c #8EC887",
"v 	c #65A15F",
"w 	c #AEC9AC",
"x 	c #E6EEE5",
"y 	c #5A7CB2",
"z 	c #739CD1",
"A 	c #66A95F",
"B 	c #64A65D",
"C 	c #5FA158",
"D 	c #3A7E34",
"E 	c #5D9A57",
"F 	c #ABC5A9",
"G 	c #E4ECE4",
"H 	c #587AB0",
"I 	c #6F97CC",
"J 	c #54954D",
"K 	c #3C7F37",
"L 	c #DFFFDA",
"M 	c #2C6D27",
"N 	c #ACC4AA",
"O 	c #E5ECE5",
"P 	c #FAFBFA",
"Q 	c #5475AC",
"R 	c #6E94CA",
"S 	c #D7FCD2",
"T 	c #5E9759",
"U 	c #256522",
"V 	c #A6BFA5",
"W 	c #E4EBE3",
"X 	c #5373AA",
"Y 	c #6C92C8",
"Z 	c #DDFFD8",
"` 	c #205E1D",
" .	c #A4BCA3",
"..	c #5172A9",
"+.	c #688EC3",
"@.	c #6488BE",
"#.	c #6185BB",
"$.	c #5F83B9",
"%.	c #5C7EB4",
"&.	c #587BB1",
"*.	c #5779AE",
"=.	c #5676AD",
"-.	c #5475AB",
";.	c #5373A9",
/* pixels */
"                                ",
". + @ # $ % & * = - ; > , ' .   ",
") ! ! ! ! ! ! ! ! ! ! ! ! ! ~   ",
"@ @ @ @ @ @ @ @ @ @ @ @ @ @ {   ",
"] ^ / ( _ : < [ } | 1 1 1 1 2   ",
"3 ^ / 4 5 : 6 7 8 | 1 1 1 1 9   ",
"% ^ ^ 0 a b c d e f 1 1 1 1 g   ",
"& ^ h i j k l m n o 1 1 1 1 p   ",
"* q r s t u v w x f 1 1 1 1 y   ",
"z ^ A B C D E F G f 1 1 1 1 H   ",
"I ^ ^ J K L M N O P 1 1 1 1 Q   ",
"R ^ ^ S T L U V W f 1 1 1 1 X   ",
"Y ^ ^ ( Z L `  .W f 1 1 1 1 ..  ",
". +.{ @.#.$.%.y &.*.=.-.;.. .   ",
"                                ",
"                                "};
