/* XPM */
static const char * const compare_disabled_xpm[] = {
/* columns rows colors chars-per-pixel */
"16 16 70 1",
/* pixels */
" 	c None",
".	c #838383",
"X	c Gray74",
"o	c #b4b4b4",
"O	c #b2b2b2",
"+	c Gray69",
"@	c #aeaeae",
"#	c Gray67",
"$	c #a9a9a9",
"%	c Gray65",
"&	c Gray64",
"*	c #a0a0a0",
"=	c #a2a2a2",
"-	c #797979",
";	c #b9b9b9",
":	c Gray76",
">	c #c1c1c1",
",	c Gray75",
"<	c #bbbbbb",
"1	c Gray73",
"2	c #959595",
"3	c Gray70",
"4	c #b1b1b1",
"5	c #afafaf",
"6	c Gray68",
"7	c #acacac",
"8	c #aaaaaa",
"9	c Gray66",
"0	c #a7a7a7",
"q	c Gray55",
"w	c Gray100",
"e	c #868686",
"r	c #fefefe",
"t	c #fdfdfd",
"y	c Gray99",
"u	c #818181",
"i	c #9d9d9d",
"p	c Gray43",
"a	c #9a9a9a",
"s	c #6a6a6a",
"d	c Gray47",
"f	c #a4a4a4",
"g	c #9f9f9f",
"h	c #9b9b9b",
"j	c #989898",
"k	c Gray57",
"l	c Gray56",
"z	c #676767",
"x	c #b7b7b7",
"c	c #b6b6b6",
"v	c Gray71",
"b	c Gray63",
"n	c Gray62",
"m	c Gray61",
"M	c #979797",
"N	c Gray45",
"B	c Gray60",
"V	c Gray41",
"C	c #5a5a5a",
"Z	c #656565",
"A	c Gray",
"S	c Gray48",
"D	c #767676",
"F	c #717171",
"G	c #686868",
"H	c Gray40",
"J	c Gray39",
"K	c Gray38",
"L	c Gray37",
"P	c Gray35",
/* pixels */
" .XoO+@#$%&*=-  ",
" ;::>> ,,XX<12  ",
" 3O4+5@678890q  ",
" 5wwwwwwwwwwwe  ",
" 7wwwwwwrrtywu  ",
" iwwwwwwwwwwwp  ",
" awwwwwwwwwwws  ",
" d4%f=ghj2kllz  ",
" 7xcvo3O45@67u  ",
" f&b*gnmhajM2-  ",
" *wwwwwwwwwwwN  ",
" mwwwwwwwwrrwp  ",
" BwwwwwwwwwrwV  ",
" ewwwwwwwwwwwC  ",
" ZASDFpGHJKLPP  ",
"                "};
