/* XPM */
static const char * const copyauthcode_disabled_xpm[] = {
"16 16 54 1",
" 	c #C0C0C0",
".	c #949494",
"+	c #EDEDED",
"@	c #6B6B6B",
"#	c #BBBBBB",
"$	c #808080",
"%	c #8F8F8F",
"&	c #8B8B8B",
"*	c #7E7E7E",
"=	c #757575",
"-	c #787878",
";	c #6F6F6F",
">	c #727272",
",	c #686868",
"'	c #878787",
")	c #606060",
"!	c #717171",
"~	c #6E6E6E",
"{	c #666666",
"]	c #828282",
"^	c #AEAEAE",
"/	c #7D7D7D",
"(	c #535353",
"_	c #4E4E4E",
":	c #6D6D6D",
"<	c #B2B2B2",
"[	c #B1B1B1",
"}	c #989898",
"|	c #A9A9A9",
"1	c #767676",
"2	c #474747",
"3	c #424242",
"4	c #959595",
"5	c #929292",
"6	c #8E8E8E",
"7	c #8A8A8A",
"8	c #A3A3A3",
"9	c #404040",
"0	c #626262",
"a	c #ADADAD",
"b	c #ABABAB",
"c	c #A8A8A8",
"d	c #A7A7A7",
"e	c #909090",
"f	c #A2A2A2",
"g	c #777777",
"h	c #3F3F3F",
"i	c #3D3D3D",
"j	c #5C5C5C",
"k	c #565656",
"l	c #525252",
"m	c #4D4D4D",
"n	c #A1A1A1",
"o	c #3E3E3E",
"                ",
" .............. ",
".+@+@@+@@++++##$",
".@@##@##@#####%$",
".%@%@@%@@%%%%%&$",
".*@*@***@*****=-",
".=@=@@=@@=$=$=$-",
" ;$$$$$$$$>,$-- ",
"          @')   ",
"      !~@{]^/(_ ",
"      :<[^^}|123",
"      ,[456768~9",
"      0abcdefghi",
"      jklm:n=hi ",
"          3>oi  ",
"          hhi   "};
