/* XPM */
static const char * const copypassword_disabled_xpm[] = {
/* columns rows colors chars-per-pixel */
"16 16 98 2",
/* colors */
"  	g None",
". 	g #B3B3B3",
"+ 	g #F6F6F6",
"@ 	g #F3F3F3",
"# 	g #E6E6E6",
"$ 	g #EFEFEF",
"% 	g #FFFFFF",
"& 	g #AFAFAF",
"* 	g #E2E2E2",
"= 	g #E7E7E7",
"- 	g #A8A8A8",
"; 	g #9A9A9A",
"> 	g #DEDEDE",
", 	g #E4E4E4",
"' 	g #E8E8E8",
") 	g #B0B0B0",
"! 	g #FBFBFB",
"~ 	g #A1A1A1",
"{ 	g #DFDFDF",
"] 	g #EEEEEE",
"^ 	g #D8D8D8",
"/ 	g #D3D3D3",
"( 	g #9B9B9B",
"_ 	g #F5F5F5",
": 	g #E1E1E1",
"< 	g #CECECE",
"[ 	g #C7C7C7",
"} 	g #8D8D8D",
"| 	g #C6C6C6",
"1 	g #CACACA",
"2 	g #D4D4D4",
"3 	g #818181",
"4 	g #8F8F8F",
"5 	g #8C8C8C",
"6 	g #B4B4B4",
"7 	g #EAEAEA",
"8 	g #CCCCCC",
"9 	g #DBDBDB",
"0 	g #868686",
"a 	g #787878",
"b 	g #919191",
"c 	g #8E8E8E",
"d 	g #DDDDDD",
"e 	g #898989",
"f 	g #888888",
"g 	g #848484",
"h 	g #7F7F7F",
"i 	g #959595",
"j 	g #BBBBBB",
"k 	g #909090",
"l 	g #6B6B6B",
"m 	g #666666",
"n 	g #D0D0D0",
"o 	g #C2C2C2",
"p 	g #BFBFBF",
"q 	g #BDBDBD",
"r 	g #BABABA",
"s 	g #A7A7A7",
"t 	g #B5B5B5",
"u 	g #606060",
"v 	g #5A5A5A",
"w 	g #EBEBEB",
"x 	g #CFCFCF",
"y 	g #C1C1C1",
"z 	g #A4A4A4",
"A 	g #9E9E9E",
"B 	g #9D9D9D",
"C 	g #AEAEAE",
"D 	g #808080",
"E 	g #565656",
"F 	g #ECECEC",
"G 	g #C9C9C9",
"H 	g #7B7B7B",
"I 	g #B7B7B7",
"J 	g #B2B2B2",
"K 	g #9F9F9F",
"L 	g #535353",
"M 	g #4F4F4F",
"N 	g #F1F1F1",
"O 	g #CDCDCD",
"P 	g #D2D2D2",
"Q 	g #DCDCDC",
"R 	g #757575",
"S 	g #6E6E6E",
"T 	g #6A6A6A",
"U 	g #656565",
"V 	g #ADADAD",
"W 	g #858585",
"X 	g #E3E3E3",
"Y 	g #939393",
"Z 	g #838383",
"` 	g #515151",
" .	g #A0A0A0",
"..	g #979797",
"+.	g #949494",
"@.	g #989898",
"#.	g #525252",
"$.	g #4D4D4D",
/* pixels */
"                . . . .         ",
"              . . + + . .       ",
"            . . @ # $ % . &     ",
"          . . @ * = . . % - ;   ",
"          . + * > , ' . ) ! ~ ; ",
"          . $ > > { , ] ^ / @ ( ",
"          . _ : > > > { < [ $ } ",
"        . . | { 1 2 } 3 | = 4 5 ",
"    . . 6 [ 7 8 / 9 0 ; a b c   ",
"    . ! ] d e f g h i j k l m   ",
". . . = n o 0 p q j r s t f u v ",
". ! w x y x 3 q z ~ A ; B C D E ",
". F G p 2 > H r I 6 J K C f L M ",
". N O P Q b R S T U D V W L M   ",
") 7 Q X Y Y         v Z ` M     ",
" .B ..+.@.          L #.$.      "};
