/* XPM */
static const char * const copypassword_xpm[] = {
/* columns rows colors chars-per-pixel */
"16 16 136 2",
/* colors */
"  	c None",
". 	c #E3B044",
"+ 	c #FCF8DE",
"@ 	c #FCF5CE",
"# 	c #F9EB9E",
"$ 	c #FBF2BE",
"% 	c #FFFFFE",
"& 	c #DFAB42",
"* 	c #F8E78D",
"= 	c #F9ECA1",
"- 	c #FFFFFF",
"; 	c #DFA139",
"> 	c #C89539",
", 	c #F7E47E",
"' 	c #F8E994",
") 	c #F8E9BC",
"! 	c #E3AC42",
"~ 	c #FEFCEE",
"{ 	c #DD9832",
"] 	c #F7E581",
"^ 	c #FBF1BC",
"/ 	c #F3DA8B",
"( 	c #F5DD49",
"_ 	c #FDF8C1",
": 	c #DA9030",
"< 	c #FCF7D5",
"[ 	c #F8E789",
"} 	c #F7E582",
"| 	c #F2D647",
"1 	c #F0CE38",
"2 	c #FCF5AE",
"3 	c #D67C29",
"4 	c #EAC46F",
"5 	c #F7E580",
"6 	c #F1D13D",
"7 	c #F5DB5D",
"8 	c #76A83B",
"9 	c #659F31",
"0 	c #EFCD34",
"a 	c #FBEF85",
"b 	c #D67F29",
"c 	c #BA8634",
"d 	c #E3B245",
"e 	c #EAC576",
"f 	c #FAEEAC",
"g 	c #F2D639",
"h 	c #F5DB4D",
"i 	c #F7E465",
"j 	c #6EA332",
"k 	c #81B35A",
"l 	c #579828",
"m 	c #D7812B",
"n 	c #BB8835",
"o 	c #FEFCF1",
"p 	c #FBF1BB",
"q 	c #F6E47B",
"r 	c #6FA53D",
"s 	c #6FA437",
"t 	c #69A234",
"u 	c #639D2F",
"v 	c #7CAF55",
"w 	c #AACB91",
"x 	c #74AB4F",
"y 	c #468F17",
"z 	c #3D8B11",
"A 	c #F9EAAB",
"B 	c #F3D84E",
"C 	c #EFC92B",
"D 	c #6BA337",
"E 	c #B0CE96",
"F 	c #ADCD94",
"G 	c #A8CB90",
"H 	c #90BC74",
"I 	c #A1C78A",
"J 	c #68A546",
"K 	c #358707",
"L 	c #2D8301",
"M 	c #FEFCF0",
"N 	c #FAEEB0",
"O 	c #F4D843",
"P 	c #EEC828",
"Q 	c #F4D741",
"R 	c #639F31",
"S 	c #8EBA6F",
"T 	c #89B86B",
"U 	c #85B666",
"V 	c #80B361",
"W 	c #82B567",
"X 	c #98C283",
"Y 	c #5CA03C",
"Z 	c #257F00",
"` 	c #FAEFBB",
" .	c #F1D139",
"..	c #EEC528",
"+.	c #F6DC4E",
"@.	c #F7E285",
"#.	c #5B9B29",
"$.	c #A9CA90",
"%.	c #A5C88D",
"&.	c #A1C68A",
"*.	c #9EC588",
"=.	c #85B66A",
"-.	c #97C282",
";.	c #66A548",
">.	c #217D00",
",.	c #1B7900",
"'.	c #FBF4C6",
").	c #F1D643",
"!.	c #F5DB48",
"~.	c #F5E182",
"{.	c #C88831",
"].	c #519721",
"^.	c #49911B",
"/.	c #438F15",
"(.	c #3B8B0F",
"_.	c #5E9F3A",
":.	c #96C180",
"<.	c #62A346",
"[.	c #1F7D00",
"}.	c #197900",
"|.	c #E1AC42",
"1.	c #F7EBC4",
"2.	c #F6E17F",
"3.	c #F7E69F",
"4.	c #C98A32",
"5.	c #BA903A",
"6.	c #2B8301",
"7.	c #5FA143",
"8.	c #1F7B00",
"9.	c #CA9D3E",
"0.	c #D19636",
"a.	c #CC9033",
"b.	c #CB8B32",
"c.	c #C2953B",
"d.	c #1E7B03",
"e.	c #157900",
/* pixels */
"                . . . .         ",
"              . . + + . .       ",
"            . . @ # $ % . &     ",
"          . . @ * = . . - ; >   ",
"          . + * , ' ) . ! ~ { > ",
"          . $ , , ] ' ^ / ( _ : ",
"          . < [ , , , } | 1 2 3 ",
"        . . 4 5 6 7 8 9 0 a b c ",
"    . . d e f g h i j k l m n   ",
"    . o p q r s t u v w x y z   ",
". . . A B C D E F w G H I J K L ",
". M N O P Q R F S T U V W X Y Z ",
". `  ...+.@.#.$.%.&.*.=.-.;.>.,.",
". '.).!.~.{.].^./.(._.:.<.[.}.  ",
"|.1.2.3.4.5.        6.7.8.}.    ",
"9.0.a.b.c.          >.d.e.      "};
