/* XPM */
static const char * const copyuser_xpm[] = {
/* columns rows colors chars-per-pixel */
"16 16 157 2",
/* colors */
"  	c None",
". 	c #6A3514",
"+ 	c #8D4812",
"@ 	c #904B10",
"# 	c #8A480F",
"$ 	c #7D4211",
"% 	c #5B3315",
"& 	c #673312",
"* 	c #964E11",
"= 	c #9B5812",
"- 	c #995812",
"; 	c #935311",
"> 	c #874A0F",
", 	c #713E0E",
"' 	c #4B2E13",
") 	c #974B0F",
"! 	c #9F5812",
"~ 	c #8A4A0F",
"{ 	c #874B0F",
"] 	c #874B11",
"^ 	c #854C15",
"/ 	c #754112",
"( 	c #5C330F",
"_ 	c #873E0C",
": 	c #B8977C",
"< 	c #E4B78A",
"[ 	c #C89C71",
"} 	c #6E4015",
"| 	c #724419",
"1 	c #6B4522",
"2 	c #663B11",
"3 	c #A2784D",
"4 	c #9B5E1F",
"5 	c #F7E8D9",
"6 	c #F1C597",
"7 	c #E5BB8E",
"8 	c #D1A97F",
"9 	c #DFB589",
"0 	c #EEDFCD",
"a 	c #A76823",
"b 	c #D2A06A",
"c 	c #925B2A",
"d 	c #EECAA6",
"e 	c #EACCAB",
"f 	c #F6D0A7",
"g 	c #F6D0A8",
"h 	c #EECDA7",
"i 	c #9A622D",
"j 	c #174BA5",
"k 	c #253C6A",
"l 	c #A76D34",
"m 	c #F8CC9C",
"n 	c #F7D4AF",
"o 	c #F6CFA5",
"p 	c #AE7434",
"q 	c #689D3A",
"r 	c #659F31",
"s 	c #154AA7",
"t 	c #1348A4",
"u 	c #1C48BC",
"v 	c #D4E2F4",
"w 	c #A97B4E",
"x 	c #A87B4D",
"y 	c #C3D6F3",
"z 	c #5D983C",
"A 	c #81B35A",
"B 	c #579828",
"C 	c #1349A9",
"D 	c #0D46A9",
"E 	c #1F4CC4",
"F 	c #D6E4F6",
"G 	c #A4E4FF",
"H 	c #72D4FF",
"I 	c #6FA53D",
"J 	c #6DA33A",
"K 	c #67A136",
"L 	c #619E32",
"M 	c #7CAF55",
"N 	c #AACB91",
"O 	c #74AB4F",
"P 	c #458F17",
"Q 	c #3D8B11",
"R 	c #2B539E",
"S 	c #44548A",
"T 	c #ABC8FC",
"U 	c #98D1FF",
"V 	c #6DC7FE",
"W 	c #68BFFE",
"X 	c #6BA337",
"Y 	c #B0CE96",
"Z 	c #ADCD94",
"` 	c #A8CB90",
" .	c #90BC74",
"..	c #A1C78A",
"+.	c #68A546",
"@.	c #358707",
"#.	c #2D8301",
"$.	c #CE7C28",
"%.	c #EAB378",
"&.	c #949EB3",
"*.	c #60B7FF",
"=.	c #63B6FF",
"-.	c #61B2FE",
";.	c #639F31",
">.	c #8EBA6F",
",.	c #89B86B",
"'.	c #85B666",
").	c #80B361",
"!.	c #82B567",
"~.	c #98C283",
"{.	c #5CA03C",
"].	c #257F00",
"^.	c #D17D29",
"/.	c #EEBA82",
"(.	c #58669F",
"_.	c #84BBF5",
":.	c #5BACFF",
"<.	c #5AA8FE",
"[.	c #5B9B29",
"}.	c #A9CA90",
"|.	c #A5C88D",
"1.	c #A1C68A",
"2.	c #9EC588",
"3.	c #85B66A",
"4.	c #97C282",
"5.	c #66A548",
"6.	c #217D00",
"7.	c #1B7900",
"8.	c #D3A26D",
"9.	c #CD7925",
"0.	c #616186",
"a.	c #3560BF",
"b.	c #61B9FE",
"c.	c #62B9FE",
"d.	c #519723",
"e.	c #49911D",
"f.	c #438F17",
"g.	c #3B8B11",
"h.	c #5E9F3A",
"i.	c #96C180",
"j.	c #62A346",
"k.	c #31810B",
"l.	c #197900",
"m.	c #DFA869",
"n.	c #7E7A84",
"o.	c #2050B3",
"p.	c #1F40A0",
"q.	c #2245AA",
"r.	c #2246AC",
"s.	c #2244AB",
"t.	c #2141A7",
"u.	c #1F3D9F",
"v.	c #2B800B",
"w.	c #5FA143",
"x.	c #227C02",
"y.	c #1E7B03",
"z.	c #157900",
/* pixels */
"                                ",
"        . + @ # $ %             ",
"      & * = - ; > , '           ",
"      ) ! ~ { ] ^ / (           ",
"      _ : < [ } | 1 2 3         ",
"      4 5 6 7 8 9 0 a b         ",
"      c d e f g e h i           ",
"    j k l m n n o p q r         ",
"  s t u v w x x w y z A B       ",
"C D E F G H I J K L M N O P Q   ",
"R S T U V W X Y Z N `  ...+.@.#.",
"$.%.&.*.=.-.;.Z >.,.'.).!.~.{.].",
"^./.(._.:.<.[.}.|.1.2.3.4.5.6.7.",
"8.9.0.a.b.c.d.e.f.g.h.i.j.k.l.  ",
"  m.n.o.p.q.r.s.t.u.v.w.x.l.    ",
"                    6.y.z.      "};
