/* XPM */
static const char * const copynotes_disabled_xpm[] = {
/* columns rows colors chars-per-pixel */
"16 16 96 2",
/* colors */
"  	g None",
". 	g #E4E4E4",
"+ 	g #D8D8D8",
"@ 	g #D7D7D7",
"# 	g #D4D4D4",
"$ 	g #D1D1D1",
"% 	g #CECECE",
"& 	g #CACACA",
"* 	g #C7C7C7",
"= 	g #C4C4C4",
"- 	g #BFBFBF",
"; 	g #BCBCBC",
"> 	g #B8B8B8",
", 	g #E1E1E1",
"' 	g #FEFEFE",
") 	g #FDFDFD",
"! 	g #B3B3B3",
"~ 	g #D3D3D3",
"{ 	g #FBFBFB",
"] 	g #FAFAFA",
"^ 	g #AFAFAF",
"/ 	g #CFCFCF",
"( 	g #F6F6F6",
"_ 	g #E7E7E7",
": 	g #E5E5E5",
"< 	g #E2E2E2",
"[ 	g #E0E0E0",
"} 	g #DDDDDD",
"| 	g #DBDBDB",
"1 	g #D9D9D9",
"2 	g #EFEFEF",
"3 	g #AAAAAA",
"4 	g #CDCDCD",
"5 	g #DFDFDF",
"6 	g #D6D6D6",
"7 	g #EEEEEE",
"8 	g #A5A5A5",
"9 	g #C2C2C2",
"0 	g #F5F5F5",
"a 	g #A2A2A2",
"b 	g #CCCCCC",
"c 	g #C9C9C9",
"d 	g #C1C1C1",
"e 	g #8C8C8C",
"f 	g #818181",
"g 	g #9D9D9D",
"h 	g #B7B7B7",
"i 	g #F2F2F2",
"j 	g #EAEAEA",
"k 	g #D5D5D5",
"l 	g #868686",
"m 	g #9A9A9A",
"n 	g #787878",
"o 	g #B6B6B6",
"p 	g #B5B5B5",
"q 	g #E8E8E8",
"r 	g #898989",
"s 	g #888888",
"t 	g #848484",
"u 	g #808080",
"v 	g #959595",
"w 	g #BBBBBB",
"x 	g #909090",
"y 	g #6B6B6B",
"z 	g #666666",
"A 	g #A8A8A8",
"B 	g #B1B1B1",
"C 	g #E6E6E6",
"D 	g #BDBDBD",
"E 	g #BABABA",
"F 	g #A7A7A7",
"G 	g #606060",
"H 	g #5A5A5A",
"I 	g #B2B2B2",
"J 	g #B0B0B0",
"K 	g #A4A4A4",
"L 	g #A1A1A1",
"M 	g #9E9E9E",
"N 	g #AEAEAE",
"O 	g #565656",
"P 	g #999999",
"Q 	g #7B7B7B",
"R 	g #B4B4B4",
"S 	g #9F9F9F",
"T 	g #535353",
"U 	g #4F4F4F",
"V 	g #757575",
"W 	g #6E6E6E",
"X 	g #6A6A6A",
"Y 	g #656565",
"Z 	g #ADADAD",
"` 	g #858585",
" .	g #838383",
"..	g #515151",
"+.	g #525252",
"@.	g #4D4D4D",
/* pixels */
"                                ",
"  . + @ # $ % & * = - ; >       ",
"  , ' ' ' ' ' ) ) ' ' ) !       ",
"  ~ ) { { { ] ] ] ] ] ) ^       ",
"  / ( _ : . < [ } | 1 2 3       ",
"  4 ( : . < 5 } | 1 6 7 8       ",
"  9 0 . < 5 } | + 6 # 7 a       ",
"  - 6 b & c d + 6 # e f g       ",
"  h c i i j   k # $ l m n       ",
"  o o p _ q r s t u v w x y z   ",
"  p . A B C l - D w E F p s G H ",
"  I C # J h f D K L M m g N u O ",
"  N 3 F a P Q E h R I S N s T U ",
"            V W X Y u Z ` T U   ",
"                    H  ...U     ",
"                    T +.@.      "};
