/* XPM */
static const char * const copyuser_disabled_xpm[] = {
"16 16 104 2",
/* colors */
"  	g None",
". 	g #414141",
"+ 	g #565656",
"@ 	g #595959",
"# 	g #555555",
"$ 	g #4E4E4E",
"% 	g #3C3C3C",
"& 	g #3F3F3F",
"* 	g #5D5D5D",
"= 	g #646464",
"- 	g #636363",
"; 	g #5F5F5F",
"> 	g #484848",
", 	g #343434",
"' 	g #5B5B5B",
") 	g #656565",
"! 	g #575757",
"~ 	g #4B4B4B",
"{ 	g #3B3B3B",
"] 	g #9E9E9E",
"^ 	g #BFBFBF",
"/ 	g #A4A4A4",
"( 	g #494949",
"_ 	g #4D4D4D",
": 	g #4C4C4C",
"< 	g #434343",
"[ 	g #808080",
"} 	g #696969",
"| 	g #EBEBEB",
"1 	g #CDCDCD",
"2 	g #C2C2C2",
"3 	g #B0B0B0",
"4 	g #BDBDBD",
"5 	g #E1E1E1",
"6 	g #737373",
"7 	g #A9A9A9",
"8 	g #666666",
"9 	g #D1D1D1",
"0 	g #D7D7D7",
"a 	g #D3D3D3",
"b 	g #6D6D6D",
"c 	g #464646",
"d 	g #3A3A3A",
"e 	g #787878",
"f 	g #D4D4D4",
"g 	g #DADADA",
"h 	g #D6D6D6",
"i 	g #7E7E7E",
"j 	g #828282",
"k 	g #818181",
"l 	g #454545",
"m 	g #E0E0E0",
"n 	g #848484",
"o 	g #838383",
"p 	g #7C7C7C",
"q 	g #9A9A9A",
"r 	g #444444",
"s 	g #404040",
"t 	g #E2E2E2",
"u 	g #BCBCBC",
"v 	g #898989",
"w 	g #878787",
"x 	g #7F7F7F",
"y 	g #959595",
"z 	g #BBBBBB",
"A 	g #909090",
"B 	g #6B6B6B",
"C 	g #505050",
"D 	g #C5C5C5",
"E 	g #B2B2B2",
"F 	g #ACACAC",
"G 	g #868686",
"H 	g #BABABA",
"I 	g #A7A7A7",
"J 	g #B5B5B5",
"K 	g #888888",
"L 	g #606060",
"M 	g #5A5A5A",
"N 	g #8B8B8B",
"O 	g #9D9D9D",
"P 	g #A5A5A5",
"Q 	g #A6A6A6",
"R 	g #A2A2A2",
"S 	g #A1A1A1",
"T 	g #AEAEAE",
"U 	g #8D8D8D",
"V 	g #C3C3C3",
"W 	g #686868",
"X 	g #B1B1B1",
"Y 	g #7B7B7B",
"Z 	g #B7B7B7",
"` 	g #B4B4B4",
" .	g #9F9F9F",
"..	g #535353",
"+.	g #4F4F4F",
"@.	g #ABABAB",
"#.	g #5E5E5E",
"$.	g #757575",
"%.	g #6E6E6E",
"&.	g #ADADAD",
"*.	g #858585",
"=.	g #5C5C5C",
"-.	g #474747",
";.	g #525252",
/* pixels */
"                                ",
"        . + @ # $ %             ",
"      & * = - ; + > ,           ",
"      ' ) + + + ! ~ {           ",
"      $ ] ^ / ( _ : < [         ",
"      } | 1 2 3 4 5 6 7         ",
"      8 9 9 0 0 9 a b           ",
"    c d e f g g h i j k         ",
"  l < > m n o o n f p q e       ",
"r s : t f u v w o x y z A B 8   ",
"C # D D E F G ^ 4 z H I J K L M ",
"N 4 O P Q R k 4 / S ] q O T [ + ",
"U V W X O q Y H Z ` E  .T K ..+.",
"@.v ) #.I I $.%.B ) [ &.*.=.+.  ",
"  X p _ . c -.c < & @ o ..+.    ",
"                    ..;._       "};
