/* XPM */
static const char * const displayauthcode_xpm[] = {
"16 16 10 1",
" 	c #000000",
".	c #F4E9D3",
"+	c #E3B044",
"@	c #F7E47E",
"#	c #0D28F2",
"$	c #F1D13D",
"%	c #D67C29",
"&	c #E3BD10",
"*	c #CEAC19",
"=	c #C0C0C0",
"                ",
" .++++++++++++. ",
" +@#@##@##@@@@+ ",
" +##@@#@@#@@@$+ ",
" +$#$##$##$$$$% ",
" +&#&#&&&#&&&&% ",
" +*#*##*##*#*#% ",
" .++++++++%%%%. ",
" .............. ",
" .............. ",
" .............. ",
" .............. ",
"                ",
"=======  =======",
"=======  =======",
"=====      ====="};
