/* XPM */
static const char * const duplicategroup_xpm[] = {
/* columns rows colors chars-per-pixel */
"16 16 131 2",
/* colors */
"  	c None",
". 	c #7c541a",
"X 	c #d39725",
"o 	c #e4a51b",
"O 	c #dea021",
"+ 	c #9f6f22",
"@ 	c #4e3722",
"# 	c #6f4a1c",
"$ 	c #dfa321",
"% 	c #e5a619",
"& 	c #996b23",
"* 	c #9d5f15",
"= 	c #e5ae34",
"- 	c #e6b865",
"; 	c #f6c88d",
": 	c #e6ad3b",
"> 	c #e5a71d",
", 	c #d49723",
"< 	c #96540f",
"1 	c #e7d0b8",
"2 	c #f1c596",
"3 	c #fbd0a1",
"4 	c #f3c696",
"5 	c #e4cfb6",
"6 	c #bf8331",
"7 	c #524a56",
"8 	c #d6a472",
"9 	c #f2d1ac",
"0 	c #fdd7ae",
"q 	c #f5d4b0",
"w 	c #e7c092",
"e 	c #825e40",
"r 	c #664125",
"t 	c #956142",
"y 	c #925d41",
"u 	c #966043",
"i 	c #69572d",
"p 	c #92776b",
"a 	c #e7ad73",
"s 	c #e3b181",
"d 	c #e7b27d",
"f 	c #c4986c",
"g 	c #2e652b",
"h 	c #35752c",
"j 	c #5f3b24",
"k 	c #956144",
"l 	c #905b41",
"z 	c #9e8f6f",
"x 	c #939984",
"c 	c #89947d",
"v 	c #7f8c75",
"b 	c #b1d5a4",
"n 	c #85bf82",
"m 	c #2d7e27",
"M 	c #307326",
"N 	c #8f5732",
"B 	c #9a6950",
"V 	c #ae8063",
"C 	c #d6a67c",
"Z 	c #a57355",
"A 	c #925d43",
"S 	c #986744",
"D 	c #9fd07c",
"F 	c #97ce77",
"G 	c #8ecd71",
"H 	c #88cd72",
"J 	c #abd89d",
"K 	c #70b06d",
"L 	c #396935",
"P 	c #945723",
"I 	c #dbbfa7",
"U 	c #a77a41",
"Y 	c #8fce78",
"T 	c #89cd75",
"R 	c #ed1c24",
"E 	c #de964e",
"W 	c #898354",
"Q 	c #94cf79",
"! 	c #023391",
"~ 	c #94796d",
"^ 	c #2c5574",
"/ 	c #64a45c",
"( 	c #68a859",
") 	c #67a759",
"_ 	c #64a356",
"` 	c #3e843b",
"' 	c #756680",
"] 	c #013ba8",
"[ 	c #5273cd",
"{ 	c #c0e8ff",
"} 	c #86aaad",
"| 	c #7d9ea7",
" .	c #7592a0",
"..	c #9ccaf7",
"X.	c #7594e4",
"o.	c #0939a8",
"O.	c #214a98",
"+.	c #556fb4",
"@.	c #b2d7fd",
"#.	c #84d6ff",
"$.	c #5ec0ff",
"%.	c #57a7ff",
"&.	c #92c5ff",
"*.	c #5b7dd6",
"=.	c #d28434",
"-.	c #ccac93",
";.	c #73afe7",
":.	c #5fb8ff",
">.	c #5fb0fe",
",.	c #55a0fd",
"<.	c #4d97ff",
"1.	c #4d93fd",
"2.	c #a29fb3",
"3.	c #df913f",
"4.	c #ac8571",
"5.	c #597ec8",
"6.	c #66baff",
"7.	c #5eb0ff",
"8.	c #5cb4ff",
"9.	c #5788de",
"0.	c #7e7387",
"q.	c #d9a367",
"w.	c #b68252",
"e.	c #3755a4",
"r.	c #3470cb",
"t.	c #417ed2",
"y.	c #417ed3",
"u.	c #417cd1",
"i.	c #3f7acd",
"p.	c #2348a9",
"a.	c #937464",
/* pixels */
"                . X o O + @     ",
"              # $ % % % % &     ",
"              * = - ; : > ,     ",
"              < 1 2 3 4 5 6     ",
"              7 8 9 0 q w e     ",
"      r t y u i p a s d f g h   ",
"    j k l l l l z x c v b n m M ",
"    N B V C Z A S D F G H J K L ",
"    P I 2 3 4 5 U Y T R R R R E ",
"    7 8 9 0 q w W Q R R R R R R ",
"    ! ~ a s d f ^ / ( ) _ ` ' R ",
"  ] [ { } |  ...X.o./ R R R R R ",
"O.+.@.#.R $.R %.&.*.R R R R R   ",
"=.-.;.:.>.R ,.<.1.2.R           ",
"3.4.5.6.R 7.R 8.9.0.R R R R R R ",
"q.w.e.r.t.y.u.i.p.a.R R R R R R "};
