/* XPM */
static const char * const duplicategroup_disabled_xpm[] = {
/* columns rows colors chars-per-pixel */
"16 16 88 1",
/* colors */
" 	c None",
".	c #5a5a5a",
"X	c #9d9d9d",
"o	c #aaaaaa",
"O	c #a5a5a5",
"+	c Gray46",
"@	c Gray23",
"#	c #505050",
"$	c Gray66",
"%	c #717171",
"&	c #6a6a6a",
"*	c #b2b2b2",
"=	c Gray74",
"-	c Gray81",
";	c Gray67",
":	c #606060",
">	c Gray83",
",	c #cdcdcd",
"<	c #d8d8d8",
"1	c #cecece",
"2	c #d2d2d2",
"3	c Gray55",
"4	c Gray30",
"5	c #aeaeae",
"6	c #d7d7d7",
"7	c Gray87",
"8	c #dadada",
"9	c Gray78",
"0	c #656565",
"q	c #494949",
"w	c #6d6d6d",
"e	c #585858",
"r	c Gray49",
"t	c Gray72",
"y	c #bbbbbb",
"u	c #bcbcbc",
"i	c #a0a0a0",
"p	c #4e4e4e",
"a	c #434343",
"s	c #686868",
"d	c #909090",
"f	c #959595",
"g	c #8e8e8e",
"h	c Gray52",
"j	c #c5c5c5",
"k	c #a7a7a7",
"l	c #5d5d5d",
"z	c Gray34",
"x	c #646464",
"c	c Gray54",
"v	c Gray69",
"b	c Gray50",
"n	c #727272",
"m	c #b4b4b4",
"M	c #afafaf",
"N	c Gray77",
"B	c Gray59",
"V	c #555555",
"C	c #818181",
"Z	c #5b5b5b",
"A	c #a4a4a4",
"S	c #808080",
"D	c #2d2d2d",
"F	c #4b4b4b",
"G	c #898989",
"H	c #888888",
"J	c #676767",
"K	c #343434",
"L	c #9f9f9f",
"P	c #929292",
"I	c #353535",
"U	c Gray27",
"Y	c Gray43",
"T	c #c1c1c1",
"R	c #979797",
"E	c #7b7b7b",
"W	c #939393",
"Q	c Gray70",
"!	c #a2a2a2",
"~	c #8b8b8b",
"^	c Gray63",
"/	c Gray48",
"(	c Gray47",
")	c Gray68",
"_	c #535353",
"`	c #747474",
"'	c Gray44",
"]	c #464646",
/* pixels */
"        .XoO+@  ",
"       #$oooo%  ",
"       &*=-*;X  ",
"       :>,<123  ",
"       4567890  ",
"   qw&wertyuip. ",
"  awssssdfghjklz",
"  x+cvb&ntmvMNBV",
"  xj,<12C*MZZZZA",
"  456789SmZZZZZZ",
"  DbtyuiFG33HJwZ",
" Kn7Lfc PIGZZZZZ",
"UY-TZ$ZRyEZZZZZ ",
"WQ!ALZP~H^Z     ",
"ig/kZLZ^C(ZZZZZZ",
")3_J``n']EZZZZZZ"};
