/* XPM */
static const char * const expandall_xpm[] = {
/* columns rows colors chars-per-pixel */
"16 16 113 2",
/* colors */
"  	c None",
". 	c #5171A9",
"+ 	c #8DB1DD",
"@ 	c #7BA7DC",
"# 	c #7AA6DC",
"$ 	c #7AA4DA",
"% 	c #79A2D8",
"& 	c #76A0D5",
"* 	c #759ED4",
"= 	c #739DD2",
"- 	c #729ACF",
"; 	c #7099CE",
"> 	c #6F96CB",
", 	c #6C94C9",
"' 	c #7A9AC4",
") 	c #85ACDD",
"! 	c #92B9E8",
"~ 	c #6F90C1",
"{ 	c #668BC0",
"] 	c #7AA4DB",
"^ 	c #E3FFDE",
"/ 	c #E3FFDF",
"( 	c #E2FEDE",
"_ 	c #D7F8D2",
": 	c #B9E8B2",
"< 	c #74C768",
"[ 	c #FFFFFF",
"} 	c #6387BD",
"| 	c #79A3D9",
"1 	c #70C264",
"2 	c #8BC685",
"3 	c #E7EEF2",
"4 	c #E7EBF5",
"5 	c #E4EAF3",
"6 	c #DEE7F2",
"7 	c #6085BA",
"8 	c #E1FEDD",
"9 	c #D7F8D3",
"0 	c #B8E7B2",
"a 	c #6ABB5F",
"b 	c #64AF5B",
"c 	c #6FB168",
"d 	c #EBF2F7",
"e 	c #EAF0F7",
"f 	c #E8ECF6",
"g 	c #5E81B7",
"h 	c #E2FFDE",
"i 	c #D6F7D1",
"j 	c #B4E3AE",
"k 	c #86C37E",
"l 	c #5EAB54",
"m 	c #74B66B",
"n 	c #6FB067",
"o 	c #69A564",
"p 	c #EFF3FA",
"q 	c #ECF2F8",
"r 	c #5C7EB5",
"s 	c #D6F6D1",
"t 	c #B1DFAB",
"u 	c #7FBC77",
"v 	c #9ACF92",
"w 	c #96CC8E",
"x 	c #92CB8B",
"y 	c #61A25A",
"z 	c #45863E",
"A 	c #F2F5FB",
"B 	c #5A7CB2",
"C 	c #739CD1",
"D 	c #E0FDDC",
"E 	c #D4F5D0",
"F 	c #B0DDAA",
"G 	c #76B46F",
"H 	c #5CA254",
"I 	c #74B36C",
"J 	c #5FA158",
"K 	c #5E9559",
"L 	c #F6FAFB",
"M 	c #F4F8FB",
"N 	c #587AB0",
"O 	c #6F97CC",
"P 	c #D3F4CF",
"Q 	c #AAD7A5",
"R 	c #D6E6D4",
"S 	c #44873D",
"T 	c #548E50",
"U 	c #FAFDFD",
"V 	c #F7FCFC",
"W 	c #F6FBFB",
"X 	c #5475AC",
"Y 	c #6E94CA",
"Z 	c #D2F3CD",
"` 	c #A7D3A2",
" .	c #42883B",
"..	c #6C9E69",
"+.	c #F7FBF9",
"@.	c #FAFEFE",
"#.	c #F9FCFC",
"$.	c #5373AA",
"%.	c #6C92C8",
"&.	c #D1F1CC",
"*.	c #A3CF9E",
"=.	c #3A7E34",
"-.	c #5172A9",
";.	c #688EC3",
">.	c #6488BE",
",.	c #6185BB",
"'.	c #5F83B9",
").	c #5C7EB4",
"!.	c #587BB1",
"~.	c #5779AE",
"{.	c #5676AD",
"].	c #5475AB",
"^.	c #5373A9",
/* pixels */
"                                ",
". + @ # $ % & * = - ; > , ' .   ",
") ! ! ! ! ! ! ! ! ! ! ! ! ! ~   ",
"@ @ @ @ @ @ @ @ @ @ @ @ @ @ {   ",
"] ^ / ( _ : < [ [ [ [ [ [ [ }   ",
"| ^ / ( _ : 1 [ 2 3 4 5 6 [ 7   ",
"% ^ / 8 9 0 a [ b c d e f [ g   ",
"& h / 8 i j k l m n o p q [ r   ",
"* ^ / 8 s t u v w x y z A [ B   ",
"C ^ / D E F G H I J K L M [ N   ",
"O ^ / D P Q J R S T U V W [ X   ",
"Y h / D Z `  .[ ..+.@.@.#.[ $.  ",
"%.h h D &.*.=.[ [ [ [ [ [ [ -.  ",
". ;.{ >.,.'.).B !.~.{.].^.. .   ",
"                                ",
"                                "};
