/* XPM */
static const char * const exportxml_disabled_xpm[] = {
/* columns rows colors chars-per-pixel */
"16 16 100 2",
/* colors */
"  	c None",
". 	c #a5a5a5",
"X 	c Gray64",
"o 	c Gray62",
"O 	c Gray60",
"+ 	c #959595",
"@ 	c #909090",
"# 	c #888888",
"$ 	c #838383",
"% 	c Gray49",
"& 	c #767676",
"* 	c Gray43",
"= 	c #cdcdcd",
"- 	c Gray80",
"; 	c #cacaca",
": 	c Gray78",
"> 	c #c5c5c5",
", 	c Gray76",
"< 	c #bebebe",
"1 	c #bbbbbb",
"2 	c #b6b6b6",
"3 	c #b2b2b2",
"4 	c #afafaf",
"5 	c #aaaaaa",
"6 	c #626262",
"7 	c Gray74",
"8 	c Gray73",
"9 	c #b7b7b7",
"0 	c Gray70",
"q 	c Gray63",
"w 	c Gray61",
"e 	c #979797",
"r 	c #a4a4a4",
"t 	c #585858",
"y 	c Gray100",
"u 	c #fdfdfd",
"i 	c Gray95",
"p 	c #b4b4b4",
"a 	c Gray94",
"s 	c #f6f6f6",
"d 	c Gray96",
"f 	c Gray83",
"g 	c #a7a7a7",
"h 	c #e6e6e6",
"j 	c #e1e1e1",
"k 	c Gray32",
"l 	c #a0a0a0",
"z 	c #f8f8f8",
"x 	c Gray85",
"c 	c #fbfbfb",
"v 	c Gray97",
"b 	c Gray68",
"n 	c #9a9a9a",
"m 	c Gray54",
"M 	c #818181",
"N 	c #f9f9f9",
"B 	c Gray29",
"V 	c #d0d0d0",
"C 	c #929292",
"Z 	c Gray52",
"A 	c Gray47",
"S 	c Gray92",
"D 	c Gray57",
"F 	c #434343",
"G 	c #fefefe",
"H 	c Gray82",
"J 	c #f3f3f3",
"K 	c #9d9d9d",
"L 	c #898989",
"P 	c Gray53",
"I 	c #848484",
"U 	c Gray50",
"Y 	c #6c6c6c",
"T 	c #3e3e3e",
"R 	c #868686",
"E 	c Gray75",
"W 	c Gray71",
"Q 	c Gray38",
"! 	c #3c3c3c",
"~ 	c Gray48",
"^ 	c Gray69",
"/ 	c #8d8d8d",
"( 	c #aeaeae",
") 	c #808080",
"_ 	c #555555",
"` 	c #a9a9a9",
"' 	c #7b7b7b",
"] 	c #9f9f9f",
"[ 	c Gray34",
"{ 	c #5a5a5a",
"} 	c #4e4e4e",
"| 	c Gray46",
" .	c #6a6a6a",
"..	c #656565",
"X.	c #505050",
"o.	c Gray22",
"O.	c #515151",
"+.	c Gray31",
"@.	c #535353",
"#.	c Gray30",
/* pixels */
"                                ",
"                                ",
"                                ",
". . . . . . X o O + @ # $ % & * ",
". = = = - ; : > , < 1 2 3 4 5 6 ",
". = ,   7 8 9 0 4 5 . q w e r t ",
". y = u i p a s s d f g h j w k ",
"l z x c v b s r s n m M d N e B ",
"O V y , u s N w s C Z n A S D F ",
"@ G H J d K L P I U + 1 @ Y m T ",
"Z c r d d + R E 7 1 8 g W # Q ! ",
"~ ^ w e C / M 7 r q o n K ( ) _ ",
"* ` . q w n ' 8 9 p 3 ] ( # [ ! ",
"6 { [ k } B | *  ...) b Z X.! o.",
"                    { $ O.+.    ",
"                    @.k #.      "};
