/* XPM */
static const char * const exporttext_xpm[] = {
/* columns rows colors chars-per-pixel */
"16 16 144 2",
/* colors */
"  	c None",
". 	c #a3c2ef",
"X 	c #a2c1ef",
"o 	c #9fc0ed",
"O 	c #9dbeeb",
"+ 	c #9abceb",
"@ 	c #96bae9",
"# 	c #93b7e7",
"$ 	c #90b5e6",
"% 	c #8cb2e4",
"& 	c #88afe2",
"* 	c #84ace0",
"= 	c #80a9dd",
"- 	c #7da5dc",
"; 	c #7aa3da",
": 	c #a1c1ee",
"> 	c #f4f7fb",
", 	c #74a0d7",
"< 	c #9ebfec",
"1 	c #a5d59c",
"2 	c #a1d398",
"3 	c #9dd094",
"4 	c #98ce90",
"5 	c #93cb8b",
"6 	c #8ec987",
"7 	c #89c682",
"8 	c #84c37e",
"9 	c #80c17a",
"0 	c #7cbe76",
"q 	c #6f9bd4",
"w 	c #9bbdeb",
"e 	c Gray100",
"r 	c #6a97d1",
"t 	c #98bae9",
"y 	c #a6c3e9",
"u 	c #6493ce",
"i 	c #94b7e7",
"p 	c #a9c4e8",
"a 	c #acc7e8",
"s 	c #ebf1f7",
"d 	c #5f8fcb",
"f 	c #8fb4e5",
"g 	c #f2f6fa",
"h 	c #aac6e9",
"j 	c #acc6e9",
"k 	c #acc7ea",
"l 	c #adc7e9",
"z 	c #aec9e9",
"x 	c #b0c9e9",
"c 	c #6ea43e",
"v 	c #659f31",
"b 	c #b2cae1",
"n 	c #dee7f2",
"m 	c #598ac8",
"M 	c #8cb1e3",
"N 	c #f1f6fa",
"B 	c #aec9ea",
"V 	c #b0c9ea",
"C 	c #69a339",
"Z 	c #81b35a",
"A 	c #579828",
"S 	c #d6e2ea",
"D 	c #5586c6",
"F 	c #87aee1",
"G 	c #f0f4fa",
"H 	c #b2cbea",
"J 	c #b3ccea",
"K 	c #6fa53d",
"L 	c #6ea338",
"P 	c #68a134",
"I 	c #629d30",
"U 	c #7caf55",
"Y 	c #aacb91",
"T 	c #74ab4f",
"R 	c #469019",
"E 	c #5386bc",
"W 	c #82aadf",
"Q 	c #eff3f9",
"! 	c #b7ceea",
"~ 	c #bbd0eb",
"^ 	c #6ba337",
"/ 	c #b0ce96",
"( 	c #adcd94",
") 	c #a8cb90",
"_ 	c #90bc74",
"` 	c #a1c78a",
"' 	c #68a546",
"] 	c #358709",
"[ 	c #2d8301",
"{ 	c #7ea8dd",
"} 	c #bad0eb",
"| 	c #639f31",
" .	c #8eba6f",
"..	c #89b86b",
"X.	c #85b666",
"o.	c #80b361",
"O.	c #82b567",
"+.	c #98c283",
"@.	c #5ca03c",
"#.	c #257f00",
"$.	c #7aa4d9",
"%.	c #eef3f9",
"&.	c #bed2eb",
"*.	c #bfd3eb",
"=.	c #5b9b29",
"-.	c #a9ca90",
";.	c #a5c88d",
":.	c #a1c68a",
">.	c #9ec588",
",.	c #85b66a",
"<.	c #97c282",
"1.	c #66a548",
"2.	c #267e10",
"3.	c #1b7900",
"4.	c #75a1d7",
"5.	c #edf2f8",
"6.	c #eaf0f7",
"7.	c #e6edf6",
"8.	c #e2eaf4",
"9.	c #529722",
"0.	c #4a911c",
"q.	c #448f16",
"w.	c #3c8b10",
"e.	c #5e9f3a",
"r.	c #96c180",
"t.	c #62a346",
"y.	c #308717",
"u.	c #5287a5",
"i.	c #729ed6",
"p.	c #6e99d3",
"a.	c #6896d1",
"s.	c #6392ce",
"d.	c #5e8ecb",
"f.	c #5b8ac9",
"g.	c #5687c7",
"h.	c #5284c3",
"j.	c #2d8309",
"k.	c #5fa143",
"l.	c #247c15",
"z.	c #4982a5",
"x.	c #4277bb",
"c.	c #217d00",
"v.	c #1e7b03",
"b.	c #157900",
/* pixels */
"                                ",
"  . X o O + @ # $ % & * = - ;   ",
"  : > > > > > > > > > > > > ,   ",
"  < > 1 2 3 4 5 6 7 8 9 0 > q   ",
"  w > e e e e e e e e e e > r   ",
"  t > y y y y y y y y y y > u   ",
"  i > y e p e e e a e e e s d   ",
"  f g h j k l z x a c v b n m   ",
"  M N B e V e e e a C Z A S D   ",
"  F G H J J K L P I U Y T R E   ",
"  W Q ! e ~ ^ / ( Y ) _ ` ' ] [ ",
"  { Q } ~ ~ | (  ...X.o.O.+.@.#.",
"  $.%.&.e *.=.-.;.:.>.,.<.1.2.3.",
"  4.5.6.7.8.9.0.q.w.e.r.t.y.u.  ",
"  i.p.a.s.d.f.g.h.h.j.k.l.z.x.  ",
"                    c.v.b.      "};
