/* XPM */
static const char * const importtext_disabled_xpm[] = {
/* columns rows colors chars-per-pixel */
"16 16 90 1",
/* colors */
" 	c None",
".	c Gray62",
"X	c #a0a0a0",
"o	c #a4a4a4",
"O	c #a7a7a7",
"+	c #aaaaaa",
"@	c #aeaeae",
"#	c #b1b1b1",
"$	c Gray70",
"%	c #b6b6b6",
"&	c Gray72",
"*	c Gray73",
"=	c #bcbcbc",
"-	c #bebebe",
";	c Gray75",
":	c #9b9b9b",
">	c Gray97",
",	c Gray74",
"<	c Gray59",
"1	c Gray67",
"2	c #b4b4b4",
"3	c #c1c1c1",
"4	c Gray77",
"5	c Gray78",
"6	c #bbbbbb",
"7	c #929292",
"8	c Gray100",
"9	c #b9b9b9",
"0	c #8d8d8d",
"q	c #898989",
"w	c Gray94",
"e	c #848484",
"r	c #e6e6e6",
"t	c #8b8b8b",
"y	c Gray57",
"u	c #c6c6c6",
"i	c #c3c3c3",
"p	c Gray96",
"a	c Gray69",
"s	c #808080",
"d	c Gray88",
"f	c Gray51",
"g	c #a2a2a2",
"h	c Gray56",
"j	c Gray68",
"k	c Gray50",
"l	c Gray47",
"z	c Gray60",
"x	c #909090",
"c	c Gray79",
"v	c #c8c8c8",
"b	c #f4f4f4",
"n	c #a9a9a9",
"m	c #676767",
"M	c #6c6c6c",
"N	c Gray76",
"B	c #cdcdcd",
"V	c #cbcbcb",
"C	c #f3f3f3",
"Z	c #a5a5a5",
"A	c Gray39",
"S	c Gray54",
"D	c Gray71",
"F	c Gray65",
"G	c Gray66",
"H	c Gray64",
"J	c Gray36",
"K	c Gray52",
"L	c #d0d0d0",
"P	c Gray95",
"I	c #9f9f9f",
"U	c Gray",
"Y	c #8e8e8e",
"T	c #717171",
"R	c #767676",
"E	c #797979",
"W	c #e9e9e9",
"Q	c #ececec",
"!	c #efefef",
"~	c #f1f1f1",
"^	c Gray61",
"/	c #626262",
"(	c Gray55",
")	c #686868",
"_	c #818181",
"`	c #888888",
"'	c Gray58",
"]	c #5b5b5b",
"[	c #5f5f5f",
"{	c #606060",
/* pixels */
"                ",
" .XoO+@#$%&*=-; ",
" :>>>>>>>>>>>>, ",
" <>1@#2&*-345>6 ",
" 7>8888888888>9 ",
" 0>          >% ",
" qw888488838 >$ ",
" er5ty4uu44iipa ",
" sdfgh4888u8upj ",
" klz .q0x7ccvbn ",
"mMy6j; N4hB8VCZ ",
"ASDZgFG1NSBBBCH ",
"JAy2F&*=;KL8LPI ",
" UMY$STREsWQ!~^ ",
" Tl/()UU_K`(x'z ",
"   ][{          "};
