/* XPM */
static const char *lock_xpm[] = {
"16 16 172 2",
"  	c None",
". 	c #A5A5A5",
"+ 	c #A3A3A3",
"@ 	c #A0A0A0",
"# 	c #9D9D9D",
"$ 	c #9A9A9A",
"% 	c #979797",
"& 	c #949494",
"* 	c #909090",
"= 	c #A4A4A4",
"- 	c #A2A2A2",
"; 	c #BCBCBC",
"> 	c #CACACA",
", 	c #CCCCCC",
"' 	c #C2C2C2",
") 	c #ADADAD",
"! 	c #8C8C8C",
"~ 	c #898989",
"{ 	c #A1A1A1",
"] 	c #C4C4C4",
"^ 	c #BEBEBE",
"/ 	c #969696",
"( 	c #939393",
"_ 	c #AEAEAE",
": 	c #848484",
"< 	c #818181",
"[ 	c #BABABA",
"} 	c #BFBFBF",
"| 	c #989898",
"1 	c #878787",
"2 	c #A8A8A8",
"3 	c #9E9E9E",
"4 	c #7D7D7D",
"5 	c #A9A9A9",
"6 	c #797979",
"7 	c #999999",
"8 	c #C6C6C6",
"9 	c #ABABAB",
"0 	c #767676",
"a 	c #E1C361",
"b 	c #A8A088",
"c 	c #919191",
"d 	c #8E8E8E",
"e 	c #DCB95A",
"f 	c #DFB855",
"g 	c #DEB551",
"h 	c #DDB14D",
"i 	c #DCAD49",
"j 	c #D7A846",
"k 	c #787878",
"l 	c #8D7E65",
"m 	c #D89931",
"n 	c #E1C260",
"o 	c #FCF3C9",
"p 	c #FDF3CB",
"q 	c #FEF6D4",
"r 	c #FFF6D7",
"s 	c #FFF4D8",
"t 	c #FFF8E0",
"u 	c #FFF8DF",
"v 	c #FFF5DA",
"w 	c #FCF1CD",
"x 	c #FAEDC2",
"y 	c #FAEBBD",
"z 	c #D6932B",
"A 	c #E0BF5C",
"B 	c #FCF3C8",
"C 	c #F9DF75",
"D 	c #FDE689",
"E 	c #FFE795",
"F 	c #FFE59A",
"G 	c #FFEEAA",
"H 	c #FFEDA8",
"I 	c #FFE399",
"J 	c #F9D574",
"K 	c #F3CC59",
"L 	c #F1C84F",
"M 	c #FAE9BB",
"N 	c #D58D24",
"O 	c #DFBB58",
"P 	c #FCF1C7",
"Q 	c #F9DC6F",
"R 	c #EDBB56",
"S 	c #EFBD61",
"T 	c #FFE79B",
"U 	c #E2A635",
"V 	c #E1A44B",
"W 	c #FFE290",
"X 	c #E9AD49",
"Y 	c #E3A438",
"Z 	c #F0C449",
"` 	c #F9E8B8",
" .	c #D4881E",
"..	c #DEB753",
"+.	c #FCF0C6",
"@.	c #F8D96A",
"#.	c #FDE27C",
"$.	c #FFE890",
"%.	c #FFE999",
"&.	c #DF9F32",
"*.	c #B28B54",
"=.	c #FFE28A",
"-.	c #F9D06A",
";.	c #F1C550",
">.	c #F0C146",
",.	c #F9E7B6",
"'.	c #D38318",
").	c #DDB24E",
"!.	c #FBEFC3",
"~.	c #F8D665",
"{.	c #ECB64C",
"].	c #EFBD5A",
"^.	c #FFEB95",
"/.	c #DD9730",
"(.	c #AB824D",
"_.	c #FFE184",
":.	c #E9A941",
"<.	c #E19F32",
"[.	c #EFBE42",
"}.	c #F9E5B4",
"|.	c #D27E13",
"1.	c #FBEEC1",
"2.	c #F7D35F",
"3.	c #FCDB6C",
"4.	c #FFE57F",
"5.	c #FFED8F",
"6.	c #FFF297",
"7.	c #FFED93",
"8.	c #FFDF7C",
"9.	c #F8CC5B",
"0.	c #EFBE46",
"a.	c #EEBA3C",
"b.	c #F9E3B3",
"c.	c #D1790E",
"d.	c #DBA843",
"e.	c #FBECBF",
"f.	c #F5CF59",
"g.	c #ECB041",
"h.	c #EFBA4E",
"i.	c #EFC25A",
"j.	c #EFC660",
"k.	c #EFC45C",
"l.	c #EFB64C",
"m.	c #E6A537",
"n.	c #E19A2A",
"o.	c #EEB838",
"p.	c #F8E3B1",
"q.	c #D07509",
"r.	c #DAA33D",
"s.	c #FAEBBC",
"t.	c #FCEBBC",
"u.	c #FEEEBF",
"v.	c #FFF4C6",
"w.	c #FFF8CE",
"x.	c #FFFAD3",
"y.	c #FFF8D0",
"z.	c #FFF2C7",
"A.	c #FCE9BA",
"B.	c #F9E4B3",
"C.	c #F8E2B0",
"D.	c #CF7105",
"E.	c #D99D36",
"F.	c #D7942C",
"G.	c #D69028",
"H.	c #D58C23",
"I.	c #D3841A",
"J.	c #D28015",
"K.	c #D17C11",
"L.	c #D0760A",
"M.	c #CF7307",
"N.	c #CF7004",
"O.	c #CE6E01",
"        . + @ # $ % & *         ",
"      = - ; > , > ' ) ! ~       ",
"    = { ] ^ { / ( % _ _ : <     ",
"    { [ } |         1 2 3 4     ",
"    # ] {             ~ 5 6     ",
"    7 8 &             4 9 0     ",
"  a b c d e f g h i j k 0 l m   ",
"  n o p q r s t u v w x y y z   ",
"  A B C D E F G H I J K L M N   ",
"  O P Q R S T U V W X Y Z `  .  ",
"  ..+.@.#.$.%.&.*.=.-.;.>.,.'.  ",
"  ).!.~.{.].^./.(._.:.<.[.}.|.  ",
"  i 1.2.3.4.5.6.7.8.9.0.a.b.c.  ",
"  d.e.f.g.h.i.j.k.l.m.n.o.p.q.  ",
"  r.s.t.u.v.w.x.y.z.A.B.C.C.D.  ",
"  E.m F.G.H. .I.J.K.c.L.M.N.O.  "};
