/* XPM */
static const char * const merge_disabled_xpm[] = {
/* columns rows colors chars-per-pixel */
"16 16 60 1",
/* colors */
" 	c None",
".	c Gray64",
"X	c #a2a2a2",
"o	c Gray63",
"O	c #909090",
"+	c #8d8d8d",
"@	c #b1b1b1",
"#	c #b4b4b4",
"$	c #a0a0a0",
"%	c Gray62",
"&	c #9d9d9d",
"*	c Gray58",
"=	c Gray56",
"-	c #9f9f9f",
";	c #898989",
":	c Gray69",
">	c Gray76",
",	c #9b9b9b",
"<	c Gray57",
"1	c Gray53",
"2	c Gray68",
"3	c #b6b6b6",
"4	c #bbbbbb",
"5	c Gray60",
"6	c Gray65",
"7	c #868686",
"8	c #848484",
"9	c Gray61",
"0	c #979797",
"q	c Gray55",
"w	c #acacac",
"e	c Gray54",
"r	c #9a9a9a",
"t	c #989898",
"y	c Gray59",
"u	c #959595",
"i	c #888888",
"p	c #838383",
"a	c #818181",
"s	c Gray",
"d	c #7c7c7c",
"f	c #797979",
"g	c #777777",
"h	c Gray46",
"j	c #8e8e8e",
"k	c #aaaaaa",
"l	c #7b7b7b",
"z	c Gray52",
"x	c #727272",
"c	c Gray66",
"v	c #767676",
"b	c Gray47",
"n	c Gray51",
"m	c Gray43",
"M	c Gray50",
"N	c Gray45",
"B	c #717171",
"V	c #808080",
"C	c #6d6d6d",
"Z	c #6f6f6f",
/* pixels */
" .Xo         O+ ",
".@#$%&    * =-&;",
"X:>@$,    <=%@-1",
" -2345    =@6%78",
"  9440    q:we8 ",
" 9rtyu    ei7pa ",
"                ",
"                ",
"                ",
"                ",
" <=qe;    sdfgh ",
" jOkk7    l%rh  ",
"jq9%6p    frjzx ",
"q9cupa    vbi0nm",
";y*p M    hNB7VC",
" zn         ZmC "};
