/* XPM */
static const char * const new_xpm[] = {
/* columns rows colors chars-per-pixel */
"16 16 130 2",
/* colors */
"  	c None",
". 	c #D9B434",
"+ 	c #E1C25E",
"@ 	c #E2C360",
"# 	c #E2C35F",
"$ 	c #DBB63C",
"% 	c #D8B22C",
"& 	c #D8B32C",
"* 	c #DAB336",
"= 	c #FEFEFD",
"- 	c #FFFFFE",
"; 	c #FFFEFE",
"> 	c #FFFEFD",
", 	c #FBF7EA",
"' 	c #E4C76B",
") 	c #E3C76B",
"! 	c #E6CD79",
"~ 	c #E5CA74",
"{ 	c #D9B132",
"] 	c #DAAF35",
"^ 	c #FEFCF7",
"/ 	c #F8E48E",
"( 	c #F5DE91",
"_ 	c #F5E09F",
": 	c #F6E1AC",
"< 	c #FEFBEF",
"[ 	c #FEFDF4",
"} 	c #FEFCF3",
"| 	c #FEFCF1",
"1 	c #FEFBEE",
"2 	c #FFFDFA",
"3 	c #DAAF36",
"4 	c #DAAA36",
"5 	c #FDFAF1",
"6 	c #F5DE94",
"7 	c #F4DC93",
"8 	c #F2D581",
"9 	c #EDCA6A",
"0 	c #EACB6C",
"a 	c #EFD385",
"b 	c #EFD280",
"c 	c #EFD07A",
"d 	c #EECF76",
"e 	c #EECF72",
"f 	c #FBF7E9",
"g 	c #DAAE34",
"h 	c #DAAB35",
"i 	c #FBF6E8",
"j 	c #EFD494",
"k 	c #EECE88",
"l 	c #E9C173",
"m 	c #F6E9C9",
"n 	c #FEFCF2",
"o 	c #FEFCF0",
"p 	c #DAAB36",
"q 	c #DAA637",
"r 	c #FFFDF8",
"s 	c #FFFDF6",
"t 	c #FFFCF5",
"u 	c #FCF6D8",
"v 	c #F8E694",
"w 	c #F7E385",
"x 	c #F6DF76",
"y 	c #F5DB68",
"z 	c #F4D85C",
"A 	c #FCF4D7",
"B 	c #DAA435",
"C 	c #DAA136",
"D 	c #FEFCF6",
"E 	c #FCF2C8",
"F 	c #FBEFB9",
"G 	c #FAECAC",
"H 	c #F9E89C",
"I 	c #F7E38B",
"J 	c #F6E07C",
"K 	c #F6DC6C",
"L 	c #B4B75B",
"M 	c #759758",
"N 	c #668E4F",
"O 	c #618A47",
"P 	c #928C32",
"Q 	c #DA9A36",
"R 	c #FDFAF2",
"S 	c #FAEDB3",
"T 	c #F9E9A4",
"U 	c #F8E695",
"V 	c #F7E285",
"W 	c #F6DE76",
"X 	c #F5DB65",
"Y 	c #AEB354",
"Z 	c #81AB61",
"` 	c #B4D495",
" .	c #D0E6BA",
"..	c #8FBB6A",
"+.	c #578F2D",
"@.	c #376B19",
"#.	c #DA9435",
"$.	c #FEFAEF",
"%.	c #F9E9A1",
"&.	c #F8E591",
"*.	c #F7E181",
"=.	c #F6DE72",
"-.	c #F5DA63",
";.	c #F4D754",
">.	c #628944",
",.	c #B1D390",
"'.	c #B1D692",
").	c #FFFFFF",
"!.	c #8CBC65",
"~.	c #8FBC67",
"{.	c #D98E33",
"].	c #FAF0DC",
"^.	c #F4DDA7",
"/.	c #F4DB9E",
"(.	c #F3DA96",
"_.	c #F3D88E",
":.	c #F3D786",
"<.	c #F2D47F",
"[.	c #4C7B31",
"}.	c #B6D49C",
"|.	c #B2D295",
"1.	c #D8862C",
"2.	c #D8882D",
"3.	c #D8872D",
"4.	c #3E6D1C",
"5.	c #8BBA62",
"6.	c #87BA60",
"7.	c #87B960",
"8.	c #538C28",
"9.	c #8DBA64",
/* pixels */
"                                ",
"                                ",
"                                ",
"  . + @ @ @ # $ % % % % % & &   ",
"  * = - ; > - , ' ) ) ) ! ~ {   ",
"  ] ^ / ( _ : < [ } | < 1 2 3   ",
"  4 5 6 7 8 9 0 a b c d e f g   ",
"  h i j k l m n } n o < 1 - p   ",
"  q - r s t } u v w x y z A B   ",
"  C D E F G H I J K L M N O P   ",
"  Q R S T U V W X Y Z `  ...+.@.",
"  #.$.%.&.*.=.-.;.>.,.'.).!.~.@.",
"  {.].^./.(._.:.<.[.}.).).).|.@.",
"  1.2.3.2.2.2.2.2.4.5.6.).7.~.@.",
"                  @.8.9.|.9.8.@.",
"                    @.@.@.@.@.  "};
