/* XPM */
static const char * const options_xpm[] = {
/* columns rows colors chars-per-pixel */
"16 16 67 1",
/* colors */
" 	c None",
".	c #5F93CE",
"+	c #5F93CD",
"@	c #5F92CD",
"#	c #5F90CC",
"$	c #6192CD",
"%	c #6393CD",
"&	c #6191CB",
"*	c #5F8ECB",
"=	c #6492CA",
"-	c #8BAED8",
";	c #8BACD7",
">	c #FFFFFF",
",	c #89AAD6",
"'	c #9CC4ED",
")	c #9BC4ED",
"!	c #618CC6",
"~	c #5F91CD",
"{	c #C1DAF4",
"]	c #C2DBF4",
"^	c #5884C1",
"/	c #5E90CC",
"(	c #5781BE",
"_	c #5D8ECB",
":	c #557EBC",
"<	c #5C8CCA",
"[	c #547FBC",
"}	c #4C7DBA",
"|	c #4A7CBA",
"1	c #DEE5F0",
"2	c #547CB9",
"3	c #5B8AC8",
"4	c #4076B7",
"5	c #83A6D1",
"6	c #3873B6",
"7	c #EBEFF6",
"8	c #5378B6",
"9	c #5A88C7",
"0	c #336EB4",
"a	c #7EA5D0",
"b	c #2E6CB2",
"c	c #E6ECF5",
"d	c #5176B2",
"e	c #5B86C5",
"f	c #2C67AF",
"g	c #75A0CD",
"h	c #2B64AD",
"i	c #5072AC",
"j	c #5A86C4",
"k	c #749FCD",
"l	c #4F71A8",
"m	c #5882C2",
"n	c #4E6FA7",
"o	c #5580C0",
"p	c #4D6EA6",
"q	c #557DBE",
"r	c #547CBD",
"s	c #537BBC",
"t	c #5379BA",
"u	c #5177B6",
"v	c #5176B4",
"w	c #5074B1",
"x	c #4F72AD",
"y	c #4F71AA",
"z	c #4E6FA8",
"A	c #4D6EA7",
"B	c #4D6EA4",
/* pixels */
"                ",
" ....+@#$%&*=-; ",
" .>>>>>>>>>>>>, ",
" .>''')))))))>! ",
" ~>'{{]]]]]])>^ ",
" />))))))))))>( ",
" _>>>>>>>>>>>>: ",
" <>[}|>111111>2 ",
" 3>456>177771>8 ",
" 9>0ab>17cc71>d ",
" e>fgh>17cc71>i ",
" j>fkh>177771>l ",
" m>fhh>111111>n ",
" o>>>>>>>>>>>>p ",
" qrstuvwxyzApBp ",
"                "};
