/* XPM */
static const char * const options_disabled_xpm[] = {
/* columns rows colors chars-per-pixel */
"16 16 49 1",
/* colors */
" 	g None",
".	g #8A8A8A",
"+	g #898989",
"@	g #888888",
"#	g #8B8B8B",
"$	g #878787",
"%	g #A8A8A8",
"&	g #A7A7A7",
"*	g #FFFFFF",
"=	g #A5A5A5",
"-	g #BDBDBD",
";	g #BCBCBC",
">	g #868686",
",	g #D5D5D5",
"'	g #D6D6D6",
")	g #7E7E7E",
"!	g #7B7B7B",
"~	g #797979",
"{	g #858585",
"]	g #757575",
"^	g #747474",
"/	g #E4E4E4",
"(	g #777777",
"_	g #838383",
":	g #6D6D6D",
"<	g #A0A0A0",
"[	g #696969",
"}	g #EFEFEF",
"|	g #818181",
"1	g #646464",
"2	g #9E9E9E",
"3	g #616161",
"4	g #EBEBEB",
"5	g #727272",
"6	g #808080",
"7	g #5E5E5E",
"8	g #989898",
"9	g #5B5B5B",
"0	g #6E6E6E",
"a	g #979797",
"b	g #7D7D7D",
"c	g #6C6C6C",
"d	g #7A7A7A",
"e	g #6B6B6B",
"f	g #787878",
"g	g #767676",
"h	g #737373",
"i	g #707070",
"j	g #6A6A6A",
/* pixels */
"                ",
" .....+@.#+$#%& ",
" .************= ",
" .*---;;;;;;;*> ",
" +*-,,'''''';*) ",
" @*;;;;;;;;;;*! ",
" >************~ ",
" {*~]^*//////*( ",
" _*:<[*/}}}}/*^ ",
" |*123*/}44}/*5 ",
" 6*789*/}44}/*0 ",
" 6*7a9*/}}}}/*: ",
" b*799*//////*c ",
" d************e ",
" f(g]h5i0:ceeje ",
"                "};
