/* XPM */
static const char * const passwordchars_disabled_xpm[] = {
/* columns rows colors chars-per-pixel */
"16 16 43 1",
/* colors */
" 	c None",
"O	c #fdfdfd",
".	c #f6f6f6",
"X	c Gray93",
"o	c Gray91",
"+	c #bcbcbc",
"@	c #dadada",
"#	c #e6e6e6",
"$	c #cecece",
"%	c Gray40",
"&	c Gray84",
"*	c #e4e4e4",
"=	c Gray77",
"-	c #656565",
";	c Gray62",
":	c #9f9f9f",
">	c #f3f3f3",
",	c #a9a9a9",
"<	c #acacac",
"1	c Gray50",
"2	c #7b7b7b",
"3	c #5a5a5a",
"4	c #5f5f5f",
"5	c #d5d5d5",
"6	c Gray78",
"7	c Gray59",
"8	c #6f6f6f",
"9	c #767676",
"0	c Gray53",
"q	c Gray79",
"w	c #5b5b5b",
"e	c Gray25",
"r	c #aeaeae",
"t	c Gray69",
"y	c Gray",
"u	c #9a9a9a",
"i	c Gray19",
"p	c #484848",
"a	c Gray65",
"s	c #cdcdcd",
"d	c #c6c6c6",
"f	c #727272",
"g	c #4c4c4c",
/* pixels */
"OOOOO.Xo        ",
"OOOo+@##        ",
"OO.$%@&&        ",
"O$*=-&;:        ",
">,,<1234        ",
"X5671890        ",
"##q2wert        ",
"&qy2uipa        ",
"sd8utf9;        ",
"                ",
"     gg  ggg ggg",
"      g    g   g",
"      g   g   gg",
"      g  g     g",
"     ggg ggg ggg",
"                "};
