/* XPM */
static const char * const redo_disabled_xpm[] = {
/* columns rows colors chars-per-pixel */
"16 16 15 1",
/* colors */
" 	c None",
".	c Black",
"X	c Gray63",
"o	c #dddddd",
"O	c Gray91",
"+	c Gray16",
"@	c #ececec",
"#	c #d2d2d2",
"$	c #c3c3c3",
"%	c Gray42",
"&	c Gray47",
"*	c #4e4e4e",
"=	c #9d9d9d",
"-	c #888888",
";	c #5f5f5f",
/* pixels */
"         .      ",
"         ..     ",
"         .X.    ",
"     o....OX.   ",
"    X+X@O@o#X.  ",
"   X.o@###$$$X. ",
"  o.$@o#$$$$$$%.",
"  &*Oo=------;. ",
"  . O-------;.  ",
"  .o=-;...-;.   ",
"  .o-&.  .;.    ",
"  .#-.&  ..     ",
"  .%=.   .      ",
"  o.$.X         ",
"   .%X.         ",
"    ..&         "};
