/* XPM */
static const char * const runcmd_xpm[] = {
/* columns rows colors chars-per-pixel */
"16 16 112 2",
/* colors */
"  	c None",
". 	c #4597ff",
"X 	c #7aaff1",
"o 	c #aec6e3",
"O 	c #c8d0db",
"+ 	c #d3d5d7",
"@ 	c #d2d4d6",
"# 	c #c4cdd8",
"$ 	c #aac1df",
"% 	c #77abee",
"& 	c #a8c3e6",
"* 	c #d2d7dd",
"= 	c #e8ecf1",
"- 	c #f3f6fa",
"; 	c #fbfdfe",
": 	c #f2f5f9",
"> 	c #e5e9ee",
", 	c #c7cdd4",
"< 	c #9fbadd",
"1 	c #d4d8de",
"2 	c #f7f8fb",
"3 	c Gray100",
"4 	c #f6f9fc",
"5 	c #eef3fa",
"6 	c #edf3fa",
"7 	c #f4f8fc",
"8 	c #f3f6f9",
"9 	c #c4cad1",
"0 	c #9cb7da",
"q 	c #ebf1f9",
"w 	c #e9f0f9",
"e 	c #b1cae9",
"r 	c #e8eff9",
"t 	c #e6eff8",
"y 	c #e5eef8",
"u 	c #babfc7",
"i 	c #70a5e8",
"p 	c #aec5e2",
"a 	c #5384c3",
"s 	c #b0c9e9",
"d 	c #e3ecf7",
"f 	c #d8dfe7",
"g 	c #94abc8",
"h 	c #c7cfda",
"j 	c #5283c1",
"k 	c #adc8e8",
"l 	c #e1ebf7",
"z 	c #f1f5fb",
"x 	c #eaeff6",
"c 	c #a0a9b4",
"v 	c #d1d3d5",
"b 	c #ecf2fa",
"n 	c #e4edf7",
"m 	c #5283c0",
"M 	c #5587c8",
"N 	c #bed3ed",
"B 	c #dfe9f6",
"V 	c #f9fbfd",
"C 	c #a5a7a9",
"Z 	c #d0d2d4",
"A 	c #5586c6",
"S 	c #5180be",
"D 	c #dde8f6",
"F 	c #f1f5fa",
"G 	c #a0a2a4",
"H 	c #c2cbd6",
"J 	c #eff3f8",
"K 	c #f2f6fb",
"L 	c #5586c5",
"P 	c #dce7f5",
"I 	c #dbe4ef",
"U 	c #949ca7",
"Y 	c #a7bedc",
"T 	c #e1e5ec",
"R 	c #fefeff",
"E 	c #e0eaf6",
"W 	c #5180bd",
"Q 	c #dbe6f5",
"! 	c #dae5f5",
"~ 	c #fafcfe",
"^ 	c #bfc9d6",
"/ 	c #8198b6",
"( 	c #73a8eb",
") 	c #bec3ca",
"_ 	c #edf1f7",
"` 	c #d8e5f4",
"' 	c #dce4ef",
"] 	c #929aa3",
"[ 	c #6398db",
"{ 	c #94b0d2",
"} 	c #b3bbc3",
"| 	c #e8eef4",
" .	c #eff4fb",
"..	c #dbe4ee",
"X.	c #919ca8",
"o.	c #7994b7",
"O.	c #8ca7ca",
"+.	c #a3abb3",
"@.	c #c8d1dc",
"#.	c #e1e8f1",
"$.	c #d6e0ed",
"%.	c #b8c3d2",
"&.	c #8c949f",
"*.	c #7792b5",
"=.	c #689de0",
"-.	c #839bb8",
";.	c #8e97a2",
":.	c #949698",
">.	c #909295",
",.	c #88919c",
"<.	c #7991ae",
"1.	c #6095d8",
/* pixels */
"        . . . . . . . .         ",
"    . . X o O + @ # $ % . .     ",
"  . . & * = - ; ; : > , < . .   ",
"  . & 1 2 3 4 5 6 7 3 8 9 0 .   ",
". X * 2 3 q w e r t y 3 8 u i . ",
". p = 3 q w r a s y d d 3 f g . ",
". h - 7 r r t j j k d l z x c . ",
". v ; b r y n m m M N B d V C . ",
". Z ; q y n d m A S q D l F G . ",
". H J K d d l L S q D P 5 I U . ",
". Y T R l E B W q P Q ! ~ ^ / . ",
". ( ) _ 3 D D q Q ! ` R ' ] [ . ",
"  . { } | R  .l E 6 ~ ..X.o..   ",
"  . . O.+.@.#.K 5 $.%.&.*.. .   ",
"    . . =.-.;.:.>.,.<.1.. .     ",
"        . . . . . . . .         "};
