/* XPM */
static const char * const runcmd_disabled_xpm[] = {
/* columns rows colors chars-per-pixel */
"16 16 77 1",
/* colors */
" 	c None",
".	c Gray54",
"X	c #a7a7a7",
"o	c Gray76",
"O	c Gray81",
"+	c #d5d5d5",
"@	c Gray83",
"#	c Gray80",
"$	c #bebebe",
"%	c Gray64",
"&	c Gray75",
"*	c Gray84",
"=	c Gray92",
"-	c #f6f6f6",
";	c #fdfdfd",
":	c Gray96",
">	c Gray91",
",	c #b6b6b6",
"<	c #d7d7d7",
"1	c #f8f8f8",
"2	c Gray100",
"3	c Gray95",
"4	c Gray97",
"5	c Gray79",
"6	c Gray70",
"7	c Gray94",
"8	c #efefef",
"9	c #c6c6c6",
"0	c #eeeeee",
"q	c Gray93",
"w	c #ececec",
"e	c #9d9d9d",
"r	c #c1c1c1",
"t	c Gray49",
"y	c #c5c5c5",
"u	c Gray87",
"i	c #cecece",
"p	c #7b7b7b",
"a	c Gray77",
"s	c #e9e9e9",
"d	c #f4f4f4",
"f	c Gray66",
"g	c #d3d3d3",
"h	c #f1f1f1",
"j	c Gray50",
"k	c #d0d0d0",
"l	c #e7e7e7",
"z	c #fbfbfb",
"x	c #d2d2d2",
"c	c #797979",
"v	c #e6e6e6",
"b	c #a2a2a2",
"n	c #cacaca",
"m	c Gray90",
"M	c Gray89",
"N	c #9b9b9b",
"B	c #bbbbbb",
"V	c #fefefe",
"C	c #e4e4e4",
"Z	c Gray99",
"A	c Gray78",
"S	c #959595",
"D	c #a0a0a0",
"F	c Gray60",
"G	c #909090",
"H	c #acacac",
"J	c Gray73",
"K	c #f3f3f3",
"L	c #e2e2e2",
"P	c #9a9a9a",
"I	c #aaaaaa",
"U	c #939393",
"Y	c #8e8e8e",
"T	c #979797",
"R	c Gray59",
"E	c #929292",
"W	c #8d8d8d",
/* pixels */
"    ........    ",
"  ..XoO+@#$%..  ",
" ..&*=-;;:>#,.. ",
" .&<1213342:56. ",
".X*127890qw2:$e.",
".r=2780tyw==2uX.",
".i-400qppa=sd0f.",
".g;h0w=ppjkl=zX.",
".x;7w==pjc7vsdb.",
".n3:==sjc7vm3MN.",
".BmVs>lc7mCCZAS.",
".Do72vv7CCMVMFG.",
" .HJqVKs>3ZLPG. ",
" ..%Ikl:3urUY.. ",
"  ..STRREGWW..  ",
"    ........    "};
