/* XPM */
static const char * const saveas_disabled_xpm[] = {
/* columns rows colors chars-per-pixel */
"16 16 76 1",
/* colors */
" 	c None",
".	c #929292",
"X	c #9a9a9a",
"o	c #939393",
"O	c #a0a0a0",
"+	c Gray54",
"@	c #8b8b8b",
"#	c #959595",
"$	c Gray58",
"%	c #868686",
"&	c Gray32",
"*	c #888888",
"=	c Gray79",
"-	c Gray100",
";	c Gray77",
":	c #bbbbbb",
">	c #848484",
",	c #818181",
"<	c #9d9d9d",
"1	c Gray60",
"2	c Gray62",
"3	c #aaaaaa",
"4	c Gray59",
"5	c #979797",
"6	c Gray51",
"7	c #bcbcbc",
"8	c #cecece",
"9	c #cacaca",
"0	c Gray96",
"q	c #f1f1f1",
"w	c #b4b4b4",
"e	c Gray72",
"r	c Gray69",
"t	c #b9b9b9",
"y	c #7b7b7b",
"u	c Gray70",
"i	c Gray73",
"p	c #8e8e8e",
"a	c Gray98",
"s	c Gray97",
"d	c Gray67",
"f	c Gray52",
"g	c #797979",
"h	c #909090",
"j	c #afafaf",
"k	c Gray99",
"l	c #fdfdfd",
"z	c #fbfbfb",
"x	c #a4a4a4",
"c	c Gray49",
"v	c Gray80",
"b	c #898989",
"n	c #b7b7b7",
"m	c Gray63",
"M	c #9b9b9b",
"N	c Gray50",
"B	c #626262",
"V	c Gray",
"C	c Gray48",
"Z	c #a2a2a2",
"A	c Gray61",
"S	c Gray94",
"D	c Gray93",
"F	c Gray95",
"G	c #989898",
"H	c #6a6a6a",
"J	c #efefef",
"K	c #b1b1b1",
"L	c #d7d7d7",
"P	c #e2e2e2",
"I	c Gray89",
"U	c #646464",
"Y	c Gray56",
"T	c Gray55",
"R	c #686868",
"E	c #585858",
/* pixels */
"                ",
" .XoO+@#$%&     ",
" *=-;----:>     ",
" ,:<123455.%&   ",
" 67#8-9--0q:>   ",
" *w>e.XoO+@#$%& ",
" %r%t*=-;----:> ",
" yuoi,:-p--asdf ",
" gwhj67kkllzkxg ",
" cvbn*wOm2MMX1N ",
" BVCr%rZZ2AX1#g ",
"   cvyuSDDDDFGH ",
"   BVgwJmrKmJXB ",
"     cvzLPILzOU ",
"     BVbYT@+bRE ",
"                "};
