/* XPM */
static const char * const save_disabled_xpm[] = {
"16 16 79 1",
/* colors */
" 	g None",
"&	g #646464",
".	g #666666",
"+	g #686868",
"@	g #676767",
"#	g #656565",
"$	g #6A6A6A",
"%	g #626262",
"*	g #DEDEDE",
"=	g #FAFAFA",
"-	g #F9F9F9",
";	g #F4F4F4",
">	g #EFEFEF",
",	g #F2F2F2",
"'	g #F0F0F0",
")	g #E8E8E8",
"!	g #CECECE",
"~	g #838383",
"{	g #DDDDDD",
"]	g #A5A5A5",
"^	g #878787",
"/	g #F5F5F5",
"(	g #EAEAEA",
"_	g #E5E5E5",
":	g #CDCDCD",
"<	g #A3A3A3",
"[	g #F3F3F3",
"}	g #E7E7E7",
"|	g #9E9E9E",
"1	g #D3D3D3",
"2	g #DBDBDB",
"3	g #888888",
"4	g #F7F7F7",
"5	g #E3E3E3",
"6	g #9D9D9D",
"7	g #BFBFBF",
"8	g #D9D9D9",
"9	g #A2A2A2",
"0	g #EBEBEB",
"a	g #F6F6F6",
"b	g #ECECEC",
"c	g #9B9B9B",
"d	g #BBBBBB",
"e	g #616161",
"f	g #D7D7D7",
"g	g #A1A1A1",
"h	g #898989",
"i	g #8D8D8D",
"j	g #8B8B8B",
"k	g #979797",
"l	g #B6B6B6",
"m	g #606060",
"n	g #D5D5D5",
"o	g #9F9F9F",
"p	g #9A9A9A",
"q	g #999999",
"r	g #989898",
"s	g #B1B1B1",
"t	g #5F5F5F",
"u	g #9C9C9C",
"v	g #969696",
"w	g #ADADAD",
"x	g #5E5E5E",
"y	g #CFCFCF",
"z	g #949494",
"A	g #A7A7A7",
"B	g #5D5D5D",
"C	g #919191",
"D	g #5C5C5C",
"E	g #CBCBCB",
"F	g #8E8E8E",
"G	g #5B5B5B",
"H	g #C9C9C9",
"I	g #D1D1D1",
"J	g #C7C7C7",
"K	g #5A5A5A",
"L	g #636363",
"M	g #C3C3C3",
"N	g #C2C2C2",
/* pixels */
"&&&&&&&&&.+@#$% ",
"&**==-;>,--')!~%",
"&{]--^,'/=/(_:!$",
"&{<//^'[-->}_|1%",
"&2<>>3>4=[)_567%",
"&89((0[-ab_55cde",
"&fg^3hiij^^^^klm",
"&no|oo||6cpqkrst",
"&1||||o6ucqrvvwx",
"&y|||||upprvzzAB",
"&:6==========C<D",
"#E6=]]]]]]]]-FoG",
"#H6=IIIIIIII-jcG",
"&J6=]]]]]]]]-3kK",
"LMN==========vzK",
"&L%%%emtxBDGKKKG"};
