/* XPM */
static const char * const sendemail_disabled_xpm[] = {
"16 16 106 2",
/* colors */
"  	g None",
". 	g #969696",
"+ 	g #A0A0A0",
"@ 	g #929292",
"# 	g #898989",
"$ 	g #888888",
"% 	g #878787",
"& 	g #858585",
"* 	g #848484",
"= 	g #828282",
"- 	g #808080",
"; 	g #7E7E7E",
"> 	g #7C7C7C",
", 	g #7A7A7A",
"' 	g #717171",
") 	g #4D4D4D",
"! 	g #A8A8A8",
"~ 	g #FAFAFA",
"{ 	g #F5F5F5",
"] 	g #FBFBFB",
"^ 	g #FCFCFC",
"/ 	g #FDFDFD",
"( 	g #F6F6F6",
"_ 	g #EFEFEF",
": 	g #6D6D6D",
"< 	g #999999",
"[ 	g #B0B0B0",
"} 	g #E6E6E6",
"| 	g #F4F4F4",
"1 	g #E7E7E7",
"2 	g #E8E8E8",
"3 	g #EAEAEA",
"4 	g #EBEBEB",
"5 	g #EDEDED",
"6 	g #F9F9F9",
"7 	g #E9E9E9",
"8 	g #A5A5A5",
"9 	g #E2E2E2",
"0 	g #818181",
"a 	g #919191",
"b 	g #C9C9C9",
"c 	g #B1B1B1",
"d 	g #F2F2F2",
"e 	g #A9A9A9",
"f 	g #B6B6B6",
"g 	g #C8C8C8",
"h 	g #F8F8F8",
"i 	g #F3F3F3",
"j 	g #ECECEC",
"k 	g #ABABAB",
"l 	g #BCBCBC",
"m 	g #D2D2D2",
"n 	g #E5E5E5",
"o 	g #E3E3E3",
"p 	g #C2C2C2",
"q 	g #A6A6A6",
"r 	g #D7D7D7",
"s 	g #787878",
"t 	g #DFDFDF",
"u 	g #C7C7C7",
"v 	g #B2B2B2",
"w 	g #9A9A9A",
"x 	g #DBDBDB",
"y 	g #707070",
"z 	g #E0E0E0",
"A 	g #CCCCCC",
"B 	g #E4E4E4",
"C 	g #959595",
"D 	g #BBBBBB",
"E 	g #909090",
"F 	g #F0F0F0",
"G 	g #696969",
"H 	g #CDCDCD",
"I 	g #868686",
"J 	g #BFBFBF",
"K 	g #BDBDBD",
"L 	g #BABABA",
"M 	g #A7A7A7",
"N 	g #B5B5B5",
"O 	g #626262",
"P 	g #585858",
"Q 	g #A4A4A4",
"R 	g #A1A1A1",
"S 	g #9E9E9E",
"T 	g #9D9D9D",
"U 	g #AEAEAE",
"V 	g #565656",
"W 	g #5D5D5D",
"X 	g #686868",
"Y 	g #747474",
"Z 	g #7B7B7B",
"` 	g #B7B7B7",
" .	g #B4B4B4",
"..	g #9F9F9F",
"+.	g #575757",
"@.	g #757575",
"#.	g #6E6E6E",
"$.	g #6A6A6A",
"%.	g #656565",
"&.	g #ADADAD",
"*.	g #535353",
"=.	g #4F4F4F",
"-.	g #5A5A5A",
";.	g #838383",
">.	g #515151",
",.	g #525252",
/* pixels */
"                                ",
"                                ",
". + @ # $ % & * = - ; > , , ' ) ",
"! ~ { ] ] ] ] ^ ^ ^ ^ / / ( _ : ",
"< { [ } | 1 2 3 4 5 _ 6 7 8 9 0 ",
"a ] b c 2 ( 4 5 _ d ~ 4 e f d 0 ",
"# ] 9 g c 7 h d i ] j k l m d 0 ",
"0 ] n o p q 4 ] ^ 5 $ 0 r r d 0 ",
"s ] } t u   v } 1 v & w s x d 0 ",
"y ~ z A t B # % * - C D E : F 0 ",
"G h H 9 3 3 I J K D L M N $ O - ",
"P d 4 | ( ( 0 K Q R S w T U - V ",
") W X : ' Y Z L `  .v ..U $ +.) ",
"            @.#.$.%.- &.& *.=.  ",
"                    -.;.>.=.    ",
"                    *.,.)       "};
