/* XPM */
static const char * const sendemail_xpm[] = {
/* columns rows colors chars-per-pixel */
"16 16 166 2",
/* colors */
"  	c None",
". 	c #7C9AC8",
"+ 	c #84A4D5",
"@ 	c #7097D0",
"# 	c #648FCC",
"$ 	c #628ECC",
"% 	c #608ECB",
"& 	c #5D8CCA",
"* 	c #5B8BC9",
"= 	c #588AC8",
"- 	c #5688C7",
"; 	c #5386C6",
"> 	c #5084C5",
", 	c #4D82C4",
"' 	c #4D83C1",
") 	c #4879B2",
"! 	c #2B518E",
"~ 	c #91ABD7",
"{ 	c #F8FAFD",
"] 	c #F1F5FC",
"^ 	c #F9FCFF",
"/ 	c #FAFCFF",
"( 	c #FBFCFF",
"_ 	c #FBFDFF",
": 	c #FCFDFF",
"< 	c #F3F6FB",
"[ 	c #EAEFF8",
"} 	c #4377AB",
"| 	c #7B9DD3",
"1 	c #F2F6FB",
"2 	c #96B4E3",
"3 	c #DCE8F9",
"4 	c #EEF5FE",
"5 	c #DAE9FD",
"6 	c #DCEAFD",
"7 	c #DEECFD",
"8 	c #E1EDFD",
"9 	c #E4EFFE",
"0 	c #E7F1FE",
"a 	c #F6FAFF",
"b 	c #E0EAF9",
"c 	c #85AAE2",
"d 	c #D9E4F1",
"e 	c #508CC8",
"f 	c #7096D0",
"g 	c #F9FBFD",
"h 	c #B1CDF1",
"i 	c #96B5E3",
"j 	c #DEE9F9",
"k 	c #F1F7FE",
"l 	c #EAF3FE",
"m 	c #F7FAFF",
"n 	c #E3ECF9",
"o 	c #8AAEE2",
"p 	c #95BCF0",
"q 	c #ECF4F8",
"r 	c #668ECC",
"s 	c #D3E5FD",
"t 	c #B2CCF1",
"u 	c #F5F9FF",
"v 	c #EDF4FE",
"w 	c #F9FBFF",
"x 	c #E5EDF9",
"y 	c #8DB0E3",
"z 	c #9EC1F0",
"A 	c #B7D7FC",
"B 	c #EDF3F8",
"C 	c #5B86C9",
"D 	c #D7E8FD",
"E 	c #D4E6FD",
"F 	c #ABC6ED",
"G 	c #89AADC",
"H 	c #E6EEF9",
"I 	c #6DA344",
"J 	c #659F31",
"K 	c #C0DBFC",
"L 	c #507DC5",
"M 	c #D8E9FD",
"N 	c #D0E1F9",
"O 	c #B3CAEB",
"P 	c #A7C5EC",
"Q 	c #98B6E3",
"R 	c #DDE7F7",
"S 	c #DEE8F7",
"T 	c #97B6E3",
"U 	c #68A240",
"V 	c #81B35A",
"W 	c #579828",
"X 	c #C6DFFC",
"Y 	c #508DC8",
"Z 	c #4676C2",
"` 	c #F8FBFD",
" .	c #D2E3F9",
"..	c #B9CFEC",
"+.	c #D0E1F8",
"@.	c #D6E7FD",
"#.	c #6FA53D",
"$.	c #6EA33A",
"%.	c #68A136",
"&.	c #629E32",
"*.	c #7CAF55",
"=.	c #AACB91",
"-.	c #74AB4F",
";.	c #47901B",
">.	c #EBF2F7",
",.	c #508CC9",
"'.	c #3C6FBE",
").	c #F5F9FC",
"!.	c #BCD0EC",
"~.	c #D6E4F9",
"{.	c #DFECFE",
"].	c #DFEBFE",
"^.	c #6BA337",
"/.	c #B0CE96",
"(.	c #ADCD94",
"_.	c #A8CB90",
":.	c #90BC74",
"<.	c #A1C78A",
"[.	c #68A546",
"}.	c #38890B",
"|.	c #508BC6",
"1.	c #315DA3",
"2.	c #EEF3F8",
"3.	c #E4ECF5",
"4.	c #F0F5FB",
"5.	c #F1F7FB",
"6.	c #F3F7FB",
"7.	c #639F31",
"8.	c #8EBA6F",
"9.	c #89B86B",
"0.	c #85B666",
"a.	c #80B361",
"b.	c #82B567",
"c.	c #98C283",
"d.	c #5CA03C",
"e.	c #267F03",
"f.	c #3163B0",
"g.	c #3870BB",
"h.	c #3C77BE",
"i.	c #407BC1",
"j.	c #427EC2",
"k.	c #5B9B29",
"l.	c #A9CA90",
"m.	c #A5C88D",
"n.	c #A1C68A",
"o.	c #9EC588",
"p.	c #85B66A",
"q.	c #97C282",
"r.	c #66A548",
"s.	c #257C18",
"t.	c #2A5387",
"u.	c #519721",
"v.	c #49911B",
"w.	c #438F15",
"x.	c #3B8B0F",
"y.	c #5E9F3A",
"z.	c #96C180",
"A.	c #62A346",
"B.	c #1F7D00",
"C.	c #197900",
"D.	c #2B8301",
"E.	c #5FA143",
"F.	c #1F7B00",
"G.	c #217D00",
"H.	c #1E7B03",
"I.	c #157900",
/* pixels */
"                                ",
"                                ",
". + @ # $ % & * = - ; > , ' ) ! ",
"~ { ] ^ ^ ^ ^ / / / ( _ : < [ } ",
"| 1 2 3 4 5 6 7 8 9 0 a b c d e ",
"f g h i j k 8 9 0 l m n o p q e ",
"r g s t i b u l v w x y z A B e ",
"C g D E F G n w / H I J K K B e ",
"L g M N O P Q R S T U V W X B Y ",
"Z `  ...+.@.#.$.%.&.*.=.-.;.>.,.",
"'.).!.~.{.].^./.(.=._.:.<.[.}.|.",
"1.2.3.4.5.6.7.(.8.9.0.a.b.c.d.e.",
"! f.g.h.i.j.k.l.m.n.o.p.q.r.s.t.",
"            u.v.w.x.y.z.A.B.C.  ",
"                    D.E.F.C.    ",
"                    G.H.I.      "};
