/* XPM */
static const char * const setfilter_disabled_xpm[] = {
/* columns rows colors chars-per-pixel */
"16 16 109 2",
/* colors */
"  	c None",
". 	c #9b9b9b",
"X 	c Gray69",
"o 	c #a9a9a9",
"O 	c Gray64",
"+ 	c #a0a0a0",
"@ 	c #989898",
"# 	c Gray71",
"$ 	c Gray100",
"% 	c #f8f8f8",
"& 	c #f1f1f1",
"* 	c #e7e7e7",
"= 	c #e2e2e2",
"- 	c #dadada",
"; 	c #c3c3c3",
": 	c Gray58",
"> 	c Gray74",
", 	c Gray93",
"< 	c #efefef",
"1 	c #f4f4f4",
"2 	c #f6f6f6",
"3 	c #f9f9f9",
"4 	c Gray99",
"5 	c Gray98",
"6 	c #d5d5d5",
"7 	c #909090",
"8 	c #fdfdfd",
"9 	c Gray90",
"0 	c Gray91",
"q 	c Gray92",
"w 	c #eeeeee",
"e 	c Gray60",
"r 	c #fbfbfb",
"t 	c #aeaeae",
"y 	c Gray55",
"u 	c #cacaca",
"i 	c Gray96",
"p 	c #dddddd",
"a 	c #dfdfdf",
"s 	c Gray88",
"d 	c Gray89",
"f 	c #e6e6e6",
"g 	c #fefefe",
"h 	c Gray59",
"j 	c Gray83",
"k 	c #868686",
"l 	c Gray84",
"z 	c #d8d8d8",
"x 	c Gray86",
"c 	c Gray87",
"v 	c Gray82",
"b 	c Gray67",
"n 	c #b9b9b9",
"m 	c #a2a2a2",
"M 	c #959595",
"N 	c #818181",
"B 	c #e4e4e4",
"V 	c Gray80",
"C 	c Gray76",
"Z 	c #7c7c7c",
"A 	c #d7d7d7",
"S 	c Gray85",
"D 	c #d3d3d3",
"F 	c #c6c6c6",
"G 	c Gray66",
"H 	c #767676",
"J 	c Gray48",
"K 	c #cdcdcd",
"L 	c #d2d2d2",
"P 	c Gray95",
"I 	c #a4a4a4",
"U 	c Gray44",
"Y 	c #f3f3f3",
"T 	c Gray42",
"R 	c Gray49",
"E 	c #bcbcbc",
"W 	c #777777",
"Q 	c Gray40",
"! 	c #c1c1c1",
"~ 	c Gray70",
"^ 	c Gray73",
"/ 	c Gray77",
"( 	c Gray38",
") 	c Gray62",
"_ 	c Gray53",
"` 	c Gray72",
"' 	c Gray81",
"] 	c #9f9f9f",
"[ 	c #b7b7b7",
"{ 	c Gray36",
"} 	c #8b8b8b",
"| 	c #a5a5a5",
" .	c #838383",
"..	c Gray61",
"X.	c #979797",
"o.	c #585858",
"O.	c Gray54",
"+.	c #b6b6b6",
"@.	c Gray41",
"#.	c #d0d0d0",
"$.	c #929292",
"%.	c #e9e9e9",
"&.	c DimGray",
"*.	c Gray25",
"=.	c #656565",
"-.	c #848484",
";.	c #606060",
":.	c Gray39",
">.	c Gray43",
/* pixels */
"    . . X o O + . . . . . . . . ",
"    @ # $ $ $ $ % & * = - ; @ @ ",
"    : > $ , < & 1 2 3 4 $ 5 6 : ",
"    7 ; 8 9 * 0 q , w w $ e r t ",
"    y u i p a s d 9 f 0 g h j y ",
"    k j q l z - x c c v b n m M ",
"    N B = 6 6 l z z V C z i l h ",
"    Z i x l A A S V D B F S 9 G ",
"  H J 5 A A A l K L P z u b I . ",
"  U Z r A l A u v Y 6 S j + @   ",
"  T R g S A E u Y 6 z D I W     ",
"Q Q G w ! ~ ^ P z S v O / Q     ",
"( ( R ) _ ` ^ / A ' ] A [ (     ",
"{ ] $ $ } 1 |  ...X.| f b {     ",
"o.O.+.; @.#.v $.W * %.w @ o.    ",
"&.&.&.&.*.=.7 -.;.:.>.Z &.&.    "};
