/* XPM */
static const char * const setfilter_xpm[] = {
/* columns rows colors chars-per-pixel */
"16 16 188 2",
/* colors */
"  	c None",
". 	c #5face2",
"X 	c #81bcea",
"o 	c #77b7e8",
"O 	c #6db2e6",
"+ 	c #68b0e4",
"@ 	c #5da8de",
"# 	c #8cc0ea",
"$ 	c Gray100",
"% 	c #f4f9fd",
"& 	c #eaf3fb",
"* 	c #d9ebf8",
"= 	c #d3e6f8",
"- 	c #c6dff5",
"; 	c #a6cbe9",
": 	c #5ba4da",
"> 	c #9ac6eb",
", 	c #e2effc",
"< 	c #e7f0fd",
"1 	c #ebf1fd",
"2 	c #eef5fd",
"3 	c #f1f8fd",
"4 	c #f7fafd",
"5 	c #fafcff",
"6 	c #f7fbfe",
"7 	c #c0daf4",
"8 	c #589fd5",
"9 	c #a5caeb",
"0 	c #fbfdff",
"q 	c #d5e9fd",
"w 	c #d8ebfd",
"e 	c #dbeafd",
"r 	c #dfedfd",
"t 	c #e2f0fd",
"y 	c #e4f1fd",
"u 	c #e4f0fc",
"i 	c #70a0e0",
"p 	c #f9fbff",
"a 	c #87b8df",
"s 	c #559ad0",
"d 	c #b2d0ed",
"f 	c #f0f6ff",
"g 	c #cae1fa",
"h 	c #cce3fb",
"j 	c #d0e3fb",
"k 	c #d3e6fb",
"l 	c #d5e9fb",
"z 	c #d8e9fc",
"x 	c #dbeafc",
"c 	c #fdffff",
"v 	c #719dd2",
"b 	c #c1d9ee",
"n 	c #5294ca",
"m 	c #c1d9f0",
"M 	c #e1edfb",
"N 	c #c0daf9",
"B 	c #c2dcf9",
"V 	c #c5def9",
"C 	c #c7e0fa",
"Z 	c #cae2fa",
"A 	c #cde2fa",
"S 	c #d5d4b9",
"D 	c #d8a558",
"F 	c #dbb185",
"G 	c #d09d46",
"H 	c #a9955e",
"J 	c #4e8ec4",
"K 	c #d8e7f5",
"L 	c #d2e5fa",
"P 	c #bcdaf9",
"I 	c #bcdbf9",
"U 	c #bfdbfa",
"Y 	c #c1ddfa",
"T 	c #cfd0ad",
"R 	c #e7be77",
"E 	c #f0d2b4",
"W 	c #fff3e5",
"Q 	c #efd2ac",
"! 	c #c78c48",
"~ 	c #4b88bd",
"^ 	c #f0f6fc",
"/ 	c #c7dff9",
"( 	c #bddcf9",
") 	c #bfdcfa",
"_ 	c #c1dbfa",
"` 	c #c3ddfa",
"' 	c #cdd0b2",
"] 	c #edd581",
"[ 	c #f9e3b2",
"{ 	c #e7c08b",
"} 	c #f6d3ae",
"| 	c #fce0c4",
" .	c #d39f66",
"..	c #4782b7",
"X.	c #4b85b9",
"o.	c #c1dcf9",
"O.	c #bfdcf8",
"+.	c #c0dbf8",
"@.	c #cad2bd",
"#.	c #eed47d",
"$.	c #fdf6c4",
"%.	c #f6dd6c",
"&.	c #edca6d",
"*.	c #d7a363",
"=.	c #d29b5d",
"-.	c #ca9251",
";.	c #437bb1",
":.	c #5286b9",
">.	c #f9fcfe",
",.	c #bfdcf9",
"<.	c #bfdbf8",
"1.	c #c0dcf8",
"2.	c #c9cebb",
"3.	c #eed379",
"4.	c #fdf7c7",
"5.	c #f5dc5f",
"6.	c #f7e25b",
"7.	c #f2d67a",
"8.	c #d29749",
"9.	c #cd8d44",
"0.	c #4075aa",
"q.	c #5686b7",
"w.	c #fdfefe",
"e.	c #c2defa",
"r.	c #bdbead",
"t.	c #e7cb77",
"y.	c #f5dc5e",
"u.	c #f7e15a",
"i.	c #f1d47b",
"p.	c #db994b",
"a.	c #657b8e",
"s.	c #3c6fa4",
"d.	c #8caed5",
"f.	c #e5f0fd",
"g.	c #a2c7f7",
"h.	c #b0b6af",
"j.	c #d5b976",
"k.	c #fdf6c2",
"l.	c #f7df63",
"z.	c #f8e25d",
"x.	c #f0d379",
"c.	c #dc984a",
"v.	c #bec6cd",
"b.	c #39699e",
"n.	c #5985b4",
"m.	c #7ba5d9",
"M.	c #80898f",
"N.	c #d5b67a",
"B.	c #d1b790",
"V.	c #e4c955",
"C.	c #f5df5b",
"Z.	c #edd078",
"A.	c #d0954f",
"S.	c #d2d8e0",
"D.	c #a2bbd8",
"F.	c #366499",
"G.	c #85a4c7",
"H.	c #aa8943",
"J.	c #fff2e0",
"K.	c #d89a54",
"L.	c #be7a1a",
"P.	c #c59849",
"I.	c #c68e49",
"U.	c #93a7c6",
"Y.	c #dbe8fa",
"T.	c #95afce",
"R.	c #335f94",
"E.	c #6d90b8",
"W.	c #a3bad6",
"Q.	c #b3c6df",
"!.	c #84672e",
"~.	c #f9c794",
"^.	c #f9c991",
"/.	c #c98541",
"(.	c #ae6b27",
").	c #f0e5d8",
"_.	c #dfebfb",
"`.	c #e6effb",
"'.	c #809dc1",
"].	c #315b90",
"[.	c #543e14",
"{.	c #865f29",
"}.	c #bb874a",
"|.	c #9b8155",
" X	c #496487",
".X	c #41699a",
"XX	c #4f74a3",
"oX	c #5f82ad",
/* pixels */
"    . . X o O + . . . . . . . . ",
"    @ # $ $ $ $ % & * = - ; @ @ ",
"    : > $ , < 1 2 3 4 5 $ 6 7 : ",
"    8 9 0 q w e r t y u $ i p a ",
"    s d f g h j k l z x c v b s ",
"    n m M N B V C Z A S D F G H ",
"    J K L P I U Y Y T R E W Q ! ",
"    ~ ^ / ( ) _ ` ' ] [ { } |  .",
"  ..X.6 o.O.O.+.@.#.$.%.&.*.=.-.",
"  ;.:.>.,.<.1.2.3.4.5.6.7.8.9.  ",
"  0.q.w.e.) r.t.4.y.u.i.p.a.    ",
"s.s.d.f.g.h.j.k.l.z.x.c.v.s.    ",
"b.b.n.m.M.N.B.V.C.Z.A.S.D.b.    ",
"F.G.$ $ H.J.K.L.P.I.U.Y.T.F.    ",
"R.E.W.Q.!.~.^./.(.)._.`.'.R.    ",
"].].].].[.{.}.|. X.XXXoX].].    "};
