/* XPM */
static const char * const synchronize_xpm[] = {
/* columns rows colors chars-per-pixel */
"16 16 45 1",
/* colors */
" 	c None",
".	c #74c768",
"X	c #71c365",
"o	c #8bcd80",
"O	c #87c97c",
"+	c #68b85d",
"@	c #62b158",
"#	c #5ca953",
"$	c #56a14d",
"%	c #4f9947",
"&	c #499141",
"*	c #42883b",
"=	c #3b8035",
"-	c #35782f",
";	c #2f702a",
":	c #8acc7f",
">	c #abd8a2",
",	c #a7d69e",
"<	c #a3d49a",
"1	c #9fd296",
"2	c #9acf93",
"3	c #95cc8e",
"4	c #90ca89",
"5	c #8bc785",
"6	c #87c581",
"7	c #82c27d",
"8	c #7ec078",
"9	c #296925",
"0	c #86c87b",
"q	c #a5d59c",
"w	c #a1d398",
"e	c #9dd094",
"r	c #98ce90",
"t	c #93cb8b",
"y	c #8ec987",
"u	c #89c682",
"i	c #84c37e",
"p	c #80c17a",
"a	c #7cbe76",
"s	c #78bd72",
"d	c #246321",
"f	c #7bbe71",
"g	c #83c17a",
"h	c #64aa5b",
"j	c #205e1d",
/* pixels */
"                ",
"                ",
"                ",
"                ",
"   ..           ",
"   .X           ",
"  .oO+@#$%&*=-; ",
" .:>,<123456789 ",
" X0qwertyuipasd ",
"  +fgh%&*=-;9dj ",
"   #$%          ",
"   $%           ",
"                ",
"                ",
"                ",
"                "};
