/* XPM */
static const char * const unlock_xpm[] = {
"16 16 156 2",
"  	c None",
". 	c #A4A4A4",
"+ 	c #A1A1A1",
"@ 	c #9A9A9A",
"# 	c #969696",
"$ 	c #929292",
"% 	c #AEAEAE",
"& 	c #C8C8C8",
"* 	c #CACACA",
"= 	c #BEBEBE",
"- 	c #9B9B9B",
"; 	c #878787",
"> 	c #ADADAD",
", 	c #C7C7C7",
"' 	c #AAAAAA",
") 	c #9F9F9F",
"! 	c #B4B4B4",
"~ 	c #7A7A7A",
"{ 	c #939393",
"] 	c #ACACAC",
"^ 	c #868686",
"/ 	c #8F8F8F",
"( 	c #A2A2A2",
"_ 	c #BCBCBC",
": 	c #B9B9B9",
"< 	c #919191",
"[ 	c #E1C361",
"} 	c #959390",
"| 	c #8E8E8E",
"1 	c #DCB95A",
"2 	c #DFB855",
"3 	c #DEB551",
"4 	c #DDB14D",
"5 	c #DCAD49",
"6 	c #D7A846",
"7 	c #D59A36",
"8 	c #D69A35",
"9 	c #D89931",
"0 	c #E1C260",
"a 	c #FCF3C9",
"b 	c #FDF3CB",
"c 	c #FEF6D4",
"d 	c #FFF6D7",
"e 	c #FFF4D8",
"f 	c #FFF8E0",
"g 	c #FFF8DF",
"h 	c #FFF5DA",
"i 	c #FAEBBD",
"j 	c #D6932B",
"k 	c #E0BF5C",
"l 	c #FCF3C8",
"m 	c #F9DF75",
"n 	c #FDE689",
"o 	c #FFE795",
"p 	c #FFE59A",
"q 	c #FFEEAA",
"r 	c #FFEDA8",
"s 	c #FFE399",
"t 	c #F9D574",
"u 	c #F3CC59",
"v 	c #F1C84F",
"w 	c #FAE9BB",
"x 	c #D58D24",
"y 	c #DFBB58",
"z 	c #FCF1C7",
"A 	c #F9DC6F",
"B 	c #EDBB56",
"C 	c #EFBD61",
"D 	c #FFE79B",
"E 	c #E2A635",
"F 	c #E1A44B",
"G 	c #FFE290",
"H 	c #E9AD49",
"I 	c #E3A438",
"J 	c #F0C449",
"K 	c #F9E8B8",
"L 	c #D4881E",
"M 	c #DEB753",
"N 	c #FCF0C6",
"O 	c #F8D96A",
"P 	c #FDE27C",
"Q 	c #FFE890",
"R 	c #FFE999",
"S 	c #DF9F32",
"T 	c #B28B54",
"U 	c #FFE28A",
"V 	c #F9D06A",
"W 	c #F1C550",
"X 	c #F0C146",
"Y 	c #F9E7B6",
"Z 	c #D38318",
"` 	c #DDB24E",
" .	c #FBEFC3",
"..	c #F8D665",
"+.	c #ECB64C",
"@.	c #EFBD5A",
"#.	c #FFEB95",
"$.	c #DD9730",
"%.	c #AB824D",
"&.	c #FFE184",
"*.	c #E9A941",
"=.	c #E19F32",
"-.	c #EFBE42",
";.	c #F9E5B4",
">.	c #D27E13",
",.	c #FBEEC1",
"'.	c #F7D35F",
").	c #FCDB6C",
"!.	c #FFE57F",
"~.	c #FFED8F",
"{.	c #FFF297",
"].	c #FFED93",
"^.	c #FFDF7C",
"/.	c #F8CC5B",
"(.	c #EFBE46",
"_.	c #EEBA3C",
":.	c #F9E3B3",
"<.	c #D1790E",
"[.	c #DBA843",
"}.	c #FBECBF",
"|.	c #F5CF59",
"1.	c #ECB041",
"2.	c #EFBA4E",
"3.	c #EFC25A",
"4.	c #EFC660",
"5.	c #EFC45C",
"6.	c #EFB64C",
"7.	c #E6A537",
"8.	c #E19A2A",
"9.	c #EEB838",
"0.	c #F8E3B1",
"a.	c #D07509",
"b.	c #DAA33D",
"c.	c #FAEBBC",
"d.	c #FCEBBC",
"e.	c #FEEEBF",
"f.	c #FFF4C6",
"g.	c #FFF8CE",
"h.	c #FFFAD3",
"i.	c #FFF8D0",
"j.	c #FFF2C7",
"k.	c #FCE9BA",
"l.	c #F9E4B3",
"m.	c #F8E2B0",
"n.	c #CF7105",
"o.	c #D99D36",
"p.	c #D7942C",
"q.	c #D69028",
"r.	c #D58C23",
"s.	c #D3841A",
"t.	c #D28015",
"u.	c #D17C11",
"v.	c #D0760A",
"w.	c #CF7307",
"x.	c #CF7004",
"y.	c #CE6E01",
"        . + @ @ # $             ",
"      + % & * * = - ;           ",
"    + > , ' $ $ ) ! $ ~         ",
"    {   ] $     ^ / ( ~         ",
"    { _ $         / { /         ",
"    { : <                       ",
"  [ } < | 1 2 3 4 5 6 7 7 8 9   ",
"  0 a b c d e f g h 7 7 7 i j   ",
"  k l m n o p q r s t u v w x   ",
"  y z A B C D E F G H I J K L   ",
"  M N O P Q R S T U V W X Y Z   ",
"  `  ...+.@.#.$.%.&.*.=.-.;.>.  ",
"  5 ,.'.).!.~.{.].^./.(._.:.<.  ",
"  [.}.|.1.2.3.4.5.6.7.8.9.0.a.  ",
"  b.c.d.e.f.g.h.i.j.k.l.m.m.n.  ",
"  o.9 p.q.r.L s.t.u.<.v.w.x.y.  "};
