/* XPM */
static const char * const viewedit_xpm[] = {
/* columns rows colors chars-per-pixel */
"16 16 63 1",
/* colors */
" 	c None",
".	c #E4BA2F",
"+	c #DBAA4F",
"@	c #CA9350",
"#	c #C8904E",
"$	c #D29D2F",
"%	c #DEA435",
"&	c #D9A850",
"*	c #D8A56A",
"=	c #F7E1C9",
"-	c #F8E3CB",
";	c #CA9542",
">	c #C28231",
",	c #F4D4A7",
"'	c #F8E1C5",
")	c #F9E3CC",
"!	c #F7DBBD",
"~	c #C9904F",
"{	c #F8EDC3",
"]	c #F8E2A8",
"^	c #DDAE6C",
"/	c #F4CFA5",
"(	c #CB9353",
"_	c #FCF4B3",
":	c #F5D968",
"<	c #F3CF6F",
"[	c #D09D59",
"}	c #DDAB73",
"|	c #C9914F",
"1	c #F5DC60",
"2	c #F4D644",
"3	c #FAEE8E",
"4	c #E6B45D",
"5	c #D98F3B",
"6	c #BF9027",
"7	c #B98926",
"8	c #F2E6BE",
"9	c #986320",
"0	c #E1CBB0",
"a	c #C8A967",
"b	c #936D1E",
"c	c #F2E1C8",
"d	c #FAE7D1",
"e	c #B57D34",
"f	c #C39931",
"g	c #DCC46D",
"h	c #CF9C4A",
"i	c #C78334",
"j	c #F9E3CB",
"k	c #ECAA61",
"l	c #E89840",
"m	c #C26715",
"n	c #AA6016",
"o	c #B4762C",
"p	c #594212",
"q	c #D49C5D",
"r	c #F5CFA6",
"s	c #ECCFA9",
"t	c #C18B48",
"u	c #584013",
"v	c #5E4215",
"w	c #9C6925",
"x	c #BA8B3B",
/* pixels */
"                ",
"          .+@#$%",
"          &*=-;>",
"         .,'))!~",
"        .{]^//!(",
"       .{_:<[}| ",
"      .{_12345  ",
"     .{_12345   ",
"    6{_12345    ",
"   78_12345     ",
" 970a12345      ",
" bcdefghi       ",
" bjklmno        ",
" pqrsto         ",
" uvwox          ",
"                "};
