/* XPM */
static const char * const viewreports_disabled_xpm[] = {
/* columns rows colors chars-per-pixel */
"16 16 85 1",
/* colors */
" 	c None",
".	c Gray81",
"X	c #979797",
"o	c #888888",
"O	c Gray46",
"+	c Black",
"@	c Gray80",
"#	c #c8c8c8",
"$	c Gray45",
"%	c Gray99",
"&	c Gray47",
"*	c #b1b1b1",
"=	c #929292",
"-	c Gray63",
";	c Gray97",
":	c Gray96",
">	c #f4f4f4",
",	c Gray95",
"<	c #fbfbfb",
"1	c Gray44",
"2	c #f3f3f3",
"3	c Gray98",
"4	c Gray56",
"5	c #a0a0a0",
"6	c #6f6f6f",
"7	c #f8f8f8",
"8	c #9f9f9f",
"9	c #9d9d9d",
"0	c Gray61",
"q	c #9b9b9b",
"w	c #9a9a9a",
"e	c Gray78",
"r	c #6d6d6d",
"t	c #f9f9f9",
"y	c #bcbcbc",
"u	c #bbbbbb",
"i	c Gray73",
"p	c #989898",
"a	c #8e8e8e",
"s	c Gray62",
"d	c #6c6c6c",
"f	c Gray60",
"g	c #959595",
"h	c #f6f6f6",
"j	c #6a6a6a",
"k	c Gray94",
"l	c #eeeeee",
"z	c Gray55",
"x	c Gray41",
"c	c Gray58",
"v	c #939393",
"b	c #eaeaea",
"n	c #ececec",
"m	c #676767",
"M	c Gray82",
"N	c Gray1",
"B	c Gray54",
"V	c #646464",
"C	c Gray79",
"Z	c Gray91",
"A	c Gray39",
"S	c #f1f1f1",
"D	c #cacaca",
"F	c #e6e6e6",
"G	c Gray38",
"H	c #5f5f5f",
"J	c #fdfdfd",
"K	c Gray93",
"L	c #d5d5d5",
"P	c #e9e9e9",
"I	c Gray100",
"U	c #747474",
"Y	c #626262",
"T	c #717171",
"R	c Gray37",
"E	c gainsboro",
"W	c #d8d8d8",
"Q	c Gray83",
"!	c #d2d2d2",
"~	c #d3d3d3",
"^	c #cbcbcb",
"/	c #cdcdcd",
"(	c #343434",
")	c Gray27",
"_	c Gray21",
/* pixels */
" .XoO+++++++++++",
".@##$%%%%%%%%%%+",
"&*=-$;;;;:>>>,<+",
".@##1;;;;;:::23+",
"&*456778990qw>3+",
".@e#rtt9yyuip>;+",
"&*asd330qwfXg,h+",
".@e#j<3777;2,kl+",
"&*z0x37fXcv=abn+",
".@eem3t7;h333,MN",
"&*BqVttth233,CZ+",
".@eeA337>S<,DF%+",
"&*opG33h2l2DF<%+",
".@eeHJ<7>KLPIII+",
"&UYTREWQ!M~M^/e+",
"  ()_+++++++++++"};
