/* XPM */
static const char * const viewreports_xpm[] = {
/* columns rows colors chars-per-pixel */
"16 16 102 2",
/* colors */
"  	c None",
". 	c Gray81",
"X 	c #c28b64",
"o 	c #be7849",
"O 	c #ba6128",
"+ 	c Black",
"@ 	c Gray80",
"# 	c #cac7c4",
"$ 	c #cdc7c1",
"% 	c #b85f27",
"& 	c Gray99",
"* 	c Gray47",
"= 	c #b1b1b1",
"- 	c #b98767",
"; 	c #c59a67",
": 	c #b85e27",
"> 	c Gray97",
", 	c Gray96",
"< 	c #f4f4f4",
"1 	c Gray95",
"2 	c #fbfbfb",
"3 	c #cdc7c0",
"4 	c #b75b26",
"5 	c #f3f3f3",
"6 	c Gray98",
"7 	c #b78367",
"8 	c #c49966",
"9 	c #b75926",
"0 	c #f8f8f8",
"q 	c #7aa5e1",
"w 	c #78a3e1",
"e 	c #77a3e1",
"r 	c #76a2e0",
"t 	c #76a0e0",
"y 	c #74a0e0",
"u 	c #cac6c4",
"i 	c #b55626",
"p 	c #f9f9f9",
"a 	c #a3c0ea",
"s 	c #a2c0ea",
"d 	c #a1bfea",
"f 	c #a0beea",
"g 	c #719edf",
"h 	c #b58266",
"j 	c #c39665",
"k 	c #b45525",
"l 	c #739edf",
"z 	c #729cdc",
"x 	c #6f9bdc",
"c 	c #f6f6f6",
"v 	c #b25225",
"b 	c Gray94",
"n 	c #eeeeee",
"m 	c #b57f65",
"M 	c #c29464",
"N 	c #b25124",
"B 	c #739fe0",
"V 	c #719ddd",
"C 	c #6e9adc",
"Z 	c #6b99da",
"A 	c #6a98d9",
"S 	c #6a93d4",
"D 	c #eaeaea",
"F 	c #ececec",
"G 	c #cdc6c0",
"H 	c #b14e23",
"J 	c Gray82",
"K 	c Gray1",
"L 	c #b37c64",
"P 	c #c19263",
"I 	c #af4b23",
"U 	c Gray79",
"Y 	c Gray91",
"T 	c #ccc6c0",
"R 	c #ae4922",
"E 	c #f1f1f1",
"W 	c #cacaca",
"Q 	c #e6e6e6",
"! 	c #b37963",
"~ 	c #bf8f61",
"^ 	c #ae4622",
"/ 	c #ac4321",
"( 	c #fdfdfd",
") 	c Gray93",
"_ 	c #d5d5d5",
"` 	c #e9e9e9",
"' 	c Gray100",
"] 	c #747474",
"[ 	c #a54b2c",
"{ 	c #af5d35",
"} 	c #ab4221",
"| 	c gainsboro",
" .	c #d8d8d8",
"..	c Gray83",
"X.	c #d2d2d2",
"o.	c #d3d3d3",
"O.	c #cbcbcb",
"+.	c #cdcdcd",
"@.	c Gray78",
"#.	c #602512",
"$.	c #7e3118",
"%.	c #632613",
/* pixels */
"  . X o O + + + + + + + + + + + ",
". @ # $ % & & & & & & & & & & + ",
"* = - ; : > > > > , < < < 1 2 + ",
". @ # 3 4 > > > > > , , , 5 6 + ",
"* = 7 8 9 0 0 q w e r t y < 6 + ",
". @ u 3 i p p w a s d f g < > + ",
"* = h j k 6 6 r t y l z x 1 c + ",
". @ u 3 v 2 6 0 0 0 > 5 1 b n + ",
"* = m M N 6 0 B V C Z A S D F + ",
". @ u G H 6 p 0 > c 6 6 6 1 J K ",
"* = L P I p p p c 5 6 6 1 U Y + ",
". @ u T R 6 6 0 < E 2 1 W Q & + ",
"* = ! ~ ^ 6 6 c 5 n 5 W Q 2 & + ",
". @ u T / ( 2 0 < ) _ ` ' ' ' + ",
"* ] [ { } |  ...X.J o.J O.+.@.+ ",
"    #.$.%.+ + + + + + + + + + + "};
