/* XPM */
static const char *classic_URLX[] = {
/* width height ncolors chars_per_pixel */
"16 16 3 1",
"  c None",
". c #808080",
"X c #c0c0c0",
"                ",
"                ",
"  ........      ",
"  .XXXXXXX.     ",
"  .XX....XX.    ",
"  .XX.  .XX.    ",
"  .XX....X.     ",
"  .XXXXXXXX.    ",
"  .XX......X.   ",
"  .XX.    .XX.  ",
"  .XX......XX.  ",
"  .XXXXXXXXXX.  ",
"  .XXXXXXXXX.   ",
"  ..........    ",
"                ",
"                ",
};
