/* XPM */
static const char * const classic_add_disabled_xpm[] = {
/* columns rows colors chars-per-pixel */
"16 16 4 1",
/* colors */
"  c None",
". c #000000",
"+ c #ffffff",
"@ c #e5e5e5",
/* pixels */
"                ",
"     .....      ",
"     .@+@.      ",
"     .+@+.      ",
"     .@+@.      ",
" .....+@+.....  ",
" .@+@+@+@+@+@.  ",
" .+@+@+@+@+@+.  ",
" .@+@+@+@+@+@.  ",
" .....+@+.....  ",
"     .@+@.      ",
"     .+@+.      ",
"     .@+@.      ",
"     .....      ",
"                ",
"                ",
};