/* XPM */
static const char * const classic_addgroup_xpm[] = {
/* columns rows colors chars-per-pixel */
"16 16 5 1",
/* colors */
" 	c None",
".	c #606060",
"X	c #0080ff",
"o	c #000000",
"O	c #fff200",
/* pixels */
"                ",
"                ",
"  ............  ",
"  .XXXXXXXXXX.  ",
"  .XXXXXXXXXX.  ",
"  .XX.........  ",
"  .XX.          ",
"  .XX.   .....  ",
"  .XX.   .oooo  ",
"  .XX.   .oOOo  ",
"  .XX...oooOOooo",
"  .XXXXXoOOOOOOo",
"  .XXXXXoOOOOOOo",
"  ......oooOOooo",
"          oOOo  ",
"          oooo  "
};
