/* XPM */
static const char *classic_collapseall_xpm[] = {
/* columns rows colors chars-per-pixel */
"16 16 2 1",
/* colors */
"  c None",
". c black",
/* pixels */
"                ",
"  ..  ........  ",
"  ..  ........  ",
"                ",
"  ..  ........  ",
"  ..  ........  ",
"                ",
"  ..  ........  ",
"  ..  ........  ",
"                ",
"  ..  ........  ",
"  ..  ........  ",
"                ",
"  ..  ........  ",
"  ..  ........  ",
"                "
};
