/* XPM */
static const char * const classic_copynotes_xpm[] = {
/* columns rows colors chars-per-pixel */
"16 16 3 1",
/* colors */
"  c None",
"X c black",
". c yellow",
/* pixels */
"                ",
" XXXXXX   XXXX  ",
" X....X   X..X  ",
" X....X   X..X  ",
" X.....X  X..X  ",
" X.....X  X..X  ",
" X..XX..X X..X  ",
" X..X X.X X..X  ",
" X..X X..XX..X  ",
" X..X  X.XX..X  ",
" X..X  X.....X  ",
" X..X   X....X  ",
" X..X   X....X  ",
" X..X    X...X  ",
" XXXX    XXXXX  ",
"                "
};
