/* XPM */
static const char * const classic_displayauthcode_disabled_xpm[] = {
"16 16 10 1",
" 	c #424242",
".	c #A2A2A2",
"+	c #949494",
"@	c #BBBBBB",
"#	c #626262",
"$	c #979797",
"%	c #808080",
"&	c #7A7A7A",
"*	c #747474",
"=	c #717171",
"                ",
" .++++++++++++. ",
" +@#@##@##@@@@+ ",
" +##@@#@@#@@@$+ ",
" +$#$##$##$$$$% ",
" +&#&#&&&#&&&&% ",
" +*#*##*##*%*%% ",
" .++++++++%%%%. ",
" .............. ",
" .............. ",
" .............. ",
" .............. ",
"                ",
"=======  =======",
"=======  =======",
"=====      ====="};
