/* XPM */
static const char * const classic_importtext_disabled_xpm[] = {
/* width height ncolors chars_per_pixel */
"16 16 2 1",
/* colors */
"  c None",
". c #000000",
/* pixels */
"                ",
"                ",
"                ",
"                ",
"    .    ...... ",
"   ..    ...... ",
"  ...      ..   ",
" .......   ..   ",
"........   ..   ",
" .......   ..   ",
"  ...      ..   ",
"   ..      ..   ",
"    .      ..   ",
"                ",
"                ",
"                ",
};