/* XPM */
static const char * const classic_listtree_xpm[] = {
/* columns rows colors chars-per-pixel */
"16 16 4 1",
/* colors */
" 	c None",
".	c Black",
"X	c Blue",
"o	c Red",
/* pixels */
"                ",
"                ",
"                ",
"                ",
"..        ......",
"..   X    ......",
"..  X       ..  ",
".. XXXXXXXX ..  ",
"..          ..  ",
".. oooooooo ..  ",
"..       o  ..  ",
"......  o   ..  ",
"......      ..  ",
"                ",
"                ",
"                "
};
