/* XPM */
static const char *classic_lock_disabled_xpm[] = {
"16 16 11 1",
" 	c None",
".	c #858585",
"+	c #5B5B5B",
"@	c #585858",
"#	c #000000",
"$	c #575757",
"%	c #797979",
"&	c #939393",
"*	c #757575",
"=	c #7F7F7F",
"-	c #7B7B7B",
"                ",
"      .++.      ",
"     @####@     ",
"    @#+  +#@    ",
"    #$    $#    ",
"    #.    .#    ",
"   %&.****.&%   ",
"   ##########   ",
"   ####  ####   ",
"   ####  ####   ",
"   ####  ####   ",
"   ####  ####   ",
"   ##########   ",
"   =%%----%%=   ",
"                ",
"                "};
