/* XPM */
static const char * const classic_merge_disabled_xpm[] = {
/* width height ncolors chars_per_pixel */
"16 16 4 1",
/* colors */
"  c None",
". c #000000",
"+ c #4c4c4c",
"@ c #2c2c2c",
/* pixels */
"      @@   @@@  ",
"      @ @  @  @ ",
"  ++++@  @ @  @ ",
"  +   @  @ @@@@ ",
"+++++ @  @ @   @",
" +++  @ @  @   @",
"  +   @@   @@@@ ",
"                ",
" ..   ...       ",
" . .  .  .      ",
" .  . .  .      ",
" .  . ....      ",
" .  . .   .     ",
" . .  .   .     ",
" ..   ....      ",
"                ",
};