/* XPM */
static const char * const classic_options_disabled_xpm[] = {
/* columns rows colors chars-per-pixel */
"16 16 4 1",
/* colors */
"  c None",
". c #000000",
"+ c #ffffff",
"@ c #0c0c0c",
/* pixels */
"                ",
"       ...... @@",
"      .      .@@",
"     . .      @@",
"..... . .     @@",
".++. . . .   .@@",
".+. .+. . ... @@",
".++.+++. .+.   @",
".+++++++.++.    ",
".++++++++++.    ",
".+..+.....+.    ",
".++++++++++.    ",
".+..+.....+.    ",
".++++++++++.    ",
"............    ",
"                ",
};