/* XPM */
static const char * const classic_passwordchars_disabled_xpm[] = {
/* width height ncolors chars_per_pixel */
"16 16 3 1",
/* colors */
"  c None",
". c #000000",
"+ c #262626",
/* pixels */
"                ",
" ........       ",
" .+++++++.      ",
" .+.....++.     ",
" .+.    .+.     ",
" .+.    .+.     ",
" .+.....++.     ",
" .+++++++.      ",
" .+......       ",
" .+.            ",
" .+. ..  ... ...",
" ...  .    .   .",
"      .   .   ..",
"      .  .     .",
"     ... ... ...",
"                ",
};