/* XPM */
static const char * const classic_redo_disabled_xpm[] = {
/* width height ncolors chars_per_pixel */
"16 16 14 1",
/* colors */
"  c None",
". c #000000",
"+ c #f0f0f0",
"@ c #bfbfbf",
"# c #eaeaea",
"$ c #ffffff",
"% c #f1f1f1",
"& c #5d5d5d",
"* c #7c7c7c",
"= c #939393",
"- c #d6d6d6",
"; c #878787",
"> c #b1b1b1",
", c #787878",
/* pixels */
"         .      ",
"         ..     ",
"         .$.    ",
"     ,....#$.   ",
"    .-%%++##$.  ",
"   .+@@%%%@##$. ",
"  ,+@@@@@@@@@+$.",
"  .>@@;******;. ",
"  .@@*******;.  ",
"  .@;*;...*;.   ",
"  .@;;.  .;.    ",
"  .@;.   ..     ",
"  .=;.   .      ",
"  ,.;.          ",
"   .=&.         ",
"    ..          ",
};