/* XPM */
static const char * const classic_runcmd_disabled_xpm[] = {
/* width height ncolors chars_per_pixel */
"16 16 3 1",
/* colors */
"  c None",
". c #e7e7e7",
"+ c #7c7c7c",
/* pixels */
" ..             ",
" .+..           ",
" .+++..         ",
" .+++++..       ",
" .+++++++..     ",
" .+++++++++..   ",
" .+++++++++++.. ",
" .+++++++++++++.",
" .+++++++++++++.",
" .+++++++++++.. ",
" .+++++++++..   ",
" .+++++++..     ",
" .+++++..       ",
" .+++..         ",
" .+..           ",
" ..             ",
};