/* XPM */
static const char * const classic_sendemail_xpm[] = {
/* columns rows colors chars-per-pixel */
"16 16 5 1",
/* colors */
"  c None",
"o c #040404040404",
". c yellow",
"X c #868686868686",
"O c gray100",
/* pixels */
"                ",
"                ",
"                ",
"                ",
"o o oooooooooooo",
"     oX.O.O.O.Xo",
"o o oo.o.O.O.o.o",
"     oO.o.O.o.Oo",
"o o oo.o.o.o.o.o",
"     oo.O.o.O.oo",
"o o oo.O.O.O.O.o",
"     ooooooooooo",
"                ",
"                ",
"                ",
"                "
};
