/* XPM */
static const char * const classic_synchronize_disabled_xpm[] = {
/* width height ncolors chars_per_pixel */
"16 16 41 1",
/* colors */
"  c None",
". c #909090",
"+ c #b0b0b0",
"@ c #a0a0a0",
"# c #bababa",
"$ c #a7a7a7",
"% c #6b6b6b",
"& c #adadad",
"* c #5c5c5c",
"= c #aeaeae",
"- c #bfbfbf",
"; c #b7b7b7",
"> c #b3b3b3",
", c #bcbcbc",
"' c #acacac",
") c #737373",
"! c #a3a3a3",
"~ c #7a7a7a",
"{ c #4f4f4f",
"] c #828282",
"^ c #8d8d8d",
"/ c #a9a9a9",
"( c #c5c5c5",
"_ c #bebebe",
": c #c2c2c2",
"< c #b5b5b5",
"[ c #a5a5a5",
"} c #ababab",
"| c #444444",
"1 c #a6a6a6",
"2 c #898989",
"3 c #b9b9b9",
"4 c #b1b1b1",
"5 c #a1a1a1",
"6 c #636363",
"7 c #a4a4a4",
"8 c #b2b2b2",
"9 c #555555",
"0 c #a2a2a2",
"a c #969696",
"b c #494949",
/* pixels */
"                ",
"                ",
"                ",
"                ",
"   77           ",
"   75           ",
"  74&a.2]~)%6*9 ",
" 7+(:-,3<8=}$[{ ",
" 5' _#;>+'/1!@b ",
"  a0$^~)%6*9{b| ",
"   2]~          ",
"   ]~           ",
"                ",
"                ",
"                ",
"                ",
};