/* XPM */
static char *image_xpm[] = {
/* width height ncolors chars_per_pixel */
"16 16 4 1",
"  c #c0c0c0",
". c #000000",
"+ c #ffffff",
"@ c #e5e5e5",
"                ",
"    ..          ",
"    .+.         ",
"    .++.        ",
"    .++..       ",
"    ...@.       ",
"     .@.@.      ",
"     .@.@.      ",
"      .@.@.     ",
"      .@.@.     ",
"       .@.@.    ",
"       .@.@.    ",
"        .@.@.   ",
"        .@..    ",
"         ..     ",
"                ",
};